LinguisticsPro-BoldItalic.ufo
<glyph name="exclam" format="1">
  <advance width="280"/>
  <unicode hex="0021"/>
  <outline>
    <contour>
      <point x="67" y="67" type="curve" smooth="yes"/>
      <point x="67" y="128"/>
      <point x="110" y="166"/>
      <point x="163" y="166" type="curve" smooth="yes"/>
      <point x="221" y="166"/>
      <point x="247" y="129"/>
      <point x="247" y="88" type="curve" smooth="yes"/>
      <point x="247" y="27"/>
      <point x="205" y="-12"/>
      <point x="154" y="-12" type="curve" smooth="yes"/>
      <point x="94" y="-12"/>
      <point x="67" y="24"/>
    </contour>
    <contour>
      <point x="157" y="217" type="line"/>
      <point x="193" y="603" type="line" smooth="yes"/>
      <point x="200" y="673"/>
      <point x="214" y="707"/>
      <point x="296" y="707" type="curve" smooth="yes"/>
      <point x="379" y="707"/>
      <point x="379" y="673"/>
      <point x="353" y="603" type="curve" smooth="yes"/>
      <point x="212" y="217" type="line"/>
    </contour>
  </outline>
</glyph>
<glyph name="quotedbl" format="1">
  <advance width="455"/>
  <unicode hex="0022"/>
  <outline>
    <contour>
      <point x="380" y="407" type="line"/>
      <point x="388" y="630" type="line" smooth="yes"/>
      <point x="389" y="682"/>
      <point x="409" y="707"/>
      <point x="471" y="707" type="curve" smooth="yes"/>
      <point x="533" y="707"/>
      <point x="543" y="683"/>
      <point x="521" y="630" type="curve" smooth="yes"/>
      <point x="426" y="407" type="line"/>
    </contour>
    <contour>
      <point x="177" y="407" type="line"/>
      <point x="185" y="630" type="line" smooth="yes"/>
      <point x="186" y="682"/>
      <point x="206" y="707"/>
      <point x="268" y="707" type="curve" smooth="yes"/>
      <point x="330" y="707"/>
      <point x="340" y="683"/>
      <point x="318" y="630" type="curve" smooth="yes"/>
      <point x="223" y="407" type="line"/>
    </contour>
  </outline>
</glyph>
<glyph name="percent" format="2">
  <advance width="896"/>
  <unicode hex="0025"/>
  <outline>
    <contour>
      <point x="250" y="409.213" type="curve" smooth="yes"/>
      <point x="250" y="381"/>
      <point x="260" y="348"/>
      <point x="295" y="348" type="curve" smooth="yes"/>
      <point x="377" y="348"/>
      <point x="396" y="528"/>
      <point x="396" y="576.017" type="curve" smooth="yes"/>
      <point x="396" y="603"/>
      <point x="390" y="640"/>
      <point x="354.046" y="640" type="curve" smooth="yes"/>
      <point x="273" y="640"/>
      <point x="250" y="452"/>
    </contour>
    <contour>
      <point x="141" y="452.89" type="curve" smooth="yes"/>
      <point x="141" y="575.418"/>
      <point x="225.137" y="680"/>
      <point x="347.906" y="680" type="curve" smooth="yes"/>
      <point x="395" y="680"/>
      <point x="445.437" y="664.611"/>
      <point x="463.299" y="650.023" type="curve" smooth="yes"/>
      <point x="474.786" y="640.641"/>
      <point x="497.21" y="633"/>
      <point x="517.309" y="633" type="curve" smooth="yes"/>
      <point x="686.547" y="633" type="line" smooth="yes"/>
      <point x="713.023" y="633"/>
      <point x="742.581" y="651.501"/>
      <point x="764" y="677" type="curve" smooth="yes"/>
      <point x="785" y="702" type="line"/>
      <point x="828" y="666" type="line"/>
      <point x="255" y="-31" type="line"/>
      <point x="214" y="7" type="line"/>
      <point x="692" y="588" type="line"/>
      <point x="499" y="588" type="line"/>
      <point x="503" y="567"/>
      <point x="505" y="549"/>
      <point x="505" y="529.734" type="curve" smooth="yes"/>
      <point x="505" y="407.412"/>
      <point x="424.374" y="308"/>
      <point x="287" y="308" type="curve" smooth="yes"/>
      <point x="175" y="308"/>
      <point x="141" y="375"/>
    </contour>
    <contour>
      <point x="640" y="87.339" type="curve" smooth="yes"/>
      <point x="640" y="61"/>
      <point x="648" y="28"/>
      <point x="683.677" y="28" type="curve" smooth="yes"/>
      <point x="767" y="28"/>
      <point x="787" y="208"/>
      <point x="787" y="255.122" type="curve" smooth="yes"/>
      <point x="787" y="283"/>
      <point x="780" y="320"/>
      <point x="744.046" y="320" type="curve" smooth="yes"/>
      <point x="663" y="320"/>
      <point x="640" y="132"/>
    </contour>
    <contour>
      <point x="531" y="132.89" type="curve" smooth="yes"/>
      <point x="531" y="255.418"/>
      <point x="615.137" y="360"/>
      <point x="754.766" y="360" type="curve" smooth="yes"/>
      <point x="869" y="360"/>
      <point x="896" y="290"/>
      <point x="896" y="214.701" type="curve" smooth="yes"/>
      <point x="896" y="85.504"/>
      <point x="816.514" y="-12"/>
      <point x="678.996" y="-12" type="curve" smooth="yes"/>
      <point x="565" y="-12"/>
      <point x="531" y="55"/>
    </contour>
  </outline>
</glyph>
<glyph name="ampersand" format="1">
  <advance width="752"/>
  <unicode hex="0026"/>
  <outline>
    <contour>
      <point x="367" y="520" type="curve" smooth="yes"/>
      <point x="367" y="480"/>
      <point x="384" y="441"/>
      <point x="401" y="414" type="curve"/>
      <point x="450" y="435"/>
      <point x="497" y="491"/>
      <point x="497" y="568" type="curve" smooth="yes"/>
      <point x="497" y="604"/>
      <point x="476" y="634"/>
      <point x="445" y="634" type="curve" smooth="yes"/>
      <point x="405" y="634"/>
      <point x="367" y="593"/>
    </contour>
    <contour>
      <point x="236" y="199" type="curve" smooth="yes"/>
      <point x="236" y="114"/>
      <point x="299" y="57"/>
      <point x="382" y="57" type="curve" smooth="yes"/>
      <point x="418" y="57"/>
      <point x="462" y="71"/>
      <point x="481" y="89" type="curve"/>
      <point x="395" y="160"/>
      <point x="326" y="266"/>
      <point x="293" y="328" type="curve"/>
      <point x="277" y="318"/>
      <point x="236" y="275"/>
    </contour>
    <contour>
      <point x="97" y="171" type="curve" smooth="yes"/>
      <point x="97" y="298"/>
      <point x="205" y="344"/>
      <point x="271" y="374" type="curve"/>
      <point x="256" y="404"/>
      <point x="244" y="445"/>
      <point x="244" y="480" type="curve" smooth="yes"/>
      <point x="244" y="602"/>
      <point x="332" y="680"/>
      <point x="439" y="680" type="curve" smooth="yes"/>
      <point x="532" y="680"/>
      <point x="603" y="628"/>
      <point x="603" y="543" type="curve" smooth="yes"/>
      <point x="603" y="440"/>
      <point x="508" y="401"/>
      <point x="423" y="373" type="curve"/>
      <point x="459" y="314"/>
      <point x="518" y="234"/>
      <point x="575" y="173" type="curve"/>
      <point x="626" y="233"/>
      <point x="642" y="340"/>
      <point x="648" y="417" type="curve"/>
      <point x="681" y="441"/>
      <point x="732" y="448"/>
      <point x="761" y="444" type="curve"/>
      <point x="779" y="412"/>
      <point x="772" y="361"/>
      <point x="755" y="330" type="curve" smooth="yes"/>
      <point x="721" y="266"/>
      <point x="684" y="206"/>
      <point x="608" y="138" type="curve"/>
      <point x="655" y="88"/>
      <point x="698" y="49"/>
      <point x="751" y="26" type="curve"/>
      <point x="746" y="-7" type="line"/>
      <point x="719" y="-6" type="line" smooth="yes"/>
      <point x="621" y="-3"/>
      <point x="566" y="19"/>
      <point x="518" y="57" type="curve"/>
      <point x="465" y="12"/>
      <point x="381" y="-12"/>
      <point x="309" y="-12" type="curve" smooth="yes"/>
      <point x="169" y="-12"/>
      <point x="97" y="75"/>
    </contour>
  </outline>
</glyph>
<glyph name="quotesingle" format="1">
  <advance width="246"/>
  <unicode hex="0027"/>
  <outline>
    <contour>
      <point x="169" y="376" type="line"/>
      <point x="180" y="630" type="line" smooth="yes"/>
      <point x="182" y="682"/>
      <point x="199" y="707"/>
      <point x="261" y="707" type="curve" smooth="yes"/>
      <point x="323" y="707"/>
      <point x="331" y="683"/>
      <point x="311" y="630" type="curve" smooth="yes"/>
      <point x="215" y="376" type="line"/>
    </contour>
  </outline>
</glyph>
<glyph name="parenright" format="2">
  <advance width="350"/>
  <unicode hex="0029"/>
  <outline>
    <contour>
      <point x="3" y="-135" type="curve"/>
      <point x="4" y="-101" type="line"/>
      <point x="137" y="-78"/>
      <point x="210" y="179"/>
      <point x="232" y="282" type="curve"/>
      <point x="256" y="385"/>
      <point x="285" y="629"/>
      <point x="184" y="665" type="curve"/>
      <point x="196" y="699" type="line"/>
      <point x="284" y="689"/>
      <point x="332" y="623"/>
      <point x="348" y="527" type="curve" smooth="yes"/>
      <point x="362" y="441"/>
      <point x="348" y="339"/>
      <point x="331" y="263" type="curve" smooth="yes"/>
      <point x="315" y="193"/>
      <point x="290" y="93"/>
      <point x="240" y="10" type="curve"/>
      <point x="183" y="-81"/>
      <point x="105" y="-140"/>
    </contour>
  </outline>
</glyph>
<glyph name="period" format="2">
  <advance width="280"/>
  <unicode hex="002E"/>
  <outline>
    <contour>
      <point x="67" y="67" type="curve" smooth="yes"/>
      <point x="67" y="128"/>
      <point x="110" y="166"/>
      <point x="163" y="166" type="curve" smooth="yes"/>
      <point x="221" y="166"/>
      <point x="247" y="129"/>
      <point x="247" y="88" type="curve" smooth="yes"/>
      <point x="247" y="27"/>
      <point x="205" y="-12"/>
      <point x="154" y="-12" type="curve" smooth="yes"/>
      <point x="94" y="-12"/>
      <point x="67" y="24"/>
    </contour>
  </outline>
</glyph>
<glyph name="slash" format="2">
  <advance width="260"/>
  <unicode hex="002F"/>
  <outline>
    <contour>
      <point x="19" y="-15" type="line"/>
      <point x="305" y="707" type="line"/>
      <point x="405" y="707" type="line"/>
      <point x="119" y="-15" type="line"/>
    </contour>
  </outline>
</glyph>
<glyph name="zero" format="2">
  <advance width="560"/>
  <unicode hex="0030"/>
  <outline>
    <contour>
      <point x="92" y="218" type="curve" smooth="yes"/>
      <point x="92" y="531"/>
      <point x="272" y="684"/>
      <point x="422" y="684" type="curve" smooth="yes"/>
      <point x="528" y="684"/>
      <point x="618" y="607"/>
      <point x="618" y="456" type="curve" smooth="yes"/>
      <point x="618" y="141"/>
      <point x="440" y="-16"/>
      <point x="290" y="-16" type="curve" smooth="yes"/>
      <point x="184" y="-16"/>
      <point x="92" y="62"/>
    </contour>
    <contour>
      <point x="232" y="133" type="curve" smooth="yes"/>
      <point x="232" y="54"/>
      <point x="271" y="30"/>
      <point x="290" y="30" type="curve" smooth="yes"/>
      <point x="360" y="30"/>
      <point x="478" y="354"/>
      <point x="478" y="538" type="curve" smooth="yes"/>
      <point x="478" y="607"/>
      <point x="458" y="638"/>
      <point x="431" y="638" type="curve" smooth="yes"/>
      <point x="294" y="638"/>
      <point x="232" y="226"/>
    </contour>
  </outline>
</glyph>
<glyph name="one" format="1">
  <advance width="560"/>
  <unicode hex="0031"/>
  <outline>
    <contour>
      <point x="107" y="0" type="line"/>
      <point x="115" y="38" type="line"/>
      <point x="187" y="43" type="line" smooth="yes"/>
      <point x="210" y="45"/>
      <point x="222" y="52"/>
      <point x="228" y="81" type="curve" smooth="yes"/>
      <point x="334" y="556" type="line" smooth="yes"/>
      <point x="340" y="586"/>
      <point x="335" y="593"/>
      <point x="318" y="596" type="curve" smooth="yes"/>
      <point x="242" y="609" type="line"/>
      <point x="250" y="642" type="line"/>
      <point x="497" y="680" type="line"/>
      <point x="505" y="673" type="line"/>
      <point x="374" y="81" type="line" smooth="yes"/>
      <point x="368" y="52"/>
      <point x="378" y="44"/>
      <point x="402" y="43" type="curve" smooth="yes"/>
      <point x="475" y="38" type="line"/>
      <point x="467" y="0" type="line"/>
    </contour>
  </outline>
</glyph>
<glyph name="two" format="1">
  <advance width="560"/>
  <unicode hex="0032"/>
  <outline>
    <contour>
      <point x="39" y="16" type="line"/>
      <point x="58" y="116"/>
      <point x="145" y="191"/>
      <point x="268" y="277" type="curve" smooth="yes"/>
      <point x="378" y="354"/>
      <point x="457" y="440"/>
      <point x="457" y="555" type="curve" smooth="yes"/>
      <point x="457" y="600"/>
      <point x="440" y="634"/>
      <point x="396" y="634" type="curve" smooth="yes"/>
      <point x="350" y="634"/>
      <point x="318" y="591"/>
      <point x="284" y="509" type="curve" smooth="yes"/>
      <point x="273" y="481"/>
      <point x="261" y="459"/>
      <point x="229" y="459" type="curve" smooth="yes"/>
      <point x="194" y="459"/>
      <point x="156" y="485"/>
      <point x="156" y="530" type="curve" smooth="yes"/>
      <point x="156" y="602"/>
      <point x="245" y="680"/>
      <point x="391" y="680" type="curve" smooth="yes"/>
      <point x="535" y="680"/>
      <point x="613" y="613"/>
      <point x="613" y="504" type="curve" smooth="yes"/>
      <point x="613" y="391"/>
      <point x="535" y="326"/>
      <point x="411" y="274" type="curve" smooth="yes"/>
      <point x="353" y="250"/>
      <point x="220" y="175"/>
      <point x="205" y="116" type="curve"/>
      <point x="439" y="116" type="line" smooth="yes"/>
      <point x="484" y="116"/>
      <point x="496" y="126"/>
      <point x="526" y="173" type="curve"/>
      <point x="566" y="169" type="line"/>
      <point x="506" y="0" type="line"/>
      <point x="52" y="0" type="line"/>
    </contour>
  </outline>
</glyph>
<glyph name="four" format="1">
  <advance width="560"/>
  <unicode hex="0034"/>
  <outline>
    <contour>
      <point x="175" y="239" type="curve"/>
      <point x="355" y="239" type="line"/>
      <point x="426" y="543" type="line"/>
      <point x="424" y="543" type="line"/>
      <point x="336" y="445"/>
      <point x="252" y="342"/>
    </contour>
    <contour>
      <point x="63" y="205" type="line"/>
      <point x="189" y="367"/>
      <point x="322" y="520"/>
      <point x="474" y="668" type="curve"/>
      <point x="592" y="668" type="line"/>
      <point x="497" y="239" type="line"/>
      <point x="590" y="239" type="line"/>
      <point x="575" y="174" type="line"/>
      <point x="483" y="174" type="line"/>
      <point x="460" y="72" type="line" smooth="yes"/>
      <point x="455" y="51"/>
      <point x="463" y="43"/>
      <point x="479" y="42" type="curve" smooth="yes"/>
      <point x="527" y="38" type="line"/>
      <point x="518" y="0" type="line"/>
      <point x="212" y="0" type="line"/>
      <point x="221" y="38" type="line"/>
      <point x="286" y="43" type="line" smooth="yes"/>
      <point x="303" y="44"/>
      <point x="314" y="51"/>
      <point x="319" y="72" type="curve" smooth="yes"/>
      <point x="341" y="174" type="line"/>
      <point x="77" y="174" type="line"/>
    </contour>
  </outline>
</glyph>
<glyph name="five" format="2">
  <advance width="555"/>
  <unicode hex="0035"/>
  <outline>
    <contour>
      <point x="56" y="118" type="curve" smooth="yes"/>
      <point x="54" y="162"/>
      <point x="96" y="195"/>
      <point x="137" y="195" type="curve" smooth="yes"/>
      <point x="166" y="195"/>
      <point x="175" y="174"/>
      <point x="183" y="146" type="curve" smooth="yes"/>
      <point x="208" y="58"/>
      <point x="238" y="34"/>
      <point x="283" y="34" type="curve" smooth="yes"/>
      <point x="345" y="34"/>
      <point x="404" y="110"/>
      <point x="404" y="242" type="curve" smooth="yes"/>
      <point x="404" y="316"/>
      <point x="367" y="368"/>
      <point x="301" y="368" type="curve" smooth="yes"/>
      <point x="254" y="368"/>
      <point x="217" y="348"/>
      <point x="180" y="304" type="curve"/>
      <point x="144" y="329" type="line"/>
      <point x="211" y="657" type="line"/>
      <point x="226" y="668" type="line"/>
      <point x="619" y="668" type="line"/>
      <point x="626" y="656" type="line"/>
      <point x="565" y="552" type="line"/>
      <point x="290" y="552" type="line" smooth="yes"/>
      <point x="268" y="552"/>
      <point x="261" y="548"/>
      <point x="252" y="521" type="curve" smooth="yes"/>
      <point x="207" y="382" type="line"/>
      <point x="209" y="380" type="line"/>
      <point x="248" y="407"/>
      <point x="299" y="431"/>
      <point x="362" y="431" type="curve" smooth="yes"/>
      <point x="500" y="431"/>
      <point x="563" y="350"/>
      <point x="563" y="238" type="curve" smooth="yes"/>
      <point x="563" y="70"/>
      <point x="431" y="-12"/>
      <point x="280" y="-12" type="curve" smooth="yes"/>
      <point x="126" y="-12"/>
      <point x="58" y="57"/>
    </contour>
  </outline>
</glyph>
<glyph name="six" format="2">
  <advance width="568"/>
  <unicode hex="0036"/>
  <outline>
    <contour>
      <point x="241" y="162" type="curve" smooth="yes"/>
      <point x="241" y="92"/>
      <point x="265" y="34"/>
      <point x="325" y="34" type="curve" smooth="yes"/>
      <point x="392" y="34"/>
      <point x="439" y="129"/>
      <point x="439" y="246" type="curve" smooth="yes"/>
      <point x="439" y="316"/>
      <point x="405" y="353"/>
      <point x="356" y="353" type="curve" smooth="yes"/>
      <point x="320" y="353"/>
      <point x="290" y="332"/>
      <point x="269" y="300" type="curve" smooth="yes"/>
      <point x="249" y="269"/>
      <point x="241" y="222"/>
    </contour>
    <contour>
      <point x="96" y="222" type="curve" smooth="yes"/>
      <point x="96" y="352"/>
      <point x="142" y="508"/>
      <point x="227" y="595" type="curve" smooth="yes"/>
      <point x="233" y="601"/>
      <point x="239" y="607"/>
      <point x="245" y="612" type="curve" smooth="yes"/>
      <point x="291" y="652"/>
      <point x="352" y="680"/>
      <point x="434" y="680" type="curve" smooth="yes"/>
      <point x="576" y="680"/>
      <point x="626" y="596"/>
      <point x="626" y="558" type="curve" smooth="yes"/>
      <point x="626" y="511"/>
      <point x="583" y="493"/>
      <point x="553" y="493" type="curve" smooth="yes"/>
      <point x="536" y="493"/>
      <point x="525" y="501"/>
      <point x="518" y="514" type="curve"/>
      <point x="515" y="520"/>
      <point x="512" y="527"/>
      <point x="511" y="534" type="curve"/>
      <point x="498" y="599"/>
      <point x="471" y="634"/>
      <point x="431" y="634" type="curve" smooth="yes"/>
      <point x="365" y="634"/>
      <point x="300" y="516"/>
      <point x="264" y="360" type="curve"/>
      <point x="266" y="360" type="line"/>
      <point x="294" y="393"/>
      <point x="340" y="419"/>
      <point x="382" y="428" type="curve"/>
      <point x="390" y="429"/>
      <point x="398" y="430"/>
      <point x="406" y="430" type="curve" smooth="yes"/>
      <point x="528" y="430"/>
      <point x="592" y="354"/>
      <point x="592" y="239" type="curve" smooth="yes"/>
      <point x="592" y="104"/>
      <point x="497" y="-12"/>
      <point x="328" y="-12" type="curve" smooth="yes"/>
      <point x="150" y="-12"/>
      <point x="96" y="100"/>
    </contour>
  </outline>
</glyph>
<glyph name="seven" format="2">
  <advance width="547"/>
  <unicode hex="0037"/>
  <outline>
    <contour>
      <point x="148" y="507" type="line"/>
      <point x="206" y="668" type="line"/>
      <point x="658" y="668" type="line"/>
      <point x="668" y="656" type="line"/>
      <point x="644" y="569"/>
      <point x="561" y="469"/>
      <point x="463" y="358" type="curve" smooth="yes"/>
      <point x="387" y="272"/>
      <point x="352" y="177"/>
      <point x="335" y="47" type="curve" smooth="yes"/>
      <point x="330" y="7"/>
      <point x="308" y="-12"/>
      <point x="258" y="-12" type="curve" smooth="yes"/>
      <point x="206" y="-12"/>
      <point x="177" y="9"/>
      <point x="177" y="47" type="curve" smooth="yes"/>
      <point x="177" y="147"/>
      <point x="281" y="251"/>
      <point x="391" y="364" type="curve" smooth="yes"/>
      <point x="469" y="444"/>
      <point x="520" y="529"/>
      <point x="528" y="552" type="curve"/>
      <point x="276" y="552" type="line" smooth="yes"/>
      <point x="227" y="552"/>
      <point x="209" y="538"/>
      <point x="195" y="515" type="curve" smooth="yes"/>
      <point x="183" y="496" type="line"/>
    </contour>
  </outline>
</glyph>
<glyph name="eight" format="1">
  <advance width="560"/>
  <unicode hex="0038"/>
  <outline>
    <contour>
      <point x="310" y="459" type="curve" smooth="yes"/>
      <point x="310" y="402"/>
      <point x="335" y="379"/>
      <point x="371" y="379" type="curve" smooth="yes"/>
      <point x="426" y="379"/>
      <point x="473" y="458"/>
      <point x="473" y="567" type="curve" smooth="yes"/>
      <point x="473" y="597"/>
      <point x="458" y="634"/>
      <point x="415" y="634" type="curve" smooth="yes"/>
      <point x="346" y="634"/>
      <point x="310" y="533"/>
    </contour>
    <contour>
      <point x="227" y="133" type="curve" smooth="yes"/>
      <point x="227" y="73"/>
      <point x="255" y="34"/>
      <point x="305" y="34" type="curve" smooth="yes"/>
      <point x="375" y="34"/>
      <point x="424" y="126"/>
      <point x="424" y="236" type="curve" smooth="yes"/>
      <point x="424" y="295"/>
      <point x="402" y="333"/>
      <point x="348" y="333" type="curve" smooth="yes"/>
      <point x="287" y="333"/>
      <point x="227" y="250"/>
    </contour>
    <contour>
      <point x="72" y="171" type="curve" smooth="yes"/>
      <point x="72" y="274"/>
      <point x="147" y="358"/>
      <point x="254" y="366" type="curve"/>
      <point x="254" y="369" type="line"/>
      <point x="213" y="381"/>
      <point x="164" y="421"/>
      <point x="164" y="493" type="curve" smooth="yes"/>
      <point x="164" y="544"/>
      <point x="183" y="589"/>
      <point x="220" y="623" type="curve" smooth="yes"/>
      <point x="261" y="661"/>
      <point x="319" y="680"/>
      <point x="403" y="680" type="curve" smooth="yes"/>
      <point x="572" y="680"/>
      <point x="619" y="596"/>
      <point x="619" y="520" type="curve" smooth="yes"/>
      <point x="619" y="418"/>
      <point x="540" y="375"/>
      <point x="470" y="363" type="curve"/>
      <point x="470" y="359" type="line"/>
      <point x="529" y="343"/>
      <point x="579" y="290"/>
      <point x="579" y="211" type="curve" smooth="yes"/>
      <point x="579" y="147"/>
      <point x="558" y="92"/>
      <point x="514" y="52" type="curve" smooth="yes"/>
      <point x="469" y="12"/>
      <point x="403" y="-12"/>
      <point x="309" y="-12" type="curve" smooth="yes"/>
      <point x="139" y="-12"/>
      <point x="72" y="75"/>
    </contour>
  </outline>
</glyph>
<glyph name="semicolon" format="2">
  <advance width="280"/>
  <unicode hex="003B"/>
  <outline>
    <contour>
      <point x="26" y="-138" type="line"/>
      <point x="65" y="-100"/>
      <point x="105" y="-51"/>
      <point x="105" y="1" type="curve" smooth="yes"/>
      <point x="105" y="20"/>
      <point x="98" y="39"/>
      <point x="93" y="50" type="curve"/>
      <point x="91" y="54"/>
      <point x="89" y="58"/>
      <point x="88" y="62" type="curve"/>
      <point x="83" y="74"/>
      <point x="80" y="84"/>
      <point x="80" y="99" type="curve" smooth="yes"/>
      <point x="80" y="104"/>
      <point x="80" y="109"/>
      <point x="81" y="114" type="curve" smooth="yes"/>
      <point x="88" y="152"/>
      <point x="121" y="180"/>
      <point x="162" y="180" type="curve"/>
      <point x="216" y="181"/>
      <point x="242" y="139"/>
      <point x="242" y="91" type="curve" smooth="yes"/>
      <point x="242" y="-19"/>
      <point x="132" y="-109"/>
      <point x="52" y="-167" type="curve"/>
    </contour>
    <contour>
      <point x="135" y="391" type="curve" smooth="yes"/>
      <point x="135" y="452"/>
      <point x="178" y="490"/>
      <point x="231" y="490" type="curve" smooth="yes"/>
      <point x="289" y="490"/>
      <point x="315" y="453"/>
      <point x="315" y="412" type="curve" smooth="yes"/>
      <point x="315" y="351"/>
      <point x="273" y="312"/>
      <point x="222" y="312" type="curve" smooth="yes"/>
      <point x="162" y="312"/>
      <point x="135" y="348"/>
    </contour>
  </outline>
</glyph>
<glyph name="less" format="1">
  <advance width="600"/>
  <unicode hex="003C"/>
  <outline>
    <contour>
      <point x="101" y="209" type="line"/>
      <point x="101" y="291" type="line"/>
      <point x="579" y="495" type="line"/>
      <point x="579" y="404" type="line"/>
      <point x="198" y="250" type="line"/>
      <point x="579" y="96" type="line"/>
      <point x="579" y="5" type="line"/>
    </contour>
  </outline>
</glyph>
<glyph name="greater" format="1">
  <advance width="600"/>
  <unicode hex="003E"/>
  <outline>
    <contour>
      <point x="121" y="5" type="line"/>
      <point x="121" y="96" type="line"/>
      <point x="502" y="250" type="line"/>
      <point x="121" y="404" type="line"/>
      <point x="121" y="495" type="line"/>
      <point x="599" y="291" type="line"/>
      <point x="599" y="209" type="line"/>
    </contour>
  </outline>
</glyph>
<glyph name="at" format="1">
  <advance width="828"/>
  <unicode hex="0040"/>
  <outline>
    <contour>
      <point x="426" y="253" type="curve" smooth="yes"/>
      <point x="426" y="224"/>
      <point x="435" y="213"/>
      <point x="449" y="213" type="curve" smooth="yes"/>
      <point x="487" y="213"/>
      <point x="551" y="336"/>
      <point x="572" y="400" type="curve" smooth="yes"/>
      <point x="608" y="498" type="line"/>
      <point x="600" y="504"/>
      <point x="589" y="507"/>
      <point x="579" y="507" type="curve" smooth="yes"/>
      <point x="493" y="507"/>
      <point x="426" y="318"/>
    </contour>
    <contour>
      <point x="125" y="307" type="curve" smooth="yes"/>
      <point x="125" y="557"/>
      <point x="328" y="707"/>
      <point x="552" y="707" type="curve" smooth="yes"/>
      <point x="753" y="707"/>
      <point x="877" y="574"/>
      <point x="877" y="414" type="curve" smooth="yes"/>
      <point x="877" y="302"/>
      <point x="803" y="161"/>
      <point x="644" y="161" type="curve" smooth="yes"/>
      <point x="558" y="161"/>
      <point x="548" y="211"/>
      <point x="559" y="255" type="curve" smooth="yes"/>
      <point x="571" y="309" type="line"/>
      <point x="568" y="311" type="line"/>
      <point x="522" y="214"/>
      <point x="464" y="161"/>
      <point x="384" y="161" type="curve" smooth="yes"/>
      <point x="332" y="161"/>
      <point x="304" y="199"/>
      <point x="304" y="251" type="curve" smooth="yes"/>
      <point x="304" y="327"/>
      <point x="370" y="544"/>
      <point x="571" y="544" type="curve" smooth="yes"/>
      <point x="589" y="544"/>
      <point x="606" y="540"/>
      <point x="618" y="534" type="curve"/>
      <point x="621" y="540" type="line"/>
      <point x="731" y="540" type="line"/>
      <point x="705" y="446"/>
      <point x="680" y="353"/>
      <point x="659" y="259" type="curve" smooth="yes"/>
      <point x="654" y="237"/>
      <point x="655" y="213"/>
      <point x="690" y="213" type="curve" smooth="yes"/>
      <point x="761" y="213"/>
      <point x="802" y="342"/>
      <point x="802" y="409" type="curve" smooth="yes"/>
      <point x="802" y="566"/>
      <point x="685" y="647"/>
      <point x="544" y="647" type="curve" smooth="yes"/>
      <point x="369" y="647"/>
      <point x="234" y="487"/>
      <point x="234" y="307" type="curve" smooth="yes"/>
      <point x="234" y="198"/>
      <point x="297" y="39"/>
      <point x="510" y="39" type="curve" smooth="yes"/>
      <point x="579" y="39"/>
      <point x="645" y="54"/>
      <point x="692" y="74" type="curve"/>
      <point x="703" y="39" type="line"/>
      <point x="650" y="1"/>
      <point x="554" y="-15"/>
      <point x="495" y="-15" type="curve" smooth="yes"/>
      <point x="295" y="-15"/>
      <point x="125" y="87"/>
    </contour>
  </outline>
</glyph>
<glyph name="B" format="2">
  <advance width="680"/>
  <unicode hex="0042"/>
  <outline>
    <contour>
      <point x="40" y="0" type="line"/>
      <point x="49" y="38" type="line"/>
      <point x="94" y="42" type="line" smooth="yes"/>
      <point x="123" y="44"/>
      <point x="130" y="62"/>
      <point x="138" y="98" type="curve" smooth="yes"/>
      <point x="249" y="594" type="line" smooth="yes"/>
      <point x="257" y="630"/>
      <point x="258" y="647"/>
      <point x="230" y="649" type="curve"/>
      <point x="179" y="654" type="line"/>
      <point x="189" y="692" type="line"/>
      <point x="456" y="692" type="line" smooth="yes"/>
      <point x="568" y="692"/>
      <point x="724" y="680"/>
      <point x="724" y="533" type="curve" smooth="yes"/>
      <point x="724" y="450"/>
      <point x="665" y="379"/>
      <point x="534" y="365" type="curve"/>
      <point x="534" y="363" type="line"/>
      <point x="603" y="351"/>
      <point x="685" y="304"/>
      <point x="685" y="196" type="curve" smooth="yes"/>
      <point x="685" y="23"/>
      <point x="506" y="0"/>
      <point x="373" y="0" type="curve" smooth="yes"/>
    </contour>
    <contour>
      <point x="295" y="111" type="line" smooth="yes"/>
      <point x="286" y="71"/>
      <point x="291" y="46"/>
      <point x="351" y="46" type="curve" smooth="yes"/>
      <point x="469" y="46"/>
      <point x="520" y="126"/>
      <point x="520" y="220" type="curve" smooth="yes"/>
      <point x="520" y="299"/>
      <point x="473" y="343"/>
      <point x="388" y="343" type="curve" smooth="yes"/>
      <point x="347" y="343" type="line"/>
    </contour>
    <contour>
      <point x="357" y="389" type="line"/>
      <point x="401" y="389" type="line" smooth="yes"/>
      <point x="499" y="389"/>
      <point x="569" y="446"/>
      <point x="569" y="544" type="curve" smooth="yes"/>
      <point x="569" y="617"/>
      <point x="525" y="646"/>
      <point x="461" y="646" type="curve" smooth="yes"/>
      <point x="417" y="646"/>
      <point x="413" y="639"/>
      <point x="406" y="609" type="curve" smooth="yes"/>
    </contour>
  </outline>
</glyph>
<glyph name="C" format="2">
  <advance width="672"/>
  <unicode hex="0043"/>
  <outline>
    <contour>
      <point x="111" y="275" type="curve" smooth="yes"/>
      <point x="111" y="539"/>
      <point x="289" y="707"/>
      <point x="555" y="707" type="curve" smooth="yes"/>
      <point x="611" y="707"/>
      <point x="717" y="696"/>
      <point x="777" y="659" type="curve"/>
      <point x="738" y="480" type="line"/>
      <point x="700" y="480" type="line"/>
      <point x="699" y="571"/>
      <point x="674" y="661"/>
      <point x="557" y="661" type="curve" smooth="yes"/>
      <point x="354" y="661"/>
      <point x="280" y="412"/>
      <point x="280" y="235" type="curve" smooth="yes"/>
      <point x="280" y="96"/>
      <point x="344" y="31"/>
      <point x="434" y="31" type="curve" smooth="yes"/>
      <point x="546" y="31"/>
      <point x="601" y="116"/>
      <point x="665" y="220" type="curve"/>
      <point x="703" y="220" type="line"/>
      <point x="648" y="26" type="line"/>
      <point x="584" y="-7"/>
      <point x="503" y="-15"/>
      <point x="434" y="-15" type="curve" smooth="yes"/>
      <point x="142" y="-15"/>
      <point x="111" y="183"/>
    </contour>
  </outline>
</glyph>
<glyph name="G" format="2">
  <advance width="726"/>
  <unicode hex="0047"/>
  <outline>
    <contour>
      <point x="111" y="284" type="curve" smooth="yes"/>
      <point x="111" y="543"/>
      <point x="295" y="707"/>
      <point x="551" y="707" type="curve" smooth="yes"/>
      <point x="617" y="707"/>
      <point x="714" y="697"/>
      <point x="775" y="655" type="curve"/>
      <point x="740" y="480" type="line"/>
      <point x="702" y="480" type="line"/>
      <point x="693" y="582"/>
      <point x="653" y="661"/>
      <point x="549" y="661" type="curve" smooth="yes"/>
      <point x="355" y="661"/>
      <point x="280" y="416"/>
      <point x="280" y="241" type="curve" smooth="yes"/>
      <point x="280" y="105"/>
      <point x="326" y="31"/>
      <point x="437" y="31" type="curve" smooth="yes"/>
      <point x="497" y="31"/>
      <point x="509" y="43"/>
      <point x="518" y="82" type="curve" smooth="yes"/>
      <point x="551" y="216" type="line" smooth="yes"/>
      <point x="560" y="251"/>
      <point x="555" y="269"/>
      <point x="535" y="271" type="curve" smooth="yes"/>
      <point x="471" y="276" type="line"/>
      <point x="479" y="314" type="line"/>
      <point x="791" y="314" type="line"/>
      <point x="782" y="276" type="line"/>
      <point x="741" y="270" type="line" smooth="yes"/>
      <point x="717" y="267"/>
      <point x="713" y="249"/>
      <point x="705" y="216" type="curve" smooth="yes"/>
      <point x="663" y="38" type="line"/>
      <point x="591" y="-3"/>
      <point x="502" y="-15"/>
      <point x="427" y="-15" type="curve" smooth="yes"/>
      <point x="237" y="-15"/>
      <point x="111" y="73"/>
    </contour>
  </outline>
</glyph>
<glyph name="I" format="2">
  <advance width="386"/>
  <unicode hex="0049"/>
  <anchor x="334" y="740" name="top"/>
  <anchor x="155" y="707" name="tonos"/>
  <outline>
    <contour>
      <point x="40" y="0" type="line"/>
      <point x="49" y="38" type="line"/>
      <point x="94" y="42" type="line" smooth="yes"/>
      <point x="123" y="45"/>
      <point x="130" y="62"/>
      <point x="138" y="98" type="curve" smooth="yes"/>
      <point x="249" y="594" type="line" smooth="yes"/>
      <point x="251.909" y="607.091"/>
      <point x="253.893" y="617.537"/>
      <point x="253.893" y="625.675" type="curve" smooth="yes"/>
      <point x="253.893" y="639.917"/>
      <point x="247.818" y="647.091"/>
      <point x="230" y="649" type="curve" smooth="yes"/>
      <point x="179" y="654" type="line"/>
      <point x="189" y="692" type="line"/>
      <point x="501" y="692" type="line"/>
      <point x="491" y="654" type="line"/>
      <point x="447" y="650" type="line" smooth="yes"/>
      <point x="418" y="647"/>
      <point x="411" y="630"/>
      <point x="403" y="594" type="curve" smooth="yes"/>
      <point x="292" y="98" type="line" smooth="yes"/>
      <point x="289.091" y="84.909"/>
      <point x="287.107" y="74.198"/>
      <point x="287.107" y="65.772" type="curve" smooth="yes"/>
      <point x="287.107" y="51.025"/>
      <point x="293.182" y="43.273"/>
      <point x="311" y="42" type="curve" smooth="yes"/>
      <point x="361" y="38" type="line"/>
      <point x="352" y="0" type="line"/>
    </contour>
  </outline>
</glyph>
<glyph name="N" format="2">
  <advance width="741"/>
  <unicode hex="004E"/>
  <anchor x="524" y="740" name="top"/>
  <outline>
    <contour>
      <point x="30" y="0" type="line"/>
      <point x="38" y="38" type="line"/>
      <point x="75" y="41" type="line" smooth="yes"/>
      <point x="99" y="43"/>
      <point x="114" y="57"/>
      <point x="125" y="91" type="curve" smooth="yes"/>
      <point x="136" y="125"/>
      <point x="146" y="164"/>
      <point x="163" y="239" type="curve" smooth="yes"/>
      <point x="241" y="594" type="line" smooth="yes"/>
      <point x="249" y="630"/>
      <point x="250" y="647"/>
      <point x="222" y="649" type="curve"/>
      <point x="172" y="654" type="line"/>
      <point x="182" y="692" type="line"/>
      <point x="404" y="692" type="line"/>
      <point x="474" y="522"/>
      <point x="545" y="353"/>
      <point x="617" y="183" type="curve"/>
      <point x="620" y="183" type="line"/>
      <point x="679" y="453" type="line" smooth="yes"/>
      <point x="695" y="527"/>
      <point x="704" y="566"/>
      <point x="707" y="601" type="curve" smooth="yes"/>
      <point x="710" y="634"/>
      <point x="702" y="649"/>
      <point x="673" y="651" type="curve" smooth="yes"/>
      <point x="619" y="654" type="line"/>
      <point x="627" y="692" type="line"/>
      <point x="873" y="692" type="line"/>
      <point x="865" y="654" type="line"/>
      <point x="828" y="651" type="line" smooth="yes"/>
      <point x="804" y="649"/>
      <point x="789" y="635"/>
      <point x="778" y="601" type="curve" smooth="yes"/>
      <point x="767" y="567"/>
      <point x="757" y="528"/>
      <point x="740" y="453" type="curve" smooth="yes"/>
      <point x="640" y="0" type="line"/>
      <point x="536" y="0" type="line"/>
      <point x="458" y="187"/>
      <point x="379" y="374"/>
      <point x="299" y="561" type="curve"/>
      <point x="295" y="561" type="line"/>
      <point x="223" y="239" type="line"/>
      <point x="208" y="165"/>
      <point x="200" y="126"/>
      <point x="196" y="91" type="curve" smooth="yes"/>
      <point x="193" y="58"/>
      <point x="202" y="43"/>
      <point x="230" y="41" type="curve" smooth="yes"/>
      <point x="284" y="38" type="line"/>
      <point x="276" y="0" type="line"/>
    </contour>
  </outline>
</glyph>
<glyph name="P" format="2">
  <advance width="660"/>
  <unicode hex="0050"/>
  <outline>
    <contour>
      <point x="40" y="0" type="line"/>
      <point x="49" y="38" type="line"/>
      <point x="94" y="42" type="line" smooth="yes"/>
      <point x="123" y="44"/>
      <point x="130" y="62"/>
      <point x="138" y="98" type="curve" smooth="yes"/>
      <point x="250" y="594" type="line" smooth="yes"/>
      <point x="258" y="630"/>
      <point x="259" y="647"/>
      <point x="231" y="649" type="curve"/>
      <point x="180" y="654" type="line"/>
      <point x="190" y="692" type="line"/>
      <point x="442" y="692" type="line" smooth="yes"/>
      <point x="576" y="692"/>
      <point x="729" y="670"/>
      <point x="729" y="500" type="curve" smooth="yes"/>
      <point x="729" y="312"/>
      <point x="547" y="264"/>
      <point x="393" y="264" type="curve" smooth="yes"/>
      <point x="330" y="264" type="line"/>
      <point x="292" y="98" type="line" smooth="yes"/>
      <point x="284" y="64"/>
      <point x="283" y="45"/>
      <point x="313" y="43" type="curve" smooth="yes"/>
      <point x="378" y="38" type="line"/>
      <point x="370" y="0" type="line"/>
    </contour>
    <contour>
      <point x="348" y="343" type="line" smooth="yes"/>
      <point x="343" y="323"/>
      <point x="344" y="310"/>
      <point x="391" y="310" type="curve" smooth="yes"/>
      <point x="511" y="310"/>
      <point x="570" y="429"/>
      <point x="570" y="531" type="curve" smooth="yes"/>
      <point x="570" y="607"/>
      <point x="533" y="646"/>
      <point x="464" y="646" type="curve" smooth="yes"/>
      <point x="420" y="646"/>
      <point x="414" y="637"/>
      <point x="407" y="608" type="curve" smooth="yes"/>
    </contour>
  </outline>
</glyph>
<glyph name="Q" format="1">
  <advance width="761"/>
  <unicode hex="0051"/>
  <outline>
    <contour>
      <point x="278" y="190" type="curve" smooth="yes"/>
      <point x="278" y="88"/>
      <point x="319" y="31"/>
      <point x="403" y="31" type="curve" smooth="yes"/>
      <point x="551" y="31"/>
      <point x="638" y="312"/>
      <point x="638" y="506" type="curve" smooth="yes"/>
      <point x="638" y="594"/>
      <point x="611" y="661"/>
      <point x="522" y="661" type="curve" smooth="yes"/>
      <point x="357" y="661"/>
      <point x="278" y="349"/>
    </contour>
    <contour>
      <point x="113" y="264" type="curve" smooth="yes"/>
      <point x="113" y="316"/>
      <point x="117" y="406"/>
      <point x="170" y="508" type="curve" smooth="yes"/>
      <point x="224" y="611"/>
      <point x="326" y="707"/>
      <point x="507" y="707" type="curve" smooth="yes"/>
      <point x="675" y="707"/>
      <point x="803" y="621"/>
      <point x="803" y="419" type="curve" smooth="yes"/>
      <point x="803" y="366"/>
      <point x="795" y="274"/>
      <point x="744" y="176" type="curve" smooth="yes"/>
      <point x="701" y="93"/>
      <point x="632" y="19"/>
      <point x="515" y="-4" type="curve"/>
      <point x="529" y="-31"/>
      <point x="547" y="-55"/>
      <point x="569" y="-79" type="curve" smooth="yes"/>
      <point x="622" y="-136"/>
      <point x="665" y="-150"/>
      <point x="686" y="-150" type="curve" smooth="yes"/>
      <point x="698" y="-150" type="line"/>
      <point x="703" y="-174" type="line"/>
      <point x="681" y="-186"/>
      <point x="645" y="-193"/>
      <point x="610" y="-193" type="curve" smooth="yes"/>
      <point x="460" y="-193"/>
      <point x="370" y="-87"/>
      <point x="342" y="-8" type="curve"/>
      <point x="192" y="16"/>
      <point x="113" y="118"/>
    </contour>
  </outline>
</glyph>
<glyph name="R" format="1">
  <advance width="681"/>
  <unicode hex="0052"/>
  <outline>
    <contour>
      <point x="351" y="363" type="line"/>
      <point x="414" y="363" type="line" smooth="yes"/>
      <point x="493" y="363"/>
      <point x="572" y="428"/>
      <point x="572" y="543" type="curve" smooth="yes"/>
      <point x="572" y="613"/>
      <point x="535" y="646"/>
      <point x="468" y="646" type="curve" smooth="yes"/>
      <point x="420" y="646"/>
      <point x="413" y="635"/>
      <point x="407" y="610" type="curve" smooth="yes"/>
    </contour>
    <contour>
      <point x="40" y="0" type="line"/>
      <point x="49" y="38" type="line"/>
      <point x="94" y="42" type="line" smooth="yes"/>
      <point x="123" y="44"/>
      <point x="130" y="62"/>
      <point x="138" y="98" type="curve" smooth="yes"/>
      <point x="249" y="594" type="line" smooth="yes"/>
      <point x="257" y="630"/>
      <point x="258" y="647"/>
      <point x="230" y="649" type="curve" smooth="yes"/>
      <point x="179" y="654" type="line"/>
      <point x="189" y="692" type="line"/>
      <point x="471" y="692" type="line" smooth="yes"/>
      <point x="550" y="692"/>
      <point x="620" y="681"/>
      <point x="661" y="657" type="curve" smooth="yes"/>
      <point x="706" y="630"/>
      <point x="731" y="587"/>
      <point x="731" y="527" type="curve" smooth="yes"/>
      <point x="731" y="423"/>
      <point x="644" y="351"/>
      <point x="519" y="343" type="curve"/>
      <point x="519" y="341" type="line"/>
      <point x="621" y="317"/>
      <point x="624" y="254"/>
      <point x="621" y="174" type="curve" smooth="yes"/>
      <point x="618" y="122"/>
      <point x="626" y="90"/>
      <point x="640" y="66" type="curve" smooth="yes"/>
      <point x="651" y="48"/>
      <point x="675" y="41"/>
      <point x="701" y="38" type="curve"/>
      <point x="692" y="0" type="line"/>
      <point x="596" y="0" type="line" smooth="yes"/>
      <point x="529" y="0"/>
      <point x="486" y="27"/>
      <point x="475" y="83" type="curve" smooth="yes"/>
      <point x="463" y="151"/>
      <point x="478" y="229"/>
      <point x="471" y="264" type="curve" smooth="yes"/>
      <point x="463" y="302"/>
      <point x="448" y="317"/>
      <point x="399" y="317" type="curve" smooth="yes"/>
      <point x="341" y="317" type="line"/>
      <point x="292" y="98" type="line" smooth="yes"/>
      <point x="284" y="62"/>
      <point x="283" y="45"/>
      <point x="311" y="42" type="curve" smooth="yes"/>
      <point x="361" y="38" type="line"/>
      <point x="352" y="0" type="line"/>
    </contour>
  </outline>
</glyph>
<glyph name="T" format="2">
  <advance width="616"/>
  <unicode hex="0054"/>
  <outline>
    <contour>
      <point x="126" y="501" type="line"/>
      <point x="169" y="692" type="line"/>
      <point x="757" y="692" type="line"/>
      <point x="714" y="501" type="line"/>
      <point x="676" y="501" type="line"/>
      <point x="673" y="562" type="line" smooth="yes"/>
      <point x="670" y="614"/>
      <point x="646" y="646"/>
      <point x="580" y="646" type="curve" smooth="yes"/>
      <point x="532" y="646" type="line"/>
      <point x="408" y="98" type="line" smooth="yes"/>
      <point x="400" y="62"/>
      <point x="399" y="45"/>
      <point x="427" y="43" type="curve" smooth="yes"/>
      <point x="491" y="38" type="line"/>
      <point x="482" y="0" type="line"/>
      <point x="142" y="0" type="line"/>
      <point x="151" y="38" type="line"/>
      <point x="210" y="42" type="line" smooth="yes"/>
      <point x="239" y="44"/>
      <point x="246" y="62"/>
      <point x="254" y="98" type="curve" smooth="yes"/>
      <point x="378" y="646" type="line"/>
      <point x="326" y="646" type="line" smooth="yes"/>
      <point x="260" y="646"/>
      <point x="222" y="615"/>
      <point x="195" y="562" type="curve" smooth="yes"/>
      <point x="164" y="501" type="line"/>
    </contour>
  </outline>
</glyph>
<glyph name="V" format="2">
  <advance width="630"/>
  <unicode hex="0056"/>
  <outline>
    <contour>
      <point x="127" y="654" type="line"/>
      <point x="134" y="692" type="line"/>
      <point x="426" y="692" type="line"/>
      <point x="419" y="654" type="line"/>
      <point x="359" y="648" type="line" smooth="yes"/>
      <point x="340" y="646"/>
      <point x="338" y="633"/>
      <point x="340" y="617" type="curve" smooth="yes"/>
      <point x="342" y="597"/>
      <point x="362" y="399"/>
      <point x="364" y="377" type="curve" smooth="yes"/>
      <point x="390" y="136" type="line"/>
      <point x="392" y="136" type="line"/>
      <point x="424" y="190"/>
      <point x="487" y="309"/>
      <point x="515" y="361" type="curve" smooth="yes"/>
      <point x="571" y="467"/>
      <point x="618" y="557"/>
      <point x="645" y="616" type="curve" smooth="yes"/>
      <point x="654" y="636"/>
      <point x="651" y="649"/>
      <point x="632" y="650" type="curve" smooth="yes"/>
      <point x="576" y="654" type="line"/>
      <point x="584" y="692" type="line"/>
      <point x="818" y="692" type="line"/>
      <point x="811" y="654" type="line"/>
      <point x="751" y="648"/>
      <point x="746" y="644"/>
      <point x="717" y="598" type="curve" smooth="yes"/>
      <point x="679" y="537"/>
      <point x="622" y="439"/>
      <point x="563" y="333" type="curve" smooth="yes"/>
      <point x="379" y="0" type="line"/>
      <point x="259" y="0" type="line"/>
      <point x="226" y="310" type="line" smooth="yes"/>
      <point x="213" y="438"/>
      <point x="199" y="539"/>
      <point x="191" y="604" type="curve" smooth="yes"/>
      <point x="187" y="634"/>
      <point x="180" y="648"/>
      <point x="161" y="650" type="curve" smooth="yes"/>
    </contour>
  </outline>
</glyph>
<glyph name="X" format="2">
  <advance width="630"/>
  <unicode hex="0058"/>
  <outline>
    <contour>
      <point x="-21" y="0" type="line"/>
      <point x="-14" y="38" type="line"/>
      <point x="39" y="44"/>
      <point x="69" y="52"/>
      <point x="104" y="86" type="curve" smooth="yes"/>
      <point x="160" y="141"/>
      <point x="253" y="249"/>
      <point x="324" y="334" type="curve"/>
      <point x="286" y="426"/>
      <point x="246" y="530"/>
      <point x="209" y="614" type="curve" smooth="yes"/>
      <point x="198" y="639"/>
      <point x="177" y="652"/>
      <point x="124" y="654" type="curve"/>
      <point x="134" y="692" type="line"/>
      <point x="441" y="692" type="line"/>
      <point x="434" y="654" type="line"/>
      <point x="383" y="647" type="line"/>
      <point x="364" y="645"/>
      <point x="362" y="634"/>
      <point x="370" y="614" type="curve" smooth="yes"/>
      <point x="380.27" y="587.683"/>
      <point x="423.478" y="476.963"/>
      <point x="434" y="450" type="curve"/>
      <point x="437" y="450" type="line"/>
      <point x="485" y="508"/>
      <point x="539" y="571"/>
      <point x="576" y="620" type="curve" smooth="yes"/>
      <point x="588" y="636"/>
      <point x="587" y="648"/>
      <point x="571" y="650" type="curve"/>
      <point x="524" y="654" type="line"/>
      <point x="533" y="692" type="line"/>
      <point x="779" y="692" type="line"/>
      <point x="770" y="654" type="line"/>
      <point x="721" y="651"/>
      <point x="688" y="638"/>
      <point x="664" y="615" type="curve" smooth="yes"/>
      <point x="609" y="562"/>
      <point x="520" y="473"/>
      <point x="457" y="399" type="curve"/>
      <point x="497" y="297"/>
      <point x="543" y="184"/>
      <point x="584" y="91" type="curve" smooth="yes"/>
      <point x="598" y="60"/>
      <point x="627" y="43"/>
      <point x="679" y="38" type="curve"/>
      <point x="672" y="0" type="line"/>
      <point x="344" y="0" type="line"/>
      <point x="352" y="38" type="line"/>
      <point x="406" y="44" type="line" smooth="yes"/>
      <point x="426" y="46"/>
      <point x="435" y="58"/>
      <point x="428" y="76" type="curve" smooth="yes"/>
      <point x="415.349" y="107.785"/>
      <point x="361.613" y="242.796"/>
      <point x="348" y="277" type="curve"/>
      <point x="346" y="277" type="line"/>
      <point x="291" y="209"/>
      <point x="232" y="134"/>
      <point x="189" y="74" type="curve"/>
      <point x="177" y="56"/>
      <point x="178" y="44"/>
      <point x="193" y="43" type="curve" smooth="yes"/>
      <point x="255" y="38" type="line"/>
      <point x="247" y="0" type="line"/>
    </contour>
  </outline>
</glyph>
<glyph name="Z" format="2">
  <advance width="618"/>
  <unicode hex="005A"/>
  <outline>
    <contour>
      <point x="5" y="20" type="line"/>
      <point x="185" y="228"/>
      <point x="363" y="436"/>
      <point x="540" y="646" type="curve"/>
      <point x="399" y="646" type="line" smooth="yes"/>
      <point x="311" y="646"/>
      <point x="260" y="625"/>
      <point x="227" y="552" type="curve" smooth="yes"/>
      <point x="206" y="505" type="line"/>
      <point x="168" y="505" type="line"/>
      <point x="207" y="692" type="line"/>
      <point x="741" y="692" type="line"/>
      <point x="749" y="673" type="line"/>
      <point x="568" y="465"/>
      <point x="389" y="256"/>
      <point x="211" y="46" type="curve"/>
      <point x="409" y="46" type="line" smooth="yes"/>
      <point x="486" y="46"/>
      <point x="534" y="69"/>
      <point x="585" y="154" type="curve" smooth="yes"/>
      <point x="617" y="208" type="line"/>
      <point x="655" y="208" type="line"/>
      <point x="596" y="0" type="line"/>
      <point x="12" y="0" type="line"/>
    </contour>
  </outline>
</glyph>
<glyph name="bracketleft" format="1">
  <advance width="350"/>
  <unicode hex="005B"/>
  <outline>
    <contour>
      <point x="91" y="-128" type="line"/>
      <point x="277" y="692" type="line"/>
      <point x="463" y="692" type="line"/>
      <point x="455" y="658" type="line"/>
      <point x="393" y="651" type="line" smooth="yes"/>
      <point x="365" y="648"/>
      <point x="359" y="633"/>
      <point x="352" y="604" type="curve" smooth="yes"/>
      <point x="207" y="-40" type="line" smooth="yes"/>
      <point x="200" y="-69"/>
      <point x="202" y="-84"/>
      <point x="227" y="-87" type="curve" smooth="yes"/>
      <point x="285" y="-94" type="line"/>
      <point x="277" y="-128" type="line"/>
    </contour>
  </outline>
</glyph>
<glyph name="bracketright" format="1">
  <advance width="350"/>
  <unicode hex="005D"/>
  <outline>
    <contour>
      <point x="13" y="-128" type="line"/>
      <point x="21" y="-94" type="line"/>
      <point x="83" y="-87" type="line" smooth="yes"/>
      <point x="111" y="-84"/>
      <point x="117" y="-69"/>
      <point x="124" y="-40" type="curve" smooth="yes"/>
      <point x="269" y="604" type="line" smooth="yes"/>
      <point x="276" y="633"/>
      <point x="274" y="648"/>
      <point x="249" y="651" type="curve" smooth="yes"/>
      <point x="191" y="658" type="line"/>
      <point x="199" y="692" type="line"/>
      <point x="385" y="692" type="line"/>
      <point x="199" y="-128" type="line"/>
    </contour>
  </outline>
</glyph>
<glyph name="asciicircum" format="2">
  <advance width="600"/>
  <unicode hex="005E"/>
  <outline>
    <contour>
      <point x="114" y="215" type="line"/>
      <point x="311" y="668" type="line"/>
      <point x="410" y="668" type="line"/>
      <point x="602" y="215" type="line"/>
      <point x="498" y="215" type="line"/>
      <point x="360" y="556" type="line"/>
      <point x="218" y="215" type="line"/>
    </contour>
  </outline>
</glyph>
<glyph name="a" format="2">
  <advance width="596"/>
  <unicode hex="0061"/>
  <outline>
    <contour>
      <point x="61" y="108" type="curve" smooth="yes"/>
      <point x="61" y="239"/>
      <point x="171" y="502"/>
      <point x="409" y="502" type="curve" smooth="yes"/>
      <point x="436" y="502"/>
      <point x="462" y="496"/>
      <point x="480" y="485" type="curve"/>
      <point x="484" y="494" type="line"/>
      <point x="621" y="494" type="line"/>
      <point x="520" y="115" type="line" smooth="yes"/>
      <point x="513" y="88"/>
      <point x="513" y="68"/>
      <point x="531" y="68" type="curve" smooth="yes"/>
      <point x="555" y="68"/>
      <point x="593" y="121"/>
      <point x="618" y="165" type="curve"/>
      <point x="647" y="149" type="line"/>
      <point x="605" y="65"/>
      <point x="543" y="-12"/>
      <point x="448" y="-12" type="curve" smooth="yes"/>
      <point x="385" y="-12"/>
      <point x="362" y="29"/>
      <point x="386" y="114" type="curve" smooth="yes"/>
      <point x="411" y="202" type="line"/>
      <point x="405" y="202" type="line"/>
      <point x="352" y="111"/>
      <point x="278" y="-12"/>
      <point x="159" y="-12" type="curve" smooth="yes"/>
      <point x="88" y="-12"/>
      <point x="61" y="47"/>
    </contour>
    <contour>
      <point x="215" y="115" type="curve" smooth="yes"/>
      <point x="215" y="87"/>
      <point x="221" y="68"/>
      <point x="244" y="68" type="curve" smooth="yes"/>
      <point x="276" y="68"/>
      <point x="315" y="116"/>
      <point x="364" y="194" type="curve" smooth="yes"/>
      <point x="413" y="274"/>
      <point x="449" y="371"/>
      <point x="467" y="442" type="curve"/>
      <point x="454" y="451"/>
      <point x="437" y="456"/>
      <point x="418" y="456" type="curve" smooth="yes"/>
      <point x="305" y="456"/>
      <point x="215" y="220"/>
    </contour>
  </outline>
</glyph>
<glyph name="b" format="2">
  <advance width="586"/>
  <unicode hex="0062"/>
  <outline>
    <contour>
      <point x="69" y="5" type="line"/>
      <point x="210" y="626" type="line" smooth="yes"/>
      <point x="218" y="662"/>
      <point x="214" y="674"/>
      <point x="195" y="676" type="curve"/>
      <point x="145" y="683" type="line"/>
      <point x="150" y="715" type="line"/>
      <point x="373" y="742" type="line"/>
      <point x="379" y="736" type="line"/>
      <point x="267" y="304" type="line"/>
      <point x="272" y="304" type="line"/>
      <point x="341" y="430"/>
      <point x="425" y="502"/>
      <point x="515" y="502" type="curve" smooth="yes"/>
      <point x="593" y="502"/>
      <point x="627" y="449"/>
      <point x="627" y="375" type="curve" smooth="yes"/>
      <point x="627" y="192"/>
      <point x="494" y="-12"/>
      <point x="297" y="-12" type="curve" smooth="yes"/>
      <point x="229" y="-12"/>
      <point x="181" y="12"/>
      <point x="154" y="44" type="curve"/>
      <point x="117" y="0" type="line"/>
    </contour>
    <contour>
      <point x="243" y="109" type="curve" smooth="yes"/>
      <point x="243" y="65"/>
      <point x="259" y="34"/>
      <point x="302" y="34" type="curve" smooth="yes"/>
      <point x="413" y="34"/>
      <point x="473" y="284"/>
      <point x="473" y="363" type="curve" smooth="yes"/>
      <point x="473" y="404"/>
      <point x="462" y="422"/>
      <point x="437" y="422" type="curve" smooth="yes"/>
      <point x="342" y="422"/>
      <point x="243" y="193"/>
    </contour>
  </outline>
</glyph>
<glyph name="c" format="2">
  <advance width="456"/>
  <unicode hex="0063"/>
  <outline>
    <contour>
      <point x="73" y="159.169" type="curve" smooth="yes"/>
      <point x="73" y="310"/>
      <point x="179" y="502"/>
      <point x="382.923" y="502" type="curve" smooth="yes"/>
      <point x="476" y="502"/>
      <point x="533" y="462"/>
      <point x="533" y="414.433" type="curve" smooth="yes"/>
      <point x="533" y="369"/>
      <point x="481" y="342"/>
      <point x="450.419" y="342" type="curve" smooth="yes"/>
      <point x="387.582" y="342"/>
      <point x="414.8" y="456"/>
      <point x="361" y="456" type="curve" smooth="yes"/>
      <point x="298" y="456"/>
      <point x="226" y="298"/>
      <point x="226" y="166.667" type="curve" smooth="yes"/>
      <point x="226" y="101"/>
      <point x="244" y="54"/>
      <point x="298.687" y="54" type="curve" smooth="yes"/>
      <point x="363" y="54"/>
      <point x="410" y="119"/>
      <point x="448" y="180" type="curve"/>
      <point x="478" y="159" type="line"/>
      <point x="406" y="16"/>
      <point x="309" y="-12"/>
      <point x="237.563" y="-12" type="curve" smooth="yes"/>
      <point x="146" y="-12"/>
      <point x="73" y="34"/>
    </contour>
  </outline>
</glyph>
<glyph name="e" format="2">
  <advance width="476"/>
  <unicode hex="0065"/>
  <outline>
    <contour>
      <point x="73" y="161" type="curve" smooth="yes"/>
      <point x="73" y="333"/>
      <point x="203" y="502"/>
      <point x="384" y="502" type="curve" smooth="yes"/>
      <point x="469" y="502"/>
      <point x="532" y="457"/>
      <point x="532" y="386" type="curve" smooth="yes"/>
      <point x="532" y="246"/>
      <point x="335" y="201"/>
      <point x="222" y="187" type="curve"/>
      <point x="222" y="181.714"/>
      <point x="222" y="166.738"/>
      <point x="222" y="163" type="curve" smooth="yes"/>
      <point x="222" y="109"/>
      <point x="241" y="54"/>
      <point x="300" y="54" type="curve" smooth="yes"/>
      <point x="360" y="54"/>
      <point x="407" y="100"/>
      <point x="460" y="176" type="curve"/>
      <point x="490" y="152" type="line"/>
      <point x="417" y="20"/>
      <point x="323" y="-12"/>
      <point x="236" y="-12" type="curve" smooth="yes"/>
      <point x="164" y="-12"/>
      <point x="73" y="23"/>
    </contour>
    <contour>
      <point x="226" y="232" type="curve"/>
      <point x="342" y="255"/>
      <point x="404" y="334"/>
      <point x="404" y="412" type="curve" smooth="yes"/>
      <point x="404" y="440"/>
      <point x="391" y="456"/>
      <point x="367" y="456" type="curve" smooth="yes"/>
      <point x="308" y="456"/>
      <point x="240" y="347"/>
    </contour>
  </outline>
</glyph>
<glyph name="h" format="2">
  <advance width="629"/>
  <unicode hex="0068"/>
  <outline>
    <contour>
      <point x="79" y="-12" type="line"/>
      <point x="222" y="633" type="line" smooth="yes"/>
      <point x="224.112" y="641.748"/>
      <point x="225.222" y="648.948"/>
      <point x="225.222" y="654.794" type="curve" smooth="yes"/>
      <point x="225.222" y="668.329"/>
      <point x="219.269" y="674.603"/>
      <point x="206" y="676" type="curve" smooth="yes"/>
      <point x="148" y="683" type="line"/>
      <point x="156" y="715" type="line"/>
      <point x="385" y="742" type="line"/>
      <point x="390" y="737" type="line"/>
      <point x="283" y="295" type="line"/>
      <point x="288" y="295" type="line"/>
      <point x="342" y="397"/>
      <point x="431" y="502"/>
      <point x="534.908" y="502" type="curve" smooth="yes"/>
      <point x="594.072" y="502"/>
      <point x="623.505" y="467.958"/>
      <point x="623.505" y="413.378" type="curve" smooth="yes"/>
      <point x="623.505" y="393.709"/>
      <point x="619.682" y="371.372"/>
      <point x="612" y="347" type="curve" smooth="yes"/>
      <point x="540" y="115" type="line" smooth="yes"/>
      <point x="536.852" y="103.981"/>
      <point x="534.943" y="94.356"/>
      <point x="534.943" y="86.734" type="curve" smooth="yes"/>
      <point x="534.943" y="74.988"/>
      <point x="539.477" y="68"/>
      <point x="548.674" y="68" type="curve" smooth="yes"/>
      <point x="574" y="68"/>
      <point x="612" y="121"/>
      <point x="637" y="167" type="curve"/>
      <point x="666" y="152" type="line"/>
      <point x="626" y="65"/>
      <point x="565" y="-12"/>
      <point x="473.028" y="-12" type="curve" smooth="yes"/>
      <point x="420.633" y="-12"/>
      <point x="390.901" y="12.99"/>
      <point x="390.901" y="62.511" type="curve" smooth="yes"/>
      <point x="390.901" y="77.19"/>
      <point x="393.513" y="94.023"/>
      <point x="399" y="113" type="curve" smooth="yes"/>
      <point x="473" y="364" type="line" smooth="yes"/>
      <point x="476.187" y="374.718"/>
      <point x="477.695" y="384.094"/>
      <point x="477.695" y="392.006" type="curve" smooth="yes"/>
      <point x="477.695" y="411.405"/>
      <point x="468.627" y="422"/>
      <point x="453" y="422" type="curve" smooth="yes"/>
      <point x="404" y="422"/>
      <point x="322" y="314"/>
      <point x="283" y="213" type="curve" smooth="yes"/>
      <point x="260" y="156"/>
      <point x="245" y="102"/>
      <point x="218" y="0" type="curve"/>
    </contour>
  </outline>
</glyph>
<glyph name="i" format="2">
  <advance width="339"/>
  <unicode hex="0069"/>
  <outline>
    <contour>
      <point x="108" y="107" type="curve" smooth="yes"/>
      <point x="185" y="392" type="line" smooth="yes"/>
      <point x="187.086" y="400.046"/>
      <point x="188.195" y="406.849"/>
      <point x="188.195" y="412.488" type="curve" smooth="yes"/>
      <point x="188.195" y="425.771"/>
      <point x="182.04" y="432.596"/>
      <point x="168" y="434" type="curve" smooth="yes"/>
      <point x="110" y="440" type="line"/>
      <point x="118" y="473" type="line"/>
      <point x="348" y="502" type="line"/>
      <point x="354" y="496" type="line"/>
      <point x="251" y="115" type="line" smooth="yes"/>
      <point x="248.212" y="104.645"/>
      <point x="246.376" y="95.083"/>
      <point x="246.376" y="87.325" type="curve" smooth="yes"/>
      <point x="246.376" y="75.604"/>
      <point x="250.567" y="68"/>
      <point x="262" y="68" type="curve" smooth="yes"/>
      <point x="285" y="68"/>
      <point x="323" y="121"/>
      <point x="348" y="166" type="curve"/>
      <point x="378" y="149" type="line"/>
      <point x="336" y="65"/>
      <point x="275" y="-12"/>
      <point x="178" y="-12" type="curve" smooth="yes"/>
      <point x="126.715" y="-12"/>
      <point x="100.624" y="12.608"/>
      <point x="100.624" y="58.685" type="curve" smooth="yes"/>
      <point x="100.624" y="72.804"/>
      <point x="103.074" y="88.939"/>
    </contour>
    <contour>
      <point x="225" y="632" type="curve" smooth="yes"/>
      <point x="225" y="675"/>
      <point x="253" y="720"/>
      <point x="312" y="720" type="curve" smooth="yes"/>
      <point x="356" y="720"/>
      <point x="392" y="696"/>
      <point x="392" y="647" type="curve" smooth="yes"/>
      <point x="392" y="592"/>
      <point x="357" y="559"/>
      <point x="306" y="559" type="curve" smooth="yes"/>
      <point x="258" y="559"/>
      <point x="225" y="587"/>
    </contour>
  </outline>
</glyph>
<glyph name="j" format="2">
  <advance width="333"/>
  <unicode hex="006A"/>
  <outline>
    <contour>
      <point x="-85" y="-174" type="curve" smooth="yes"/>
      <point x="-85" y="-147"/>
      <point x="-54" y="-114"/>
      <point x="-25" y="-114" type="curve" smooth="yes"/>
      <point x="-8" y="-114"/>
      <point x="4" y="-132"/>
      <point x="14" y="-147" type="curve" smooth="yes"/>
      <point x="39" y="-185"/>
      <point x="50" y="-196"/>
      <point x="59" y="-196" type="curve" smooth="yes"/>
      <point x="67" y="-196"/>
      <point x="72" y="-189"/>
      <point x="78" y="-162" type="curve" smooth="yes"/>
      <point x="200" y="391" type="line" smooth="yes"/>
      <point x="206" y="418"/>
      <point x="204" y="432"/>
      <point x="185" y="434" type="curve" smooth="yes"/>
      <point x="121" y="440" type="line"/>
      <point x="128" y="473" type="line"/>
      <point x="360" y="502" type="line"/>
      <point x="367" y="497" type="line"/>
      <point x="252" y="-5" type="line" smooth="yes"/>
      <point x="224" y="-125"/>
      <point x="184" y="-242"/>
      <point x="41" y="-242" type="curve" smooth="yes"/>
      <point x="-45" y="-242"/>
      <point x="-85" y="-210"/>
    </contour>
    <contour>
      <point x="232" y="632" type="curve" smooth="yes"/>
      <point x="232" y="675"/>
      <point x="260" y="720"/>
      <point x="319" y="720" type="curve" smooth="yes"/>
      <point x="363" y="720"/>
      <point x="399" y="696"/>
      <point x="399" y="647" type="curve" smooth="yes"/>
      <point x="399" y="592"/>
      <point x="364" y="559"/>
      <point x="313" y="559" type="curve" smooth="yes"/>
      <point x="265" y="559"/>
      <point x="232" y="587"/>
    </contour>
  </outline>
</glyph>
<glyph name="k" format="2">
  <advance width="570"/>
  <unicode hex="006B"/>
  <outline>
    <contour>
      <point x="74" y="-12" type="line"/>
      <point x="222" y="633" type="line" smooth="yes"/>
      <point x="229" y="662"/>
      <point x="225" y="674"/>
      <point x="206" y="676" type="curve" smooth="yes"/>
      <point x="148" y="683" type="line"/>
      <point x="159" y="715" type="line"/>
      <point x="383" y="742" type="line"/>
      <point x="388" y="737" type="line"/>
      <point x="216" y="0" type="line"/>
    </contour>
    <contour>
      <point x="285" y="254" type="curve"/>
      <point x="335" y="334"/>
      <point x="490" y="502"/>
      <point x="577" y="502" type="curve" smooth="yes"/>
      <point x="618" y="502"/>
      <point x="639" y="473"/>
      <point x="639" y="443" type="curve" smooth="yes"/>
      <point x="639" y="401"/>
      <point x="615" y="365"/>
      <point x="578" y="365" type="curve" smooth="yes"/>
      <point x="560" y="365"/>
      <point x="547" y="373"/>
      <point x="533" y="383" type="curve"/>
      <point x="512" y="399"/>
      <point x="501" y="404"/>
      <point x="489" y="404" type="curve" smooth="yes"/>
      <point x="468" y="404"/>
      <point x="432" y="370"/>
      <point x="399" y="332" type="curve"/>
      <point x="408" y="296"/>
      <point x="465" y="68"/>
      <point x="509" y="68" type="curve" smooth="yes"/>
      <point x="528" y="68"/>
      <point x="552" y="102"/>
      <point x="582" y="153" type="curve"/>
      <point x="613" y="137" type="line"/>
      <point x="574" y="45"/>
      <point x="521" y="-12"/>
      <point x="445" y="-12" type="curve" smooth="yes"/>
      <point x="389" y="-12"/>
      <point x="358" y="22"/>
      <point x="337" y="79" type="curve" smooth="yes"/>
      <point x="316" y="134"/>
      <point x="296" y="207"/>
    </contour>
  </outline>
</glyph>
<glyph name="l" format="2">
  <advance width="327"/>
  <unicode hex="006C"/>
  <outline>
    <contour>
      <point x="112" y="149.133" type="line"/>
      <point x="229" y="633.929" type="line" smooth="yes"/>
      <point x="231" y="642.944"/>
      <point x="232" y="649.956"/>
      <point x="232" y="655.965" type="curve" smooth="yes"/>
      <point x="232" y="669.988"/>
      <point x="226" y="675.998"/>
      <point x="213" y="677" type="curve"/>
      <point x="155" y="683.821" type="line"/>
      <point x="162" y="715" type="line"/>
      <point x="389" y="742" type="line"/>
      <point x="395" y="737" type="line"/>
      <point x="252" y="149.133" type="line"/>
    </contour>
    <contour>
      <point x="102" y="107.064" type="curve" smooth="yes"/>
      <point x="112" y="149.133" type="line"/>
      <point x="252" y="149.133" type="line"/>
      <point x="245" y="115.077" type="line" smooth="yes"/>
      <point x="242.951" y="104.402"/>
      <point x="241.237" y="94.569"/>
      <point x="241.237" y="86.681" type="curve" smooth="yes"/>
      <point x="241.237" y="75.325"/>
      <point x="244.788" y="68"/>
      <point x="254.054" y="68" type="curve" smooth="yes"/>
      <point x="279" y="68"/>
      <point x="317" y="121.087"/>
      <point x="342" y="166.161" type="curve"/>
      <point x="372" y="149.133" type="line"/>
      <point x="330" y="65"/>
      <point x="269" y="-12"/>
      <point x="173.865" y="-12" type="curve" smooth="yes"/>
      <point x="120.353" y="-12"/>
      <point x="95.445" y="12.363"/>
      <point x="95.445" y="59.286" type="curve" smooth="yes"/>
      <point x="95.445" y="73.234"/>
      <point x="97.646" y="89.176"/>
    </contour>
  </outline>
</glyph>
<glyph name="n" format="2">
  <advance width="635"/>
  <unicode hex="006E"/>
  <outline>
    <contour>
      <point x="81.094" y="-12" type="line"/>
      <point x="184.094" y="391" type="line" smooth="yes"/>
      <point x="186.321" y="399.714"/>
      <point x="187.533" y="407.044"/>
      <point x="187.533" y="413.051" type="curve" smooth="yes"/>
      <point x="187.533" y="426.171"/>
      <point x="182.025" y="433.525"/>
      <point x="169.094" y="435" type="curve" smooth="yes"/>
      <point x="109.094" y="440.846" type="line"/>
      <point x="117.094" y="473" type="line"/>
      <point x="350.094" y="502" type="line"/>
      <point x="355.094" y="497" type="line"/>
      <point x="287.094" y="280" type="line"/>
      <point x="293.094" y="280" type="line"/>
      <point x="355.094" y="396"/>
      <point x="446.094" y="502"/>
      <point x="549.881" y="502" type="curve" smooth="yes"/>
      <point x="608.94" y="502"/>
      <point x="632.895" y="467.611"/>
      <point x="632.895" y="418.464" type="curve" smooth="yes"/>
      <point x="632.895" y="399.719"/>
      <point x="629.39" y="378.857"/>
      <point x="623.074" y="357" type="curve" smooth="yes"/>
      <point x="548.636" y="115" type="line" smooth="yes"/>
      <point x="545.617" y="105.115"/>
      <point x="543.889" y="95.952"/>
      <point x="543.889" y="88.392" type="curve" smooth="yes"/>
      <point x="543.889" y="76.067"/>
      <point x="548.48" y="68"/>
      <point x="558.273" y="68" type="curve" smooth="yes"/>
      <point x="583.374" y="68"/>
      <point x="621.089" y="121"/>
      <point x="645" y="166" type="curve"/>
      <point x="674" y="148" type="line"/>
      <point x="633" y="64"/>
      <point x="573.448" y="-12"/>
      <point x="480.652" y="-12" type="curve" smooth="yes"/>
      <point x="426.826" y="-12"/>
      <point x="398.773" y="13.218"/>
      <point x="398.773" y="60.397" type="curve" smooth="yes"/>
      <point x="398.773" y="74.104"/>
      <point x="401.141" y="89.665"/>
      <point x="406.094" y="107" type="curve" smooth="yes"/>
      <point x="482.094" y="363" type="line" smooth="yes"/>
      <point x="485.494" y="374.334"/>
      <point x="487.895" y="385.525"/>
      <point x="487.895" y="395.063" type="curve" smooth="yes"/>
      <point x="487.895" y="410.773"/>
      <point x="481.382" y="422"/>
      <point x="466.277" y="422" type="curve" smooth="yes"/>
      <point x="414.094" y="422"/>
      <point x="324.094" y="288"/>
      <point x="294.094" y="213" type="curve" smooth="yes"/>
      <point x="271.094" y="155"/>
      <point x="251.094" y="102"/>
      <point x="222.094" y="0" type="curve"/>
    </contour>
  </outline>
</glyph>
<glyph name="o" format="2">
  <advance width="562"/>
  <unicode hex="006F"/>
  <outline>
    <contour>
      <point x="77" y="174" type="curve" smooth="yes"/>
      <point x="77" y="350"/>
      <point x="197" y="502"/>
      <point x="386.691" y="502" type="curve" smooth="yes"/>
      <point x="484" y="502"/>
      <point x="591" y="462"/>
      <point x="591" y="304.865" type="curve" smooth="yes"/>
      <point x="591" y="133"/>
      <point x="463" y="-12"/>
      <point x="276.088" y="-12" type="curve" smooth="yes"/>
      <point x="139" y="-12"/>
      <point x="77" y="66"/>
    </contour>
    <contour>
      <point x="222" y="108.838" type="curve" smooth="yes"/>
      <point x="222" y="57"/>
      <point x="245" y="34"/>
      <point x="277.267" y="34" type="curve" smooth="yes"/>
      <point x="387" y="34"/>
      <point x="446" y="300"/>
      <point x="446" y="382.171" type="curve" smooth="yes"/>
      <point x="446" y="416"/>
      <point x="436" y="456"/>
      <point x="391.631" y="456" type="curve" smooth="yes"/>
      <point x="277" y="456"/>
      <point x="222" y="189"/>
    </contour>
  </outline>
</glyph>
<glyph name="r" format="2">
  <advance width="440"/>
  <unicode hex="0072"/>
  <outline>
    <contour>
      <point x="86" y="-12" type="line"/>
      <point x="179" y="391" type="line" smooth="yes"/>
      <point x="185" y="418"/>
      <point x="183" y="432"/>
      <point x="164" y="434" type="curve" smooth="yes"/>
      <point x="105" y="440" type="line"/>
      <point x="112" y="473" type="line"/>
      <point x="325" y="502" type="line"/>
      <point x="330" y="497" type="line"/>
      <point x="293" y="352" type="line"/>
      <point x="298" y="352" type="line"/>
      <point x="348" y="443"/>
      <point x="409" y="502"/>
      <point x="470" y="502" type="curve" smooth="yes"/>
      <point x="508" y="502"/>
      <point x="532" y="483"/>
      <point x="532" y="443" type="curve" smooth="yes"/>
      <point x="532" y="404"/>
      <point x="504" y="357"/>
      <point x="464" y="357" type="curve" smooth="yes"/>
      <point x="427" y="357"/>
      <point x="407" y="392"/>
      <point x="378" y="392" type="curve" smooth="yes"/>
      <point x="346" y="392"/>
      <point x="312" y="322"/>
      <point x="281" y="213" type="curve" smooth="yes"/>
      <point x="262" y="146"/>
      <point x="243" y="75"/>
      <point x="226" y="0" type="curve"/>
    </contour>
  </outline>
</glyph>
<glyph name="s" format="2">
  <advance width="417"/>
  <unicode hex="0073"/>
  <outline>
    <contour>
      <point x="45" y="89" type="curve" smooth="yes"/>
      <point x="45" y="126"/>
      <point x="81" y="158"/>
      <point x="111.65" y="158" type="curve" smooth="yes"/>
      <point x="171.983" y="158"/>
      <point x="170.899" y="34"/>
      <point x="248.9" y="34" type="curve" smooth="yes"/>
      <point x="281" y="34"/>
      <point x="303" y="55"/>
      <point x="303" y="86" type="curve"/>
      <point x="300" y="131"/>
      <point x="259" y="168"/>
      <point x="221.864" y="198.063" type="curve" smooth="yes"/>
      <point x="175" y="236"/>
      <point x="127" y="280.924"/>
      <point x="127" y="348.225" type="curve" smooth="yes"/>
      <point x="127" y="424.095"/>
      <point x="188" y="502"/>
      <point x="315.69" y="502" type="curve" smooth="yes"/>
      <point x="422" y="502"/>
      <point x="467" y="448"/>
      <point x="467" y="410.195" type="curve" smooth="yes"/>
      <point x="467" y="375"/>
      <point x="428" y="356"/>
      <point x="403.417" y="356" type="curve" smooth="yes"/>
      <point x="347.021" y="356"/>
      <point x="350.14" y="456"/>
      <point x="289.691" y="456" type="curve" smooth="yes"/>
      <point x="262" y="456"/>
      <point x="241" y="435.016"/>
      <point x="241" y="404" type="curve" smooth="yes"/>
      <point x="241" y="365.947"/>
      <point x="270" y="337"/>
      <point x="326" y="295" type="curve" smooth="yes"/>
      <point x="371" y="261"/>
      <point x="417" y="211"/>
      <point x="417" y="139.826" type="curve" smooth="yes"/>
      <point x="417" y="62"/>
      <point x="362" y="-12"/>
      <point x="222.464" y="-12" type="curve" smooth="yes"/>
      <point x="100" y="-12"/>
      <point x="45" y="45"/>
    </contour>
  </outline>
</glyph>
<glyph name="t" format="2">
  <advance width="359"/>
  <unicode hex="0074"/>
  <outline>
    <contour>
      <point x="109" y="111" type="curve" smooth="yes"/>
      <point x="193" y="442" type="line"/>
      <point x="110" y="442" type="line"/>
      <point x="122" y="490" type="line"/>
      <point x="203" y="490" type="line"/>
      <point x="223" y="564" type="line"/>
      <point x="374" y="641" type="line"/>
      <point x="387" y="633" type="line"/>
      <point x="343" y="490" type="line"/>
      <point x="463" y="490" type="line"/>
      <point x="451" y="442" type="line"/>
      <point x="333" y="442" type="line"/>
      <point x="251" y="111" type="line" smooth="yes"/>
      <point x="249.221" y="103.171"/>
      <point x="247.948" y="95.468"/>
      <point x="247.948" y="88.794" type="curve" smooth="yes"/>
      <point x="247.948" y="76.713"/>
      <point x="252.117" y="68"/>
      <point x="265" y="68" type="curve" smooth="yes"/>
      <point x="294" y="68"/>
      <point x="334" y="116"/>
      <point x="364" y="166" type="curve"/>
      <point x="392" y="147" type="line"/>
      <point x="344" y="56"/>
      <point x="274" y="-12"/>
      <point x="185.879" y="-12" type="curve" smooth="yes"/>
      <point x="134.737" y="-12"/>
      <point x="102.471" y="10.904"/>
      <point x="102.471" y="64.324" type="curve" smooth="yes"/>
      <point x="102.471" y="77.877"/>
      <point x="104.548" y="93.394"/>
    </contour>
  </outline>
</glyph>
<glyph name="u" format="2">
  <advance width="634"/>
  <unicode hex="0075"/>
  <outline>
    <contour>
      <point x="106.09" y="67.045" type="curve" smooth="yes"/>
      <point x="106.09" y="86.837"/>
      <point x="109.768" y="109.258"/>
      <point x="116" y="133" type="curve" smooth="yes"/>
      <point x="183.001" y="391" type="line" smooth="yes"/>
      <point x="185.565" y="400.615"/>
      <point x="186.896" y="408.586"/>
      <point x="186.896" y="415.046" type="curve" smooth="yes"/>
      <point x="186.896" y="428.741"/>
      <point x="180.911" y="435.641"/>
      <point x="168" y="437" type="curve" smooth="yes"/>
      <point x="109" y="443" type="line"/>
      <point x="117" y="476" type="line"/>
      <point x="348.001" y="502" type="line"/>
      <point x="353.001" y="497" type="line"/>
      <point x="259.001" y="128" type="line" smooth="yes"/>
      <point x="255.399" y="114.673"/>
      <point x="253.224" y="103.162"/>
      <point x="253.224" y="93.888" type="curve" smooth="yes"/>
      <point x="253.224" y="77.415"/>
      <point x="260.086" y="68"/>
      <point x="273.81" y="68" type="curve" smooth="yes"/>
      <point x="325.001" y="68"/>
      <point x="407.001" y="199"/>
      <point x="445.599" y="289.506" type="curve" smooth="yes"/>
      <point x="465.001" y="335"/>
      <point x="481.001" y="388"/>
      <point x="510.001" y="490" type="curve"/>
      <point x="652.001" y="502" type="line"/>
      <point x="551.001" y="115" type="line" smooth="yes"/>
      <point x="548.406" y="105.058"/>
      <point x="546.773" y="95.921"/>
      <point x="546.769" y="88.4" type="curve" smooth="yes"/>
      <point x="546.762" y="76.008"/>
      <point x="551.177" y="68"/>
      <point x="560.924" y="68" type="curve" smooth="yes"/>
      <point x="586.001" y="68"/>
      <point x="623.001" y="121"/>
      <point x="649.001" y="166" type="curve"/>
      <point x="678.001" y="148" type="line"/>
      <point x="637.001" y="65"/>
      <point x="576.001" y="-12"/>
      <point x="487.045" y="-12" type="curve" smooth="yes"/>
      <point x="436.058" y="-12"/>
      <point x="409.558" y="13.296"/>
      <point x="409.558" y="57.853" type="curve" smooth="yes"/>
      <point x="409.558" y="69.326"/>
      <point x="411.315" y="82.076"/>
      <point x="415.001" y="96" type="curve" smooth="yes"/>
      <point x="446.001" y="210" type="line"/>
      <point x="442.001" y="210" type="line"/>
      <point x="379.001" y="94"/>
      <point x="296.001" y="-12"/>
      <point x="186.85" y="-12" type="curve" smooth="yes"/>
      <point x="126.742" y="-12"/>
      <point x="106.09" y="20.144"/>
    </contour>
  </outline>
</glyph>
<glyph name="v" format="1">
  <advance width="518"/>
  <unicode hex="0076"/>
  <outline>
    <contour>
      <point x="103" y="443" type="line"/>
      <point x="110" y="476" type="line"/>
      <point x="336" y="502" type="line"/>
      <point x="341" y="497" type="line"/>
      <point x="258" y="137" type="line" smooth="yes"/>
      <point x="248" y="94"/>
      <point x="260" y="68"/>
      <point x="291" y="68" type="curve" smooth="yes"/>
      <point x="359" y="67"/>
      <point x="448" y="209"/>
      <point x="456" y="355" type="curve" smooth="yes"/>
      <point x="456" y="407"/>
      <point x="454" y="446"/>
      <point x="444" y="481" type="curve"/>
      <point x="477" y="494"/>
      <point x="515" y="502"/>
      <point x="551" y="502" type="curve" smooth="yes"/>
      <point x="559" y="502"/>
      <point x="582" y="467"/>
      <point x="582" y="424" type="curve" smooth="yes"/>
      <point x="581" y="362"/>
      <point x="534" y="253"/>
      <point x="457" y="157" type="curve" smooth="yes"/>
      <point x="385" y="66"/>
      <point x="299" y="-12"/>
      <point x="205" y="-12" type="curve" smooth="yes"/>
      <point x="128" y="-12"/>
      <point x="94" y="32"/>
      <point x="116" y="128" type="curve" smooth="yes"/>
      <point x="177" y="391" type="line" smooth="yes"/>
      <point x="184" y="421"/>
      <point x="180" y="435"/>
      <point x="162" y="437" type="curve" smooth="yes"/>
    </contour>
  </outline>
</glyph>
<glyph name="y" format="2">
  <advance width="489"/>
  <unicode hex="0079"/>
  <outline>
    <contour>
      <point x="-14" y="-180" type="curve"/>
      <point x="-16" y="-141"/>
      <point x="18" y="-100"/>
      <point x="54" y="-99" type="curve"/>
      <point x="76" y="-99"/>
      <point x="85" y="-110"/>
      <point x="101" y="-132" type="curve"/>
      <point x="116" y="-154"/>
      <point x="131" y="-169"/>
      <point x="145" y="-169" type="curve" smooth="yes"/>
      <point x="162" y="-169"/>
      <point x="177" y="-152"/>
      <point x="189" y="-112" type="curve" smooth="yes"/>
      <point x="198" y="-82"/>
      <point x="200" y="-48"/>
      <point x="200" y="-10" type="curve" smooth="yes"/>
      <point x="200" y="86"/>
      <point x="171" y="285"/>
      <point x="156" y="363" type="curve" smooth="yes"/>
      <point x="148" y="408"/>
      <point x="141" y="425"/>
      <point x="119" y="424" type="curve"/>
      <point x="57" y="424" type="line"/>
      <point x="57" y="454" type="line"/>
      <point x="274" y="502" type="line"/>
      <point x="282" y="498" type="line"/>
      <point x="297" y="444"/>
      <point x="316" y="222"/>
      <point x="317" y="72" type="curve"/>
      <point x="320" y="72" type="line"/>
      <point x="377" y="175"/>
      <point x="420" y="271"/>
      <point x="433" y="339" type="curve" smooth="yes"/>
      <point x="441" y="381"/>
      <point x="443" y="442"/>
      <point x="442" y="477" type="curve"/>
      <point x="482" y="495"/>
      <point x="522" y="502"/>
      <point x="546" y="502" type="curve" smooth="yes"/>
      <point x="554" y="502"/>
      <point x="567" y="472"/>
      <point x="567" y="448" type="curve" smooth="yes"/>
      <point x="567" y="406"/>
      <point x="508" y="309"/>
      <point x="450" y="213" type="curve" smooth="yes"/>
      <point x="389" y="113"/>
      <point x="332" y="5"/>
      <point x="311" y="-29" type="curve" smooth="yes"/>
      <point x="229" y="-163"/>
      <point x="180" y="-242"/>
      <point x="77" y="-242" type="curve" smooth="yes"/>
      <point x="19" y="-242"/>
      <point x="-14" y="-211"/>
    </contour>
  </outline>
</glyph>
<glyph name="z" format="2">
  <advance width="466"/>
  <unicode hex="007A"/>
  <outline>
    <contour>
      <point x="18" y="19" type="curve" smooth="yes"/>
      <point x="18" y="39"/>
      <point x="31" y="64"/>
      <point x="45" y="78" type="curve" smooth="yes"/>
      <point x="370" y="394" type="line"/>
      <point x="370" y="396" type="line"/>
      <point x="225" y="396" type="line" smooth="yes"/>
      <point x="169" y="396"/>
      <point x="150" y="365"/>
      <point x="118" y="306" type="curve"/>
      <point x="93" y="318" type="line"/>
      <point x="115" y="404"/>
      <point x="147" y="465"/>
      <point x="170" y="490" type="curve"/>
      <point x="533" y="490" type="line"/>
      <point x="541" y="474" type="line"/>
      <point x="207" y="156" type="line"/>
      <point x="207" y="150" type="line"/>
      <point x="266" y="141"/>
      <point x="319" y="105"/>
      <point x="380" y="105" type="curve" smooth="yes"/>
      <point x="425" y="105"/>
      <point x="457" y="150"/>
      <point x="486" y="211" type="curve"/>
      <point x="515" y="201" type="line"/>
      <point x="488" y="87"/>
      <point x="457" y="-12"/>
      <point x="382" y="-12" type="curve" smooth="yes"/>
      <point x="298" y="-12"/>
      <point x="155" y="68"/>
      <point x="129" y="68" type="curve" smooth="yes"/>
      <point x="123" y="68"/>
      <point x="118" y="61"/>
      <point x="119" y="50" type="curve"/>
      <point x="123" y="20" type="line" smooth="yes"/>
      <point x="126" y="-4"/>
      <point x="96" y="-12"/>
      <point x="56" y="-12" type="curve" smooth="yes"/>
      <point x="25" y="-12"/>
      <point x="18" y="4"/>
    </contour>
  </outline>
</glyph>
<glyph name="braceleft" format="1">
  <advance width="340"/>
  <unicode hex="007B"/>
  <outline>
    <contour>
      <point x="125" y="265" type="curve"/>
      <point x="132" y="299" type="line"/>
      <point x="226" y="299"/>
      <point x="236" y="340"/>
      <point x="245" y="411" type="curve" smooth="yes"/>
      <point x="257" y="505" type="line" smooth="yes"/>
      <point x="267" y="588"/>
      <point x="289" y="692"/>
      <point x="431" y="692" type="curve" smooth="yes"/>
      <point x="474" y="692" type="line"/>
      <point x="466" y="658" type="line"/>
      <point x="386" y="652"/>
      <point x="371" y="605"/>
      <point x="362" y="539" type="curve" smooth="yes"/>
      <point x="352" y="462" type="line" smooth="yes"/>
      <point x="340" y="362"/>
      <point x="335" y="309"/>
      <point x="221" y="285" type="curve"/>
      <point x="220" y="279" type="line"/>
      <point x="333" y="255"/>
      <point x="297" y="182"/>
      <point x="271" y="102" type="curve" smooth="yes"/>
      <point x="244" y="25" type="line" smooth="yes"/>
      <point x="221" y="-41"/>
      <point x="217" y="-88"/>
      <point x="296" y="-94" type="curve"/>
      <point x="289" y="-128" type="line"/>
      <point x="262" y="-128" type="line" smooth="yes"/>
      <point x="104" y="-128"/>
      <point x="125" y="-24"/>
      <point x="152" y="59" type="curve" smooth="yes"/>
      <point x="184" y="153" type="line" smooth="yes"/>
      <point x="207" y="224"/>
      <point x="202" y="265"/>
    </contour>
  </outline>
</glyph>
<glyph name="bar" format="1">
  <advance width="265"/>
  <unicode hex="007C"/>
  <outline>
    <contour>
      <point x="152" y="-250" type="line"/>
      <point x="152" y="750" type="line"/>
      <point x="256" y="750" type="line"/>
      <point x="256" y="-250" type="line"/>
    </contour>
  </outline>
</glyph>
<glyph name="braceright" format="1">
  <advance width="340"/>
  <unicode hex="007D"/>
  <outline>
    <contour>
      <point x="-7" y="-128" type="line"/>
      <point x="1" y="-94" type="line"/>
      <point x="81" y="-88"/>
      <point x="96" y="-41"/>
      <point x="105" y="25" type="curve" smooth="yes"/>
      <point x="115" y="102" type="line" smooth="yes"/>
      <point x="127" y="202"/>
      <point x="132" y="255"/>
      <point x="246" y="279" type="curve"/>
      <point x="247" y="285" type="line"/>
      <point x="134" y="309"/>
      <point x="170" y="382"/>
      <point x="196" y="462" type="curve" smooth="yes"/>
      <point x="223" y="539" type="line" smooth="yes"/>
      <point x="246" y="605"/>
      <point x="250" y="652"/>
      <point x="171" y="658" type="curve"/>
      <point x="178" y="692" type="line"/>
      <point x="205" y="692" type="line" smooth="yes"/>
      <point x="363" y="692"/>
      <point x="342" y="588"/>
      <point x="315" y="505" type="curve" smooth="yes"/>
      <point x="283" y="411" type="line" smooth="yes"/>
      <point x="260" y="340"/>
      <point x="265" y="299"/>
      <point x="342" y="299" type="curve"/>
      <point x="335" y="265" type="line"/>
      <point x="236" y="265"/>
      <point x="231" y="224"/>
      <point x="222" y="153" type="curve" smooth="yes"/>
      <point x="210" y="59" type="line" smooth="yes"/>
      <point x="200" y="-24"/>
      <point x="178" y="-128"/>
      <point x="36" y="-128" type="curve" smooth="yes"/>
    </contour>
  </outline>
</glyph>
<glyph name="asciitilde" format="2">
  <advance width="600"/>
  <unicode hex="007E"/>
  <outline>
    <contour>
      <point x="105" y="185" type="line"/>
      <point x="129" y="242"/>
      <point x="168" y="323"/>
      <point x="260" y="323" type="curve" smooth="yes"/>
      <point x="296" y="323"/>
      <point x="332" y="309"/>
      <point x="366" y="295" type="curve" smooth="yes"/>
      <point x="400" y="280"/>
      <point x="434" y="266"/>
      <point x="465" y="266" type="curve" smooth="yes"/>
      <point x="500" y="266"/>
      <point x="523" y="284"/>
      <point x="552" y="338" type="curve"/>
      <point x="606" y="310" type="line"/>
      <point x="578" y="244"/>
      <point x="537" y="177"/>
      <point x="450" y="177" type="curve" smooth="yes"/>
      <point x="407" y="177"/>
      <point x="373" y="191"/>
      <point x="342" y="206" type="curve"/>
      <point x="310" y="220"/>
      <point x="281" y="234"/>
      <point x="244" y="234" type="curve" smooth="yes"/>
      <point x="210" y="234"/>
      <point x="185" y="208"/>
      <point x="161" y="157" type="curve"/>
    </contour>
  </outline>
</glyph>
<glyph name="exclamdown" format="2">
  <advance width="280"/>
  <unicode hex="00A1"/>
  <outline>
    <contour>
      <point x="145" y="402" type="curve" smooth="yes"/>
      <point x="145" y="463"/>
      <point x="187" y="502"/>
      <point x="238" y="502" type="curve" smooth="yes"/>
      <point x="298" y="502"/>
      <point x="325" y="466"/>
      <point x="325" y="423" type="curve" smooth="yes"/>
      <point x="325" y="362"/>
      <point x="282" y="324"/>
      <point x="229" y="324" type="curve" smooth="yes"/>
      <point x="171" y="324"/>
      <point x="145" y="361"/>
    </contour>
    <contour>
      <point x="39" y="-113" type="curve" smooth="yes"/>
      <point x="180" y="273" type="line"/>
      <point x="235" y="273" type="line"/>
      <point x="199" y="-113" type="line" smooth="yes"/>
      <point x="197" y="-131"/>
      <point x="195" y="-146"/>
      <point x="191" y="-159" type="curve"/>
      <point x="181" y="-198"/>
      <point x="158" y="-217"/>
      <point x="96" y="-217" type="curve" smooth="yes"/>
      <point x="13" y="-217"/>
      <point x="13" y="-183"/>
    </contour>
  </outline>
</glyph>
<glyph name="cent" format="2">
  <advance width="560"/>
  <unicode hex="00A2"/>
  <outline>
    <contour>
      <point x="260" y="269" type="curve" smooth="yes"/>
      <point x="259" y="214"/>
      <point x="272" y="163"/>
      <point x="325" y="149" type="curve"/>
      <point x="418" y="553" type="line"/>
      <point x="322" y="554"/>
      <point x="262" y="366"/>
    </contour>
    <contour>
      <point x="115" y="280" type="curve" smooth="yes"/>
      <point x="115" y="339"/>
      <point x="134" y="418"/>
      <point x="183" y="484" type="curve" smooth="yes"/>
      <point x="233" y="551"/>
      <point x="316" y="598"/>
      <point x="428" y="599" type="curve"/>
      <point x="443" y="668" type="line"/>
      <point x="497" y="668" type="line"/>
      <point x="482" y="597" type="line"/>
      <point x="547" y="597"/>
      <point x="647" y="555"/>
      <point x="646" y="490" type="curve" smooth="yes"/>
      <point x="645" y="450"/>
      <point x="603" y="431"/>
      <point x="572" y="432" type="curve"/>
      <point x="555" y="432"/>
      <point x="545" y="440"/>
      <point x="539" y="450" type="curve" smooth="yes"/>
      <point x="536" y="455"/>
      <point x="534" y="461"/>
      <point x="532" y="467" type="curve"/>
      <point x="513" y="530"/>
      <point x="490" y="554"/>
      <point x="471" y="553" type="curve"/>
      <point x="379" y="140" type="line"/>
      <point x="439" y="136"/>
      <point x="503" y="160"/>
      <point x="558" y="234" type="curve"/>
      <point x="586" y="212" type="line"/>
      <point x="536" y="125"/>
      <point x="452" y="88"/>
      <point x="367" y="87" type="curve"/>
      <point x="342" y="-21" type="line"/>
      <point x="287" y="-21" type="line"/>
      <point x="312" y="87" type="line"/>
      <point x="215" y="90"/>
      <point x="115" y="139"/>
    </contour>
  </outline>
</glyph>
<glyph name="sterling" format="2">
  <advance width="560"/>
  <unicode hex="00A3"/>
  <outline>
    <contour>
      <point x="31" y="9" type="line"/>
      <point x="61" y="72" type="line"/>
      <point x="134" y="90"/>
      <point x="201" y="123"/>
      <point x="225" y="174" type="curve" smooth="yes"/>
      <point x="230" y="184"/>
      <point x="233" y="195"/>
      <point x="234" y="207" type="curve"/>
      <point x="237" y="233"/>
      <point x="235" y="258"/>
      <point x="226" y="290" type="curve"/>
      <point x="104" y="290" type="line"/>
      <point x="115" y="338" type="line"/>
      <point x="215" y="338" type="line"/>
      <point x="203" y="372"/>
      <point x="195" y="419"/>
      <point x="195" y="462" type="curve" smooth="yes"/>
      <point x="195" y="468"/>
      <point x="195" y="474"/>
      <point x="196" y="480" type="curve"/>
      <point x="203" y="575"/>
      <point x="274" y="679"/>
      <point x="427" y="679" type="curve"/>
      <point x="427" y="679"/>
      <point x="427" y="679"/>
      <point x="427" y="679" type="curve"/>
      <point x="568" y="679"/>
      <point x="611" y="611"/>
      <point x="617" y="573" type="curve"/>
      <point x="618" y="569"/>
      <point x="618" y="566"/>
      <point x="618" y="563" type="curve"/>
      <point x="617" y="520"/>
      <point x="571" y="504"/>
      <point x="544" y="504" type="curve" smooth="yes"/>
      <point x="526" y="504"/>
      <point x="514" y="510"/>
      <point x="506" y="520" type="curve" smooth="yes"/>
      <point x="502" y="525"/>
      <point x="499" y="531"/>
      <point x="497" y="538" type="curve"/>
      <point x="476" y="594"/>
      <point x="455" y="624"/>
      <point x="426" y="631" type="curve"/>
      <point x="421" y="632"/>
      <point x="416" y="633"/>
      <point x="411" y="633" type="curve" smooth="yes"/>
      <point x="370" y="633"/>
      <point x="335" y="596"/>
      <point x="333" y="530" type="curve"/>
      <point x="333" y="530"/>
      <point x="333" y="530"/>
      <point x="333" y="530" type="curve"/>
      <point x="333" y="503"/>
      <point x="335" y="473"/>
      <point x="344" y="434" type="curve" smooth="yes"/>
      <point x="351" y="400"/>
      <point x="362" y="366"/>
      <point x="370" y="338" type="curve"/>
      <point x="516" y="338" type="line"/>
      <point x="507" y="290" type="line"/>
      <point x="375" y="290" type="line"/>
      <point x="376" y="270"/>
      <point x="375" y="256"/>
      <point x="371" y="238" type="curve" smooth="yes"/>
      <point x="361" y="187"/>
      <point x="312" y="140"/>
      <point x="258" y="116" type="curve"/>
      <point x="257" y="113" type="line"/>
      <point x="441" y="113" type="line" smooth="yes"/>
      <point x="477" y="113"/>
      <point x="502" y="123"/>
      <point x="519" y="143" type="curve" smooth="yes"/>
      <point x="526" y="151"/>
      <point x="532" y="160"/>
      <point x="539" y="168" type="curve"/>
      <point x="572" y="151" type="line"/>
      <point x="502" y="0" type="line"/>
      <point x="41" y="0" type="line"/>
    </contour>
  </outline>
</glyph>
<glyph name="yen" format="1">
  <advance width="560"/>
  <unicode hex="00A5"/>
  <outline>
    <contour>
      <point x="100" y="179" type="line"/>
      <point x="111" y="227" type="line"/>
      <point x="259" y="227" type="line"/>
      <point x="267" y="262" type="line" smooth="yes"/>
      <point x="273" y="286"/>
      <point x="271" y="301"/>
      <point x="269" y="314" type="curve"/>
      <point x="134" y="314" type="line"/>
      <point x="145" y="362" type="line"/>
      <point x="258" y="362" type="line"/>
      <point x="233" y="469"/>
      <point x="213" y="544"/>
      <point x="201" y="589" type="curve" smooth="yes"/>
      <point x="193" y="619"/>
      <point x="184" y="625"/>
      <point x="168" y="627" type="curve" smooth="yes"/>
      <point x="138" y="632" type="line"/>
      <point x="147" y="668" type="line"/>
      <point x="424" y="668" type="line"/>
      <point x="415" y="632" type="line"/>
      <point x="368" y="628" type="line" smooth="yes"/>
      <point x="348" y="626"/>
      <point x="346" y="617"/>
      <point x="348" y="600" type="curve" smooth="yes"/>
      <point x="356" y="542"/>
      <point x="375" y="454"/>
      <point x="395" y="361" type="curve"/>
      <point x="397" y="361" type="line"/>
      <point x="457" y="453"/>
      <point x="526" y="573"/>
      <point x="540" y="598" type="curve" smooth="yes"/>
      <point x="549" y="614"/>
      <point x="547" y="625"/>
      <point x="532" y="627" type="curve" smooth="yes"/>
      <point x="477" y="632" type="line"/>
      <point x="486" y="668" type="line"/>
      <point x="711" y="668" type="line"/>
      <point x="703" y="632" type="line"/>
      <point x="674" y="629" type="line" smooth="yes"/>
      <point x="649" y="626"/>
      <point x="637" y="613"/>
      <point x="611" y="581" type="curve" smooth="yes"/>
      <point x="597" y="564"/>
      <point x="527" y="466"/>
      <point x="459" y="362" type="curve"/>
      <point x="587" y="362" type="line"/>
      <point x="577" y="314" type="line"/>
      <point x="429" y="314" type="line"/>
      <point x="425" y="306"/>
      <point x="416" y="285"/>
      <point x="411" y="263" type="curve" smooth="yes"/>
      <point x="403" y="227" type="line"/>
      <point x="566" y="227" type="line"/>
      <point x="556" y="179" type="line"/>
      <point x="392" y="179" type="line"/>
      <point x="370" y="79" type="line" smooth="yes"/>
      <point x="365" y="58"/>
      <point x="366" y="43"/>
      <point x="390" y="41" type="curve" smooth="yes"/>
      <point x="449" y="36" type="line"/>
      <point x="442" y="0" type="line"/>
      <point x="127" y="0" type="line"/>
      <point x="134" y="36" type="line"/>
      <point x="191" y="40" type="line" smooth="yes"/>
      <point x="213" y="42"/>
      <point x="222" y="58"/>
      <point x="227" y="79" type="curve" smooth="yes"/>
      <point x="249" y="179" type="line"/>
    </contour>
  </outline>
</glyph>
<glyph name="section" format="2">
  <advance width="568"/>
  <unicode hex="00A7"/>
  <outline>
    <contour>
      <point x="197" y="409" type="curve" smooth="yes"/>
      <point x="197" y="370"/>
      <point x="217" y="323"/>
      <point x="302" y="264" type="curve"/>
      <point x="310" y="258"/>
      <point x="318" y="253"/>
      <point x="327" y="247" type="curve" smooth="yes"/>
      <point x="394" y="204"/>
      <point x="447" y="148"/>
      <point x="455" y="109" type="curve"/>
      <point x="476" y="125"/>
      <point x="505" y="158"/>
      <point x="505" y="204" type="curve" smooth="yes"/>
      <point x="505" y="208"/>
      <point x="505" y="212"/>
      <point x="505" y="216" type="curve"/>
      <point x="501" y="258"/>
      <point x="480" y="308"/>
      <point x="395" y="366" type="curve" smooth="yes"/>
      <point x="334" y="408"/>
      <point x="274" y="454"/>
      <point x="264" y="506" type="curve"/>
      <point x="228" y="494"/>
      <point x="197" y="456"/>
    </contour>
    <contour>
      <point x="99" y="-12" type="curve" smooth="yes"/>
      <point x="99" y="22"/>
      <point x="126" y="50"/>
      <point x="165" y="50" type="curve" smooth="yes"/>
      <point x="184" y="50"/>
      <point x="197" y="37"/>
      <point x="205" y="18" type="curve" smooth="yes"/>
      <point x="232" y="-43"/>
      <point x="262" y="-64"/>
      <point x="289" y="-68" type="curve"/>
      <point x="293" y="-69"/>
      <point x="297" y="-69"/>
      <point x="301" y="-69" type="curve" smooth="yes"/>
      <point x="336" y="-69"/>
      <point x="370" y="-43"/>
      <point x="370" y="-1" type="curve"/>
      <point x="370" y="-1"/>
      <point x="370" y="-1"/>
      <point x="370" y="-1" type="curve"/>
      <point x="370" y="46"/>
      <point x="347" y="88"/>
      <point x="256" y="145" type="curve" smooth="yes"/>
      <point x="144" y="215"/>
      <point x="119" y="283"/>
      <point x="119" y="344" type="curve" smooth="yes"/>
      <point x="119" y="350"/>
      <point x="119" y="357"/>
      <point x="120" y="363" type="curve"/>
      <point x="127" y="449"/>
      <point x="182" y="515"/>
      <point x="258" y="561" type="curve"/>
      <point x="261" y="617"/>
      <point x="313" y="707"/>
      <point x="438" y="707" type="curve" smooth="yes"/>
      <point x="541" y="707"/>
      <point x="594" y="662"/>
      <point x="594" y="620" type="curve" smooth="yes"/>
      <point x="594" y="587"/>
      <point x="561" y="567"/>
      <point x="532" y="567" type="curve" smooth="yes"/>
      <point x="513" y="567"/>
      <point x="505" y="577"/>
      <point x="494" y="596" type="curve"/>
      <point x="472" y="637"/>
      <point x="450" y="655"/>
      <point x="426" y="660" type="curve"/>
      <point x="422" y="661"/>
      <point x="417" y="661"/>
      <point x="412" y="661" type="curve" smooth="yes"/>
      <point x="378" y="661"/>
      <point x="352" y="636"/>
      <point x="352" y="600" type="curve"/>
      <point x="352" y="600"/>
      <point x="352" y="600"/>
      <point x="352" y="600" type="curve"/>
      <point x="352" y="571"/>
      <point x="364" y="539"/>
      <point x="438" y="487" type="curve"/>
      <point x="446" y="481"/>
      <point x="455" y="475"/>
      <point x="465" y="469" type="curve"/>
      <point x="557" y="410"/>
      <point x="586" y="346"/>
      <point x="586" y="268" type="curve" smooth="yes"/>
      <point x="586" y="184"/>
      <point x="521" y="98"/>
      <point x="466" y="49" type="curve"/>
      <point x="461" y="-43"/>
      <point x="391" y="-115"/>
      <point x="277" y="-115" type="curve" smooth="yes"/>
      <point x="268" y="-115"/>
      <point x="259" y="-115"/>
      <point x="250" y="-114" type="curve"/>
      <point x="154" y="-106"/>
      <point x="99" y="-60"/>
    </contour>
  </outline>
</glyph>
<glyph name="dieresis" format="2">
  <advance width="400"/>
  <unicode hex="00A8"/>
  <outline>
    <contour>
      <point x="141" y="635" type="curve" smooth="yes"/>
      <point x="141" y="673"/>
      <point x="169" y="710"/>
      <point x="220" y="710" type="curve" smooth="yes"/>
      <point x="272" y="710"/>
      <point x="299" y="673"/>
      <point x="299" y="635" type="curve" smooth="yes"/>
      <point x="299" y="597"/>
      <point x="272" y="561"/>
      <point x="220" y="561" type="curve" smooth="yes"/>
      <point x="169" y="561"/>
      <point x="141" y="597"/>
    </contour>
    <contour>
      <point x="381" y="635" type="curve" smooth="yes"/>
      <point x="381" y="673"/>
      <point x="409" y="710"/>
      <point x="460" y="710" type="curve" smooth="yes"/>
      <point x="512" y="710"/>
      <point x="539" y="673"/>
      <point x="539" y="635" type="curve" smooth="yes"/>
      <point x="539" y="597"/>
      <point x="512" y="561"/>
      <point x="460" y="561" type="curve" smooth="yes"/>
      <point x="409" y="561"/>
      <point x="381" y="597"/>
    </contour>
  </outline>
</glyph>
<glyph name="copyright" format="2">
  <advance width="824"/>
  <unicode hex="00A9"/>
  <outline>
    <contour>
      <point x="297" y="348" type="curve" smooth="yes"/>
      <point x="297" y="458"/>
      <point x="360" y="548"/>
      <point x="510" y="548" type="curve" smooth="yes"/>
      <point x="565" y="548"/>
      <point x="616" y="538"/>
      <point x="648" y="519" type="curve"/>
      <point x="648" y="415" type="line"/>
      <point x="621" y="415" type="line"/>
      <point x="606" y="462"/>
      <point x="577" y="516"/>
      <point x="517" y="516" type="curve" smooth="yes"/>
      <point x="448" y="516"/>
      <point x="417" y="443"/>
      <point x="417" y="354" type="curve" smooth="yes"/>
      <point x="417" y="262"/>
      <point x="446" y="183"/>
      <point x="523" y="183" type="curve" smooth="yes"/>
      <point x="580" y="183"/>
      <point x="609" y="238"/>
      <point x="631" y="290" type="curve"/>
      <point x="658" y="290" type="line"/>
      <point x="647" y="182" type="line"/>
      <point x="615" y="162"/>
      <point x="561" y="151"/>
      <point x="509" y="151" type="curve" smooth="yes"/>
      <point x="353" y="151"/>
      <point x="297" y="236"/>
    </contour>
    <contour>
      <point x="209" y="346" type="curve" smooth="yes"/>
      <point x="209" y="178"/>
      <point x="335" y="48"/>
      <point x="490" y="48" type="curve" smooth="yes"/>
      <point x="645" y="48"/>
      <point x="771" y="178"/>
      <point x="771" y="346" type="curve" smooth="yes"/>
      <point x="771" y="514"/>
      <point x="645" y="644"/>
      <point x="490" y="644" type="curve" smooth="yes"/>
      <point x="335" y="644"/>
      <point x="209" y="514"/>
    </contour>
    <contour>
      <point x="126" y="346" type="curve" smooth="yes"/>
      <point x="126" y="546"/>
      <point x="289" y="707"/>
      <point x="490" y="707" type="curve" smooth="yes"/>
      <point x="691" y="707"/>
      <point x="854" y="546"/>
      <point x="854" y="346" type="curve" smooth="yes"/>
      <point x="854" y="146"/>
      <point x="691" y="-15"/>
      <point x="490" y="-15" type="curve" smooth="yes"/>
      <point x="289" y="-15"/>
      <point x="126" y="146"/>
    </contour>
  </outline>
</glyph>
<glyph name="ordfeminine" format="2">
  <advance width="444"/>
  <unicode hex="00AA"/>
  <outline>
    <contour>
      <point x="207" y="350" type="curve" smooth="yes"/>
      <point x="207" y="332"/>
      <point x="214" y="323"/>
      <point x="225" y="323" type="curve" smooth="yes"/>
      <point x="227" y="323"/>
      <point x="230" y="323"/>
      <point x="232" y="324" type="curve"/>
      <point x="249" y="329"/>
      <point x="269" y="350"/>
      <point x="293" y="381" type="curve"/>
      <point x="299" y="388"/>
      <point x="304" y="396"/>
      <point x="309" y="404" type="curve" smooth="yes"/>
      <point x="340" y="454"/>
      <point x="356" y="512"/>
      <point x="367" y="547" type="curve"/>
      <point x="358" y="554"/>
      <point x="347" y="556"/>
      <point x="336" y="556" type="curve" smooth="yes"/>
      <point x="269" y="556"/>
      <point x="207" y="412"/>
    </contour>
    <contour>
      <point x="97" y="341" type="curve" smooth="yes"/>
      <point x="97" y="424"/>
      <point x="172" y="590"/>
      <point x="338" y="590" type="curve" smooth="yes"/>
      <point x="343" y="590"/>
      <point x="348" y="590"/>
      <point x="352" y="589" type="curve"/>
      <point x="367" y="588"/>
      <point x="381" y="584"/>
      <point x="391" y="579" type="curve"/>
      <point x="393" y="585" type="line"/>
      <point x="497" y="585" type="line"/>
      <point x="431" y="353" type="line" smooth="yes"/>
      <point x="427" y="338"/>
      <point x="425" y="323"/>
      <point x="436" y="323" type="curve" smooth="yes"/>
      <point x="451" y="323"/>
      <point x="478" y="358"/>
      <point x="495" y="385" type="curve"/>
      <point x="517" y="373" type="line"/>
      <point x="488" y="317"/>
      <point x="446" y="265"/>
      <point x="372" y="265" type="curve" smooth="yes"/>
      <point x="341" y="265"/>
      <point x="321" y="284"/>
      <point x="327" y="325" type="curve" smooth="yes"/>
      <point x="328" y="332"/>
      <point x="330" y="340"/>
      <point x="332" y="348" type="curve"/>
      <point x="347" y="397" type="line"/>
      <point x="343" y="398" type="line"/>
      <point x="305" y="343"/>
      <point x="257" y="265"/>
      <point x="168" y="265" type="curve" smooth="yes"/>
      <point x="122" y="265"/>
      <point x="97" y="298"/>
    </contour>
  </outline>
</glyph>
<glyph name="logicalnot" format="2">
  <advance width="600"/>
  <unicode hex="00AC"/>
  <outline>
    <contour>
      <point x="118" y="317" type="line"/>
      <point x="118" y="397" type="line"/>
      <point x="602" y="397" type="line"/>
      <point x="602" y="95" type="line"/>
      <point x="506" y="95" type="line"/>
      <point x="506" y="317" type="line"/>
    </contour>
  </outline>
</glyph>
<glyph name="uni00AD" format="1">
  <advance width="392"/>
  <unicode hex="00AD"/>
  <outline>
    <contour>
      <point x="106" y="203" type="line"/>
      <point x="126" y="298" type="line"/>
      <point x="389" y="298" type="line"/>
      <point x="369" y="203" type="line"/>
    </contour>
  </outline>
</glyph>
<glyph name="degree" format="1">
  <advance width="375"/>
  <unicode hex="00B0"/>
  <outline>
    <contour>
      <point x="205" y="520" type="curve" smooth="yes"/>
      <point x="205" y="461"/>
      <point x="245" y="418"/>
      <point x="294" y="418" type="curve" smooth="yes"/>
      <point x="343" y="418"/>
      <point x="383" y="461"/>
      <point x="383" y="520" type="curve" smooth="yes"/>
      <point x="383" y="579"/>
      <point x="343" y="622"/>
      <point x="294" y="622" type="curve" smooth="yes"/>
      <point x="245" y="622"/>
      <point x="205" y="579"/>
    </contour>
    <contour>
      <point x="128" y="519" type="curve" smooth="yes"/>
      <point x="128" y="609"/>
      <point x="202" y="680"/>
      <point x="294" y="680" type="curve" smooth="yes"/>
      <point x="386" y="680"/>
      <point x="460" y="609"/>
      <point x="460" y="519" type="curve" smooth="yes"/>
      <point x="460" y="429"/>
      <point x="386" y="360"/>
      <point x="294" y="360" type="curve" smooth="yes"/>
      <point x="202" y="360"/>
      <point x="128" y="429"/>
    </contour>
  </outline>
</glyph>
<glyph name="plusminus" format="2">
  <advance width="600"/>
  <unicode hex="00B1"/>
  <outline>
    <contour>
      <point x="118" y="298" type="line"/>
      <point x="118" y="378" type="line"/>
      <point x="313" y="378" type="line"/>
      <point x="313" y="549" type="line"/>
      <point x="409" y="549" type="line"/>
      <point x="409" y="378" type="line"/>
      <point x="602" y="378" type="line"/>
      <point x="602" y="298" type="line"/>
      <point x="409" y="298" type="line"/>
      <point x="409" y="129" type="line"/>
      <point x="313" y="129" type="line"/>
      <point x="313" y="298" type="line"/>
    </contour>
    <contour>
      <point x="118" y="0" type="line"/>
      <point x="118" y="80" type="line"/>
      <point x="602" y="80" type="line"/>
      <point x="602" y="0" type="line"/>
    </contour>
  </outline>
</glyph>
<glyph name="uni00B3" format="1">
  <advance width="402"/>
  <unicode hex="00B3"/>
  <outline>
    <contour>
      <point x="109" y="485" type="curve" smooth="yes"/>
      <point x="109" y="515"/>
      <point x="140" y="539"/>
      <point x="169" y="539" type="curve" smooth="yes"/>
      <point x="188" y="539"/>
      <point x="200" y="526"/>
      <point x="206" y="509" type="curve" smooth="yes"/>
      <point x="222" y="460"/>
      <point x="238" y="439"/>
      <point x="265" y="439" type="curve" smooth="yes"/>
      <point x="289" y="439"/>
      <point x="322" y="468"/>
      <point x="322" y="544" type="curve" smooth="yes"/>
      <point x="322" y="594"/>
      <point x="300" y="604"/>
      <point x="281" y="604" type="curve" smooth="yes"/>
      <point x="259" y="604"/>
      <point x="233" y="593"/>
      <point x="219" y="593" type="curve" smooth="yes"/>
      <point x="206" y="593"/>
      <point x="199" y="602"/>
      <point x="199" y="617" type="curve" smooth="yes"/>
      <point x="199" y="636"/>
      <point x="207" y="653"/>
      <point x="221" y="653" type="curve" smooth="yes"/>
      <point x="237" y="653"/>
      <point x="263" y="639"/>
      <point x="289" y="639" type="curve" smooth="yes"/>
      <point x="328" y="639"/>
      <point x="350" y="698"/>
      <point x="350" y="735" type="curve" smooth="yes"/>
      <point x="350" y="759"/>
      <point x="340" y="778"/>
      <point x="318" y="778" type="curve" smooth="yes"/>
      <point x="299" y="778"/>
      <point x="280" y="759"/>
      <point x="254" y="714" type="curve" smooth="yes"/>
      <point x="244" y="697"/>
      <point x="235" y="684"/>
      <point x="213" y="684" type="curve" smooth="yes"/>
      <point x="192" y="684"/>
      <point x="164" y="701"/>
      <point x="164" y="729" type="curve" smooth="yes"/>
      <point x="164" y="769"/>
      <point x="221" y="816"/>
      <point x="321" y="816" type="curve" smooth="yes"/>
      <point x="401" y="816"/>
      <point x="471" y="777"/>
      <point x="471" y="715" type="curve" smooth="yes"/>
      <point x="471" y="649"/>
      <point x="407" y="629"/>
      <point x="360" y="623" type="curve"/>
      <point x="359" y="621" type="line"/>
      <point x="410" y="610"/>
      <point x="450" y="577"/>
      <point x="450" y="526" type="curve" smooth="yes"/>
      <point x="450" y="448"/>
      <point x="381" y="401"/>
      <point x="265" y="401" type="curve" smooth="yes"/>
      <point x="167" y="401"/>
      <point x="109" y="440"/>
    </contour>
  </outline>
</glyph>
<glyph name="acute" format="2">
  <advance width="400"/>
  <unicode hex="00B4"/>
  <outline>
    <contour>
      <point x="221" y="541" type="line"/>
      <point x="366" y="690" type="line" smooth="yes"/>
      <point x="403" y="728"/>
      <point x="420" y="740"/>
      <point x="440" y="740" type="curve" smooth="yes"/>
      <point x="464" y="740"/>
      <point x="493" y="705"/>
      <point x="493" y="680" type="curve" smooth="yes"/>
      <point x="493" y="654"/>
      <point x="461" y="634"/>
      <point x="425" y="614" type="curve" smooth="yes"/>
      <point x="242" y="511" type="line"/>
    </contour>
  </outline>
</glyph>
<glyph name="paragraph" format="2">
  <advance width="580"/>
  <unicode hex="00B6"/>
  <outline>
    <contour>
      <point x="231" y="-101" type="line"/>
      <point x="238" y="-68" type="line"/>
      <point x="321" y="-57" type="line"/>
      <point x="340" y="-55"/>
      <point x="347" y="-36"/>
      <point x="353" y="-7" type="curve" smooth="yes"/>
      <point x="512" y="692" type="line"/>
      <point x="688" y="692" type="line"/>
      <point x="681" y="659" type="line"/>
      <point x="613" y="650" type="line"/>
      <point x="594" y="648"/>
      <point x="589" y="637"/>
      <point x="583" y="608" type="curve" smooth="yes"/>
      <point x="422" y="-101" type="line"/>
    </contour>
    <contour>
      <point x="145" y="422" type="curve" smooth="yes"/>
      <point x="145" y="557"/>
      <point x="237" y="662"/>
      <point x="380" y="687" type="curve"/>
      <point x="401" y="690"/>
      <point x="423" y="692"/>
      <point x="445" y="692" type="curve"/>
      <point x="342" y="238" type="line"/>
      <point x="323" y="238"/>
      <point x="305" y="240"/>
      <point x="289" y="243" type="curve" smooth="yes"/>
      <point x="204" y="260"/>
      <point x="145" y="320"/>
    </contour>
  </outline>
</glyph>
<glyph name="periodcentered" format="2">
  <advance width="280"/>
  <unicode hex="00B7"/>
  <outline>
    <contour>
      <point x="102" y="240" type="curve" smooth="yes"/>
      <point x="102" y="301"/>
      <point x="145" y="339"/>
      <point x="198" y="339" type="curve" smooth="yes"/>
      <point x="256" y="339"/>
      <point x="282" y="302"/>
      <point x="282" y="261" type="curve" smooth="yes"/>
      <point x="282" y="200"/>
      <point x="240" y="161"/>
      <point x="189" y="161" type="curve" smooth="yes"/>
      <point x="129" y="161"/>
      <point x="102" y="197"/>
    </contour>
  </outline>
</glyph>
<glyph name="cedilla" format="1">
  <advance width="400"/>
  <unicode hex="00B8"/>
  <outline>
    <contour>
      <point x="120" y="-243" type="curve"/>
      <point x="122" y="-211" type="line"/>
      <point x="178" y="-211"/>
      <point x="219" y="-196"/>
      <point x="223" y="-153" type="curve" smooth="yes"/>
      <point x="228" y="-109"/>
      <point x="185" y="-100"/>
      <point x="163" y="-98" type="curve"/>
      <point x="160" y="-90" type="line"/>
      <point x="226" y="0" type="line"/>
      <point x="284" y="0" type="line"/>
      <point x="240" y="-56" type="line"/>
      <point x="270" y="-60"/>
      <point x="334" y="-79"/>
      <point x="327" y="-151" type="curve" smooth="yes"/>
      <point x="319" y="-232"/>
      <point x="215" y="-246"/>
      <point x="168" y="-246" type="curve" smooth="yes"/>
      <point x="148" y="-246"/>
      <point x="137" y="-245"/>
    </contour>
  </outline>
</glyph>
<glyph name="uni00B9" format="2">
  <advance width="402"/>
  <unicode hex="00B9"/>
  <outline>
    <contour>
      <point x="141" y="408" type="line"/>
      <point x="147" y="435" type="line"/>
      <point x="186" y="440" type="line" smooth="yes"/>
      <point x="208" y="443"/>
      <point x="218" y="450"/>
      <point x="223" y="476" type="curve"/>
      <point x="280" y="726" type="line" smooth="yes"/>
      <point x="286" y="750"/>
      <point x="279" y="757"/>
      <point x="264" y="760" type="curve"/>
      <point x="224" y="766" type="line"/>
      <point x="230" y="792" type="line"/>
      <point x="412" y="816" type="line"/>
      <point x="418" y="809" type="line"/>
      <point x="342" y="476" type="line"/>
      <point x="337" y="450"/>
      <point x="343" y="443"/>
      <point x="363" y="440" type="curve" smooth="yes"/>
      <point x="400" y="435" type="line"/>
      <point x="394" y="408" type="line"/>
    </contour>
  </outline>
</glyph>
<glyph name="ordmasculine" format="1">
  <advance width="412"/>
  <unicode hex="00BA"/>
  <outline>
    <contour>
      <point x="230" y="476" type="curve" smooth="yes"/>
      <point x="230" y="451"/>
      <point x="244" y="435"/>
      <point x="267" y="435" type="curve" smooth="yes"/>
      <point x="331" y="435"/>
      <point x="372" y="601"/>
      <point x="372" y="648" type="curve" smooth="yes"/>
      <point x="372" y="672"/>
      <point x="362" y="692"/>
      <point x="337" y="692" type="curve" smooth="yes"/>
      <point x="308" y="692"/>
      <point x="282" y="662"/>
      <point x="263" y="618" type="curve" smooth="yes"/>
      <point x="243" y="573"/>
      <point x="230" y="516"/>
    </contour>
    <contour>
      <point x="121" y="527" type="curve" smooth="yes"/>
      <point x="121" y="556"/>
      <point x="130" y="605"/>
      <point x="158" y="646" type="curve" smooth="yes"/>
      <point x="188" y="690"/>
      <point x="234" y="726"/>
      <point x="323" y="726" type="curve" smooth="yes"/>
      <point x="403" y="726"/>
      <point x="481" y="698"/>
      <point x="481" y="594" type="curve" smooth="yes"/>
      <point x="481" y="561"/>
      <point x="472" y="515"/>
      <point x="445" y="477" type="curve" smooth="yes"/>
      <point x="414" y="434"/>
      <point x="368" y="401"/>
      <point x="273" y="401" type="curve" smooth="yes"/>
      <point x="166" y="401"/>
      <point x="121" y="455"/>
    </contour>
  </outline>
</glyph>
<glyph name="onequarter" format="2">
  <advance width="940"/>
  <unicode hex="00BC"/>
  <outline>
    <contour>
      <point x="161" y="272" type="line"/>
      <point x="167" y="299" type="line"/>
      <point x="206" y="304" type="line" smooth="yes"/>
      <point x="213" y="305"/>
      <point x="219" y="306"/>
      <point x="224" y="309" type="curve"/>
      <point x="234" y="314"/>
      <point x="240" y="323"/>
      <point x="243" y="340" type="curve"/>
      <point x="300" y="590" type="line"/>
      <point x="300" y="590" type="line"/>
      <point x="306" y="614"/>
      <point x="299" y="621"/>
      <point x="284" y="624" type="curve"/>
      <point x="244" y="630" type="line"/>
      <point x="250" y="656" type="line"/>
      <point x="432" y="680" type="line"/>
      <point x="438" y="673" type="line"/>
      <point x="362" y="340" type="line" smooth="yes"/>
      <point x="360" y="331"/>
      <point x="360" y="325"/>
      <point x="361" y="320" type="curve" smooth="yes"/>
      <point x="363" y="310"/>
      <point x="370" y="306"/>
      <point x="383" y="304" type="curve" smooth="yes"/>
      <point x="420" y="299" type="line"/>
      <point x="414" y="272" type="line"/>
    </contour>
    <contour>
      <point x="268" y="11" type="line"/>
      <point x="770" y="695" type="line"/>
      <point x="814" y="661" type="line"/>
      <point x="309" y="-27" type="line"/>
    </contour>
    <contour>
      <point x="601" y="145" type="curve"/>
      <point x="716" y="145" type="line"/>
      <point x="755" y="313" type="line"/>
      <point x="753" y="313" type="line"/>
      <point x="708" y="263"/>
      <point x="648" y="200"/>
    </contour>
    <contour>
      <point x="523" y="126" type="line"/>
      <point x="616" y="226"/>
      <point x="706" y="324"/>
      <point x="792" y="401" type="curve"/>
      <point x="884" y="401" type="line"/>
      <point x="827" y="145" type="line"/>
      <point x="883" y="145" type="line"/>
      <point x="873" y="102" type="line"/>
      <point x="817" y="102" type="line"/>
      <point x="807" y="54" type="line" smooth="yes"/>
      <point x="804" y="38"/>
      <point x="810" y="31"/>
      <point x="823" y="30" type="curve"/>
      <point x="847" y="27" type="line"/>
      <point x="842" y="0" type="line"/>
      <point x="621" y="0" type="line"/>
      <point x="626" y="27" type="line"/>
      <point x="666" y="30" type="line"/>
      <point x="666" y="30" type="line"/>
      <point x="682" y="31"/>
      <point x="692" y="38"/>
      <point x="695" y="54" type="curve" smooth="yes"/>
      <point x="705" y="102" type="line"/>
      <point x="536" y="102" type="line"/>
    </contour>
  </outline>
</glyph>
<glyph name="threequarters" format="2">
  <advance width="940"/>
  <unicode hex="00BE"/>
  <outline>
    <contour>
      <point x="145" y="349" type="curve" smooth="yes"/>
      <point x="145" y="379"/>
      <point x="176" y="403"/>
      <point x="204" y="403" type="curve" smooth="yes"/>
      <point x="224" y="403"/>
      <point x="236" y="390"/>
      <point x="242" y="373" type="curve" smooth="yes"/>
      <point x="258" y="324"/>
      <point x="274" y="303"/>
      <point x="301" y="303" type="curve" smooth="yes"/>
      <point x="325" y="303"/>
      <point x="358" y="332"/>
      <point x="358" y="408" type="curve" smooth="yes"/>
      <point x="358" y="458"/>
      <point x="336" y="468"/>
      <point x="317" y="468" type="curve" smooth="yes"/>
      <point x="295" y="468"/>
      <point x="269" y="457"/>
      <point x="255" y="457" type="curve" smooth="yes"/>
      <point x="246" y="457"/>
      <point x="240" y="461"/>
      <point x="237" y="468" type="curve"/>
      <point x="236" y="472"/>
      <point x="235" y="476"/>
      <point x="235" y="481" type="curve" smooth="yes"/>
      <point x="235" y="500"/>
      <point x="243" y="517"/>
      <point x="257" y="517" type="curve" smooth="yes"/>
      <point x="273" y="517"/>
      <point x="299" y="503"/>
      <point x="325" y="503" type="curve" smooth="yes"/>
      <point x="364" y="503"/>
      <point x="386" y="562"/>
      <point x="386" y="599" type="curve" smooth="yes"/>
      <point x="386" y="623"/>
      <point x="376" y="642"/>
      <point x="354" y="642" type="curve" smooth="yes"/>
      <point x="335" y="642"/>
      <point x="316" y="623"/>
      <point x="290" y="578" type="curve"/>
      <point x="288" y="575"/>
      <point x="286" y="571"/>
      <point x="284" y="568" type="curve" smooth="yes"/>
      <point x="276" y="556"/>
      <point x="267" y="548"/>
      <point x="249" y="548" type="curve" smooth="yes"/>
      <point x="228" y="548"/>
      <point x="200" y="565"/>
      <point x="200" y="593" type="curve" smooth="yes"/>
      <point x="200" y="633"/>
      <point x="257" y="680"/>
      <point x="357" y="680" type="curve" smooth="yes"/>
      <point x="437" y="680"/>
      <point x="507" y="641"/>
      <point x="507" y="579" type="curve" smooth="yes"/>
      <point x="507" y="513"/>
      <point x="443" y="493"/>
      <point x="396" y="487" type="curve"/>
      <point x="395" y="485" type="line"/>
      <point x="446" y="474"/>
      <point x="486" y="441"/>
      <point x="486" y="390" type="curve" smooth="yes"/>
      <point x="486" y="312"/>
      <point x="417" y="265"/>
      <point x="301" y="265" type="curve" smooth="yes"/>
      <point x="203" y="265"/>
      <point x="145" y="304"/>
    </contour>
    <contour>
      <point x="302" y="11" type="line"/>
      <point x="804" y="695" type="line"/>
      <point x="848" y="661" type="line"/>
      <point x="343" y="-27" type="line"/>
    </contour>
    <contour>
      <point x="628" y="145" type="curve"/>
      <point x="743" y="145" type="line"/>
      <point x="782" y="313" type="line"/>
      <point x="780" y="313" type="line"/>
      <point x="735" y="263"/>
      <point x="675" y="200"/>
    </contour>
    <contour>
      <point x="550" y="126" type="line"/>
      <point x="643" y="226"/>
      <point x="733" y="324"/>
      <point x="819" y="401" type="curve"/>
      <point x="911" y="401" type="line"/>
      <point x="854" y="145" type="line"/>
      <point x="910" y="145" type="line"/>
      <point x="900" y="102" type="line"/>
      <point x="844" y="102" type="line"/>
      <point x="834" y="54" type="line" smooth="yes"/>
      <point x="831" y="38"/>
      <point x="837" y="31"/>
      <point x="850" y="30" type="curve"/>
      <point x="874" y="27" type="line"/>
      <point x="869" y="0" type="line"/>
      <point x="648" y="0" type="line"/>
      <point x="653" y="27" type="line"/>
      <point x="693" y="30" type="line"/>
      <point x="693" y="30" type="line"/>
      <point x="709" y="31"/>
      <point x="719" y="38"/>
      <point x="722" y="54" type="curve" smooth="yes"/>
      <point x="732" y="102" type="line"/>
      <point x="563" y="102" type="line"/>
    </contour>
  </outline>
</glyph>
<glyph name="questiondown" format="2">
  <advance width="454"/>
  <unicode hex="00BF"/>
  <outline>
    <contour>
      <point x="246" y="402" type="curve" smooth="yes"/>
      <point x="246" y="463"/>
      <point x="288" y="502"/>
      <point x="339" y="502" type="curve" smooth="yes"/>
      <point x="399" y="502"/>
      <point x="426" y="466"/>
      <point x="426" y="423" type="curve" smooth="yes"/>
      <point x="426" y="362"/>
      <point x="383" y="324"/>
      <point x="330" y="324" type="curve" smooth="yes"/>
      <point x="272" y="324"/>
      <point x="246" y="361"/>
    </contour>
    <contour>
      <point x="25" y="-83" type="curve" smooth="yes"/>
      <point x="25" y="-6"/>
      <point x="86" y="35"/>
      <point x="163" y="65" type="curve" smooth="yes"/>
      <point x="224" y="88"/>
      <point x="269" y="117"/>
      <point x="269" y="161" type="curve" smooth="yes"/>
      <point x="269" y="191"/>
      <point x="241" y="206"/>
      <point x="220" y="208" type="curve" smooth="yes"/>
      <point x="202" y="210"/>
      <point x="189" y="210"/>
      <point x="177" y="208" type="curve"/>
      <point x="170" y="237" type="line"/>
      <point x="204" y="260"/>
      <point x="257" y="272"/>
      <point x="297" y="272" type="curve" smooth="yes"/>
      <point x="365" y="272"/>
      <point x="413" y="234"/>
      <point x="413" y="177" type="curve" smooth="yes"/>
      <point x="413" y="126"/>
      <point x="373" y="89"/>
      <point x="306" y="53" type="curve" smooth="yes"/>
      <point x="222" y="8"/>
      <point x="174" y="-51"/>
      <point x="174" y="-125" type="curve" smooth="yes"/>
      <point x="174" y="-149"/>
      <point x="184" y="-171"/>
      <point x="208" y="-171" type="curve" smooth="yes"/>
      <point x="237" y="-171"/>
      <point x="266" y="-137"/>
      <point x="297" y="-66" type="curve"/>
      <point x="299" y="-61"/>
      <point x="302" y="-56"/>
      <point x="305" y="-52" type="curve"/>
      <point x="314" y="-39"/>
      <point x="327" y="-32"/>
      <point x="346" y="-32" type="curve" smooth="yes"/>
      <point x="375" y="-32"/>
      <point x="422" y="-49"/>
      <point x="422" y="-95" type="curve" smooth="yes"/>
      <point x="422" y="-144"/>
      <point x="360" y="-217"/>
      <point x="220" y="-217" type="curve" smooth="yes"/>
      <point x="88" y="-217"/>
      <point x="25" y="-165"/>
    </contour>
  </outline>
</glyph>
<glyph name="Atilde" format="1">
  <advance width="634"/>
  <unicode hex="00C3"/>
  <outline>
    <contour>
      <point x="260" y="294" type="curve"/>
      <point x="429" y="294" type="line"/>
      <point x="405" y="555" type="line"/>
      <point x="403" y="555" type="line"/>
      <point x="386" y="528"/>
      <point x="273" y="319"/>
    </contour>
    <contour>
      <point x="-24" y="0" type="line"/>
      <point x="-17" y="38" type="line"/>
      <point x="10" y="41" type="line" smooth="yes"/>
      <point x="40" y="44"/>
      <point x="55" y="54"/>
      <point x="75" y="87" type="curve" smooth="yes"/>
      <point x="103" y="133"/>
      <point x="166" y="243"/>
      <point x="226" y="349" type="curve" smooth="yes"/>
      <point x="420" y="692" type="line"/>
      <point x="538" y="692" type="line"/>
      <point x="572" y="375" type="line" smooth="yes"/>
      <point x="580" y="302"/>
      <point x="594" y="159"/>
      <point x="602" y="86" type="curve" smooth="yes"/>
      <point x="606" y="58"/>
      <point x="610" y="43"/>
      <point x="633" y="41" type="curve" smooth="yes"/>
      <point x="674" y="38" type="line"/>
      <point x="666" y="0" type="line"/>
      <point x="366" y="0" type="line"/>
      <point x="374" y="38" type="line"/>
      <point x="426" y="42" type="line" smooth="yes"/>
      <point x="446" y="43"/>
      <point x="451" y="55"/>
      <point x="449" y="79" type="curve" smooth="yes"/>
      <point x="434" y="246" type="line"/>
      <point x="234" y="246" type="line"/>
      <point x="202" y="188"/>
      <point x="176" y="132"/>
      <point x="148" y="79" type="curve" smooth="yes"/>
      <point x="138" y="59"/>
      <point x="139" y="43"/>
      <point x="161" y="42" type="curve" smooth="yes"/>
      <point x="217" y="38" type="line"/>
      <point x="210" y="0" type="line"/>
    </contour>
    <contour>
      <point x="272" y="741" type="line"/>
      <point x="290" y="784"/>
      <point x="325" y="863"/>
      <point x="407" y="863" type="curve" smooth="yes"/>
      <point x="435" y="863"/>
      <point x="467" y="853"/>
      <point x="499" y="842" type="curve" smooth="yes"/>
      <point x="532" y="832"/>
      <point x="564" y="821"/>
      <point x="590" y="821" type="curve" smooth="yes"/>
      <point x="627" y="821"/>
      <point x="643" y="837"/>
      <point x="665" y="876" type="curve"/>
      <point x="697" y="858" type="line"/>
      <point x="679" y="815"/>
      <point x="644" y="736"/>
      <point x="562" y="736" type="curve" smooth="yes"/>
      <point x="537" y="736"/>
      <point x="506" y="747"/>
      <point x="474" y="757" type="curve" smooth="yes"/>
      <point x="442" y="768"/>
      <point x="409" y="778"/>
      <point x="379" y="778" type="curve" smooth="yes"/>
      <point x="342" y="778"/>
      <point x="326" y="762"/>
      <point x="304" y="723" type="curve"/>
    </contour>
  </outline>
</glyph>
<glyph name="Ccedilla" format="2">
  <advance width="672"/>
  <unicode hex="00C7"/>
  <outline>
    <contour>
      <point x="111" y="275" type="curve" smooth="yes"/>
      <point x="111" y="345"/>
      <point x="128" y="444"/>
      <point x="180" y="524" type="curve" smooth="yes"/>
      <point x="250" y="631"/>
      <point x="362" y="707"/>
      <point x="555" y="707" type="curve" smooth="yes"/>
      <point x="611" y="707"/>
      <point x="717" y="696"/>
      <point x="777" y="659" type="curve"/>
      <point x="738" y="480" type="line"/>
      <point x="700" y="480" type="line"/>
      <point x="699" y="571"/>
      <point x="674" y="661"/>
      <point x="557" y="661" type="curve" smooth="yes"/>
      <point x="445" y="661"/>
      <point x="373" y="586"/>
      <point x="330" y="488" type="curve" smooth="yes"/>
      <point x="295" y="409"/>
      <point x="280" y="315"/>
      <point x="280" y="235" type="curve" smooth="yes"/>
      <point x="280" y="96"/>
      <point x="344" y="31"/>
      <point x="434" y="31" type="curve" smooth="yes"/>
      <point x="546" y="31"/>
      <point x="601" y="116"/>
      <point x="665" y="220" type="curve"/>
      <point x="703" y="220" type="line"/>
      <point x="648" y="26" type="line"/>
      <point x="594" y="-2"/>
      <point x="526" y="-12"/>
      <point x="466" y="-15" type="curve"/>
      <point x="458" y="-15"/>
      <point x="449" y="-15"/>
      <point x="441" y="-15" type="curve"/>
      <point x="411" y="-53" type="line"/>
      <point x="443" y="-58"/>
      <point x="509" y="-75"/>
      <point x="502" y="-147" type="curve"/>
      <point x="496" y="-221"/>
      <point x="411" y="-241"/>
      <point x="357" y="-245" type="curve"/>
      <point x="349" y="-246"/>
      <point x="342" y="-246"/>
      <point x="336" y="-246" type="curve" smooth="yes"/>
      <point x="316" y="-246"/>
      <point x="304" y="-245"/>
      <point x="286" y="-243" type="curve"/>
      <point x="289" y="-210" type="line"/>
      <point x="347" y="-210"/>
      <point x="389" y="-194"/>
      <point x="394" y="-149" type="curve" smooth="yes"/>
      <point x="399" y="-109"/>
      <point x="354" y="-99"/>
      <point x="331" y="-97" type="curve"/>
      <point x="328" y="-89" type="line"/>
      <point x="383" y="-13" type="line"/>
      <point x="138" y="9"/>
      <point x="111" y="189"/>
    </contour>
  </outline>
</glyph>
<glyph name="Ocircumflex" format="1">
  <advance width="761"/>
  <unicode hex="00D4"/>
  <outline>
    <contour>
      <point x="278" y="190" type="curve" smooth="yes"/>
      <point x="278" y="88"/>
      <point x="319" y="31"/>
      <point x="403" y="31" type="curve" smooth="yes"/>
      <point x="551" y="31"/>
      <point x="638" y="312"/>
      <point x="638" y="506" type="curve" smooth="yes"/>
      <point x="638" y="594"/>
      <point x="611" y="661"/>
      <point x="522" y="661" type="curve" smooth="yes"/>
      <point x="357" y="661"/>
      <point x="278" y="349"/>
    </contour>
    <contour>
      <point x="113" y="264" type="curve" smooth="yes"/>
      <point x="113" y="316"/>
      <point x="117" y="406"/>
      <point x="170" y="508" type="curve" smooth="yes"/>
      <point x="224" y="611"/>
      <point x="326" y="707"/>
      <point x="507" y="707" type="curve" smooth="yes"/>
      <point x="675" y="707"/>
      <point x="803" y="621"/>
      <point x="803" y="419" type="curve" smooth="yes"/>
      <point x="803" y="366"/>
      <point x="795" y="274"/>
      <point x="744" y="176" type="curve" smooth="yes"/>
      <point x="691" y="74"/>
      <point x="600" y="-15"/>
      <point x="420" y="-15" type="curve" smooth="yes"/>
      <point x="219" y="-15"/>
      <point x="113" y="95"/>
    </contour>
    <contour>
      <point x="344" y="755" type="line"/>
      <point x="516" y="879" type="line" smooth="yes"/>
      <point x="534" y="892"/>
      <point x="551" y="905"/>
      <point x="568" y="905" type="curve" smooth="yes"/>
      <point x="586" y="905"/>
      <point x="599" y="892"/>
      <point x="613" y="877" type="curve" smooth="yes"/>
      <point x="725" y="755" type="line"/>
      <point x="701" y="725" type="line"/>
      <point x="595" y="785" type="line" smooth="yes"/>
      <point x="576" y="796"/>
      <point x="566" y="800"/>
      <point x="554" y="800" type="curve" smooth="yes"/>
      <point x="544" y="800"/>
      <point x="531" y="795"/>
      <point x="512" y="787" type="curve" smooth="yes"/>
      <point x="361" y="725" type="line"/>
    </contour>
  </outline>
</glyph>
<glyph name="Otilde" format="1">
  <advance width="761"/>
  <unicode hex="00D5"/>
  <outline>
    <contour>
      <point x="278" y="190" type="curve" smooth="yes"/>
      <point x="278" y="88"/>
      <point x="319" y="31"/>
      <point x="403" y="31" type="curve" smooth="yes"/>
      <point x="551" y="31"/>
      <point x="638" y="312"/>
      <point x="638" y="506" type="curve" smooth="yes"/>
      <point x="638" y="594"/>
      <point x="611" y="661"/>
      <point x="522" y="661" type="curve" smooth="yes"/>
      <point x="357" y="661"/>
      <point x="278" y="349"/>
    </contour>
    <contour>
      <point x="113" y="264" type="curve" smooth="yes"/>
      <point x="113" y="316"/>
      <point x="117" y="406"/>
      <point x="170" y="508" type="curve" smooth="yes"/>
      <point x="224" y="611"/>
      <point x="326" y="707"/>
      <point x="507" y="707" type="curve" smooth="yes"/>
      <point x="675" y="707"/>
      <point x="803" y="621"/>
      <point x="803" y="419" type="curve" smooth="yes"/>
      <point x="803" y="366"/>
      <point x="795" y="274"/>
      <point x="744" y="176" type="curve" smooth="yes"/>
      <point x="691" y="74"/>
      <point x="600" y="-15"/>
      <point x="420" y="-15" type="curve" smooth="yes"/>
      <point x="219" y="-15"/>
      <point x="113" y="95"/>
    </contour>
    <contour>
      <point x="329" y="741" type="line"/>
      <point x="347" y="784"/>
      <point x="382" y="863"/>
      <point x="464" y="863" type="curve" smooth="yes"/>
      <point x="492" y="863"/>
      <point x="524" y="853"/>
      <point x="556" y="842" type="curve" smooth="yes"/>
      <point x="589" y="832"/>
      <point x="621" y="821"/>
      <point x="647" y="821" type="curve" smooth="yes"/>
      <point x="684" y="821"/>
      <point x="700" y="837"/>
      <point x="722" y="876" type="curve"/>
      <point x="754" y="858" type="line"/>
      <point x="736" y="815"/>
      <point x="701" y="736"/>
      <point x="619" y="736" type="curve" smooth="yes"/>
      <point x="594" y="736"/>
      <point x="563" y="747"/>
      <point x="531" y="757" type="curve" smooth="yes"/>
      <point x="499" y="768"/>
      <point x="466" y="778"/>
      <point x="436" y="778" type="curve" smooth="yes"/>
      <point x="399" y="778"/>
      <point x="383" y="762"/>
      <point x="361" y="723" type="curve"/>
    </contour>
  </outline>
</glyph>
<glyph name="Oslash" format="1">
  <advance width="761"/>
  <unicode hex="00D8"/>
  <outline>
    <contour>
      <point x="294" y="94" type="line"/>
      <point x="314" y="53"/>
      <point x="350" y="31"/>
      <point x="401" y="31" type="curve" smooth="yes"/>
      <point x="551" y="31"/>
      <point x="642" y="312"/>
      <point x="642" y="508" type="curve" smooth="yes"/>
      <point x="642" y="520"/>
      <point x="640" y="531"/>
      <point x="638" y="541" type="curve"/>
    </contour>
    <contour>
      <point x="274" y="188" type="curve" smooth="yes"/>
      <point x="274" y="176"/>
      <point x="277" y="165"/>
      <point x="278" y="154" type="curve"/>
      <point x="623" y="602" type="line"/>
      <point x="607" y="638"/>
      <point x="576" y="661"/>
      <point x="523" y="661" type="curve" smooth="yes"/>
      <point x="357" y="661"/>
      <point x="274" y="349"/>
    </contour>
    <contour>
      <point x="112" y="260" type="curve" smooth="yes"/>
      <point x="112" y="313"/>
      <point x="117" y="406"/>
      <point x="170" y="508" type="curve" smooth="yes"/>
      <point x="224" y="611"/>
      <point x="326" y="707"/>
      <point x="507" y="707" type="curve" smooth="yes"/>
      <point x="569" y="707"/>
      <point x="626" y="695"/>
      <point x="675" y="670" type="curve"/>
      <point x="724" y="734" type="line"/>
      <point x="763" y="702" type="line"/>
      <point x="716" y="642" type="line"/>
      <point x="771" y="594"/>
      <point x="804" y="522"/>
      <point x="804" y="419" type="curve" smooth="yes"/>
      <point x="804" y="366"/>
      <point x="796" y="274"/>
      <point x="745" y="176" type="curve" smooth="yes"/>
      <point x="691" y="74"/>
      <point x="600" y="-15"/>
      <point x="420" y="-15" type="curve" smooth="yes"/>
      <point x="348" y="-15"/>
      <point x="288" y="-1"/>
      <point x="241" y="24" type="curve"/>
      <point x="183" y="-51" type="line"/>
      <point x="147" y="-16" type="line"/>
      <point x="200" y="53" type="line"/>
      <point x="142" y="101"/>
      <point x="112" y="173"/>
    </contour>
  </outline>
</glyph>
<glyph name="Uacute" format="1">
  <advance width="776"/>
  <unicode hex="00DA"/>
  <outline>
    <contour>
      <point x="159" y="241" type="curve" smooth="yes"/>
      <point x="238" y="594" type="line" smooth="yes"/>
      <point x="246" y="630"/>
      <point x="247" y="647"/>
      <point x="219" y="649" type="curve" smooth="yes"/>
      <point x="168" y="654" type="line"/>
      <point x="178" y="692" type="line"/>
      <point x="490" y="692" type="line"/>
      <point x="480" y="654" type="line"/>
      <point x="436" y="650" type="line" smooth="yes"/>
      <point x="407" y="648"/>
      <point x="400" y="630"/>
      <point x="392" y="594" type="curve" smooth="yes"/>
      <point x="312" y="233" type="line" smooth="yes"/>
      <point x="279" y="82"/>
      <point x="328" y="31"/>
      <point x="407" y="31" type="curve" smooth="yes"/>
      <point x="495" y="31"/>
      <point x="541" y="104"/>
      <point x="575" y="258" type="curve" smooth="yes"/>
      <point x="650" y="594" type="line" smooth="yes"/>
      <point x="658" y="630"/>
      <point x="659" y="647"/>
      <point x="631" y="649" type="curve" smooth="yes"/>
      <point x="580" y="654" type="line"/>
      <point x="590" y="692" type="line"/>
      <point x="902" y="692" type="line"/>
      <point x="892" y="654" type="line"/>
      <point x="848" y="650" type="line" smooth="yes"/>
      <point x="819" y="648"/>
      <point x="812" y="630"/>
      <point x="804" y="594" type="curve" smooth="yes"/>
      <point x="726" y="253" type="line" smooth="yes"/>
      <point x="701" y="142"/>
      <point x="662" y="74"/>
      <point x="612" y="38" type="curve" smooth="yes"/>
      <point x="557" y="-1"/>
      <point x="481" y="-15"/>
      <point x="402" y="-15" type="curve" smooth="yes"/>
      <point x="306" y="-15"/>
      <point x="227" y="9"/>
      <point x="185" y="55" type="curve" smooth="yes"/>
      <point x="148" y="97"/>
      <point x="141" y="161"/>
    </contour>
    <contour>
      <point x="519" y="751" type="line"/>
      <point x="691" y="874" type="line" smooth="yes"/>
      <point x="722" y="897"/>
      <point x="737" y="904"/>
      <point x="755" y="904" type="curve" smooth="yes"/>
      <point x="787" y="904"/>
      <point x="809" y="860"/>
      <point x="809" y="840" type="curve" smooth="yes"/>
      <point x="809" y="811"/>
      <point x="789" y="800"/>
      <point x="736" y="783" type="curve" smooth="yes"/>
      <point x="533" y="719" type="line"/>
    </contour>
  </outline>
</glyph>
<glyph name="Yacute" format="2">
  <advance width="622"/>
  <unicode hex="00DD"/>
  <outline>
    <contour>
      <point x="127" y="656" type="curve"/>
      <point x="135" y="692" type="line"/>
      <point x="436" y="692" type="line"/>
      <point x="428" y="654" type="line"/>
      <point x="373" y="648" type="line" smooth="yes"/>
      <point x="353" y="646"/>
      <point x="352" y="636"/>
      <point x="356" y="619" type="curve" smooth="yes"/>
      <point x="426" y="347" type="line"/>
      <point x="428" y="347" type="line"/>
      <point x="492" y="438"/>
      <point x="576" y="565"/>
      <point x="606" y="615" type="curve"/>
      <point x="606" y="615"/>
      <point x="606" y="615"/>
      <point x="606" y="615" type="curve"/>
      <point x="618" y="635"/>
      <point x="615" y="647"/>
      <point x="593" y="649" type="curve" smooth="yes"/>
      <point x="540" y="654" type="line"/>
      <point x="548" y="692" type="line"/>
      <point x="800" y="692" type="line"/>
      <point x="793" y="654" type="line"/>
      <point x="783" y="653"/>
      <point x="774" y="652"/>
      <point x="764" y="651" type="curve" smooth="yes"/>
      <point x="727" y="647"/>
      <point x="715" y="633"/>
      <point x="688" y="603" type="curve" smooth="yes"/>
      <point x="638" y="547"/>
      <point x="543" y="420"/>
      <point x="477" y="323" type="curve" smooth="yes"/>
      <point x="473" y="317"/>
      <point x="469" y="310"/>
      <point x="465" y="305" type="curve"/>
      <point x="454" y="287"/>
      <point x="448" y="271"/>
      <point x="443" y="251" type="curve" smooth="yes"/>
      <point x="408" y="98" type="line" smooth="yes"/>
      <point x="406" y="89"/>
      <point x="404" y="81"/>
      <point x="404" y="75" type="curve"/>
      <point x="401" y="54"/>
      <point x="406" y="45"/>
      <point x="427" y="43" type="curve" smooth="yes"/>
      <point x="491" y="38" type="line"/>
      <point x="482" y="0" type="line"/>
      <point x="143" y="0" type="line"/>
      <point x="152" y="38" type="line"/>
      <point x="211" y="42" type="line"/>
      <point x="211" y="42" type="line"/>
      <point x="233" y="44"/>
      <point x="242" y="54"/>
      <point x="249" y="74" type="curve"/>
      <point x="251" y="81"/>
      <point x="253" y="89"/>
      <point x="255" y="98" type="curve" smooth="yes"/>
      <point x="287" y="246" type="line" smooth="yes"/>
      <point x="293" y="273"/>
      <point x="290" y="292"/>
      <point x="285" y="311" type="curve" smooth="yes"/>
      <point x="260" y="414"/>
      <point x="231" y="516"/>
      <point x="202" y="609" type="curve" smooth="yes"/>
      <point x="192" y="642"/>
      <point x="183" y="651"/>
      <point x="161" y="653" type="curve" smooth="yes"/>
      <point x="150" y="654"/>
      <point x="138" y="655"/>
    </contour>
    <contour>
      <point x="472" y="751" type="line"/>
      <point x="644" y="874" type="line" smooth="yes"/>
      <point x="675" y="897"/>
      <point x="690" y="904"/>
      <point x="708" y="904" type="curve" smooth="yes"/>
      <point x="740" y="904"/>
      <point x="762" y="860"/>
      <point x="762" y="840" type="curve" smooth="yes"/>
      <point x="762" y="811"/>
      <point x="742" y="800"/>
      <point x="689" y="783" type="curve" smooth="yes"/>
      <point x="486" y="719" type="line"/>
    </contour>
  </outline>
</glyph>
<glyph name="germandbls" format="2">
  <advance width="628"/>
  <unicode hex="00DF"/>
  <outline>
    <contour>
      <point x="-94" y="-168" type="curve" smooth="yes"/>
      <point x="-94" y="-137"/>
      <point x="-66" y="-109"/>
      <point x="-34" y="-109" type="curve" smooth="yes"/>
      <point x="-12" y="-109"/>
      <point x="-4" y="-125"/>
      <point x="5" y="-140" type="curve" smooth="yes"/>
      <point x="29" y="-182"/>
      <point x="42" y="-196"/>
      <point x="52" y="-196" type="curve" smooth="yes"/>
      <point x="60" y="-196"/>
      <point x="67" y="-187"/>
      <point x="71" y="-169" type="curve" smooth="yes"/>
      <point x="194" y="442" type="line"/>
      <point x="105" y="442" type="line"/>
      <point x="119" y="490" type="line"/>
      <point x="205" y="490" type="line"/>
      <point x="212" y="512" type="line" smooth="yes"/>
      <point x="240" y="604"/>
      <point x="309" y="742"/>
      <point x="512" y="742" type="curve" smooth="yes"/>
      <point x="660" y="742"/>
      <point x="727" y="676"/>
      <point x="727" y="601" type="curve" smooth="yes"/>
      <point x="727" y="565"/>
      <point x="717" y="520"/>
      <point x="661" y="479" type="curve"/>
      <point x="546" y="479"/>
      <point x="531" y="424"/>
      <point x="531" y="392" type="curve" smooth="yes"/>
      <point x="531" y="354"/>
      <point x="567" y="309"/>
      <point x="587" y="281" type="curve" smooth="yes"/>
      <point x="614" y="244"/>
      <point x="640" y="199"/>
      <point x="640" y="147" type="curve" smooth="yes"/>
      <point x="640" y="77"/>
      <point x="589" y="-10"/>
      <point x="456" y="-10" type="curve" smooth="yes"/>
      <point x="379" y="-10"/>
      <point x="323" y="21"/>
      <point x="323" y="58" type="curve"/>
      <point x="322" y="89"/>
      <point x="350" y="111"/>
      <point x="378" y="111" type="curve" smooth="yes"/>
      <point x="394" y="111"/>
      <point x="404" y="103"/>
      <point x="412" y="91" type="curve" smooth="yes"/>
      <point x="439" y="50"/>
      <point x="457" y="36"/>
      <point x="478" y="36" type="curve" smooth="yes"/>
      <point x="501" y="36"/>
      <point x="521" y="53"/>
      <point x="521" y="84" type="curve" smooth="yes"/>
      <point x="521" y="122"/>
      <point x="490" y="161"/>
      <point x="453" y="212" type="curve" smooth="yes"/>
      <point x="422" y="254"/>
      <point x="397" y="301"/>
      <point x="397" y="342" type="curve" smooth="yes"/>
      <point x="397" y="427"/>
      <point x="465" y="488"/>
      <point x="539" y="492" type="curve"/>
      <point x="588" y="530"/>
      <point x="602" y="576"/>
      <point x="602" y="611" type="curve" smooth="yes"/>
      <point x="602" y="661"/>
      <point x="566" y="696"/>
      <point x="517" y="696" type="curve" smooth="yes"/>
      <point x="425" y="696"/>
      <point x="372" y="564"/>
      <point x="339" y="426" type="curve" smooth="yes"/>
      <point x="245" y="28" type="line" smooth="yes"/>
      <point x="203" y="-151"/>
      <point x="147" y="-239"/>
      <point x="26" y="-242" type="curve"/>
      <point x="-51" y="-242"/>
      <point x="-94" y="-210"/>
    </contour>
  </outline>
</glyph>
<glyph name="aacute" format="2">
  <advance width="596"/>
  <unicode hex="00E1"/>
  <outline>
    <contour>
      <point x="215" y="115" type="curve" smooth="yes"/>
      <point x="215" y="87"/>
      <point x="221" y="68"/>
      <point x="244" y="68" type="curve" smooth="yes"/>
      <point x="276" y="68"/>
      <point x="315" y="116"/>
      <point x="364" y="194" type="curve"/>
      <point x="368" y="200"/>
      <point x="371" y="206"/>
      <point x="375" y="213" type="curve" smooth="yes"/>
      <point x="418" y="289"/>
      <point x="450" y="376"/>
      <point x="467" y="442" type="curve"/>
      <point x="454" y="451"/>
      <point x="437" y="456"/>
      <point x="418" y="456" type="curve" smooth="yes"/>
      <point x="305" y="456"/>
      <point x="215" y="220"/>
    </contour>
    <contour>
      <point x="61" y="108" type="curve" smooth="yes"/>
      <point x="61" y="239"/>
      <point x="171" y="502"/>
      <point x="409" y="502" type="curve" smooth="yes"/>
      <point x="418" y="502"/>
      <point x="427" y="501"/>
      <point x="435" y="500" type="curve"/>
      <point x="452" y="497"/>
      <point x="468" y="492"/>
      <point x="480" y="485" type="curve"/>
      <point x="484" y="494" type="line"/>
      <point x="621" y="494" type="line"/>
      <point x="520" y="115" type="line"/>
      <point x="520" y="115" type="line"/>
      <point x="513" y="88"/>
      <point x="513" y="68"/>
      <point x="531" y="68" type="curve" smooth="yes"/>
      <point x="555" y="68"/>
      <point x="593" y="121"/>
      <point x="618" y="165" type="curve"/>
      <point x="647" y="149" type="line"/>
      <point x="609" y="73"/>
      <point x="554" y="2"/>
      <point x="473" y="-10" type="curve" smooth="yes"/>
      <point x="465" y="-11"/>
      <point x="457" y="-12"/>
      <point x="448" y="-12" type="curve" smooth="yes"/>
      <point x="385" y="-12"/>
      <point x="362" y="29"/>
      <point x="386" y="114" type="curve" smooth="yes"/>
      <point x="411" y="202" type="line"/>
      <point x="405" y="202" type="line"/>
      <point x="352" y="111"/>
      <point x="278" y="-12"/>
      <point x="159" y="-12" type="curve" smooth="yes"/>
      <point x="88" y="-12"/>
      <point x="61" y="47"/>
    </contour>
    <contour>
      <point x="344" y="541" type="line"/>
      <point x="489" y="690" type="line" smooth="yes"/>
      <point x="526" y="728"/>
      <point x="543" y="740"/>
      <point x="563" y="740" type="curve" smooth="yes"/>
      <point x="582" y="740"/>
      <point x="605" y="718"/>
      <point x="613" y="696" type="curve"/>
      <point x="615" y="690"/>
      <point x="616" y="685"/>
      <point x="616" y="680" type="curve" smooth="yes"/>
      <point x="616" y="654"/>
      <point x="584" y="634"/>
      <point x="548" y="614" type="curve" smooth="yes"/>
      <point x="365" y="511" type="line"/>
    </contour>
  </outline>
</glyph>
<glyph name="acircumflex" format="2">
  <advance width="596"/>
  <unicode hex="00E2"/>
  <outline>
    <contour>
      <point x="215" y="115" type="curve" smooth="yes"/>
      <point x="215" y="87"/>
      <point x="221" y="68"/>
      <point x="244" y="68" type="curve" smooth="yes"/>
      <point x="276" y="68"/>
      <point x="315" y="116"/>
      <point x="364" y="194" type="curve"/>
      <point x="368" y="200"/>
      <point x="371" y="206"/>
      <point x="375" y="213" type="curve" smooth="yes"/>
      <point x="418" y="289"/>
      <point x="450" y="376"/>
      <point x="467" y="442" type="curve"/>
      <point x="454" y="451"/>
      <point x="437" y="456"/>
      <point x="418" y="456" type="curve" smooth="yes"/>
      <point x="305" y="456"/>
      <point x="215" y="220"/>
    </contour>
    <contour>
      <point x="61" y="108" type="curve" smooth="yes"/>
      <point x="61" y="239"/>
      <point x="171" y="502"/>
      <point x="409" y="502" type="curve" smooth="yes"/>
      <point x="418" y="502"/>
      <point x="427" y="501"/>
      <point x="435" y="500" type="curve"/>
      <point x="452" y="497"/>
      <point x="468" y="492"/>
      <point x="480" y="485" type="curve"/>
      <point x="484" y="494" type="line"/>
      <point x="621" y="494" type="line"/>
      <point x="520" y="115" type="line"/>
      <point x="520" y="115" type="line"/>
      <point x="513" y="88"/>
      <point x="513" y="68"/>
      <point x="531" y="68" type="curve" smooth="yes"/>
      <point x="555" y="68"/>
      <point x="593" y="121"/>
      <point x="618" y="165" type="curve"/>
      <point x="647" y="149" type="line"/>
      <point x="609" y="73"/>
      <point x="554" y="2"/>
      <point x="473" y="-10" type="curve" smooth="yes"/>
      <point x="465" y="-11"/>
      <point x="457" y="-12"/>
      <point x="448" y="-12" type="curve" smooth="yes"/>
      <point x="385" y="-12"/>
      <point x="362" y="29"/>
      <point x="386" y="114" type="curve" smooth="yes"/>
      <point x="411" y="202" type="line"/>
      <point x="405" y="202" type="line"/>
      <point x="352" y="111"/>
      <point x="278" y="-12"/>
      <point x="159" y="-12" type="curve" smooth="yes"/>
      <point x="88" y="-12"/>
      <point x="61" y="47"/>
    </contour>
    <contour>
      <point x="231" y="547" type="line"/>
      <point x="398" y="708" type="line" smooth="yes"/>
      <point x="402" y="712"/>
      <point x="407" y="716"/>
      <point x="411" y="720" type="curve" smooth="yes"/>
      <point x="427" y="736"/>
      <point x="444" y="747"/>
      <point x="459" y="747" type="curve" smooth="yes"/>
      <point x="476" y="747"/>
      <point x="485" y="734"/>
      <point x="495" y="719" type="curve" smooth="yes"/>
      <point x="609" y="547" type="line"/>
      <point x="580" y="520" type="line"/>
      <point x="467" y="616" type="line"/>
      <point x="457" y="625"/>
      <point x="447" y="633"/>
      <point x="437" y="633" type="curve" smooth="yes"/>
      <point x="428" y="633"/>
      <point x="413" y="625"/>
      <point x="399" y="616" type="curve" smooth="yes"/>
      <point x="254" y="520" type="line"/>
    </contour>
  </outline>
</glyph>
<glyph name="atilde" format="1">
  <advance width="596"/>
  <unicode hex="00E3"/>
  <outline>
    <contour>
      <point x="215" y="115" type="curve" smooth="yes"/>
      <point x="215" y="87"/>
      <point x="221" y="68"/>
      <point x="244" y="68" type="curve" smooth="yes"/>
      <point x="276" y="68"/>
      <point x="315" y="116"/>
      <point x="364" y="194" type="curve" smooth="yes"/>
      <point x="413" y="274"/>
      <point x="449" y="371"/>
      <point x="467" y="442" type="curve"/>
      <point x="454" y="451"/>
      <point x="437" y="456"/>
      <point x="418" y="456" type="curve" smooth="yes"/>
      <point x="305" y="456"/>
      <point x="215" y="220"/>
    </contour>
    <contour>
      <point x="61" y="108" type="curve" smooth="yes"/>
      <point x="61" y="239"/>
      <point x="171" y="502"/>
      <point x="409" y="502" type="curve" smooth="yes"/>
      <point x="436" y="502"/>
      <point x="462" y="496"/>
      <point x="480" y="485" type="curve"/>
      <point x="484" y="494" type="line"/>
      <point x="621" y="494" type="line"/>
      <point x="520" y="115" type="line" smooth="yes"/>
      <point x="513" y="88"/>
      <point x="513" y="68"/>
      <point x="531" y="68" type="curve" smooth="yes"/>
      <point x="555" y="68"/>
      <point x="593" y="121"/>
      <point x="618" y="165" type="curve"/>
      <point x="647" y="149" type="line"/>
      <point x="605" y="65"/>
      <point x="543" y="-12"/>
      <point x="448" y="-12" type="curve" smooth="yes"/>
      <point x="385" y="-12"/>
      <point x="362" y="29"/>
      <point x="386" y="114" type="curve" smooth="yes"/>
      <point x="411" y="202" type="line"/>
      <point x="405" y="202" type="line"/>
      <point x="352" y="111"/>
      <point x="278" y="-12"/>
      <point x="159" y="-12" type="curve" smooth="yes"/>
      <point x="88" y="-12"/>
      <point x="61" y="47"/>
    </contour>
    <contour>
      <point x="227" y="567" type="line"/>
      <point x="235" y="609"/>
      <point x="271" y="688"/>
      <point x="352" y="688" type="curve" smooth="yes"/>
      <point x="380" y="688"/>
      <point x="413" y="677"/>
      <point x="446" y="666" type="curve" smooth="yes"/>
      <point x="479" y="656"/>
      <point x="512" y="645"/>
      <point x="538" y="646" type="curve" smooth="yes"/>
      <point x="559" y="648"/>
      <point x="577" y="656"/>
      <point x="613" y="697" type="curve"/>
      <point x="635" y="684" type="line"/>
      <point x="603" y="620"/>
      <point x="581" y="562"/>
      <point x="508" y="562" type="curve" smooth="yes"/>
      <point x="487" y="562"/>
      <point x="456" y="573"/>
      <point x="423" y="583" type="curve" smooth="yes"/>
      <point x="390" y="594"/>
      <point x="354" y="604"/>
      <point x="324" y="604" type="curve" smooth="yes"/>
      <point x="287" y="604"/>
      <point x="271" y="588"/>
      <point x="249" y="549" type="curve"/>
    </contour>
  </outline>
</glyph>
<glyph name="adieresis" format="2">
  <advance width="596"/>
  <unicode hex="00E4"/>
  <outline>
    <contour>
      <point x="215" y="115" type="curve" smooth="yes"/>
      <point x="215" y="87"/>
      <point x="221" y="68"/>
      <point x="244" y="68" type="curve" smooth="yes"/>
      <point x="276" y="68"/>
      <point x="315" y="116"/>
      <point x="364" y="194" type="curve"/>
      <point x="368" y="200"/>
      <point x="371" y="206"/>
      <point x="375" y="213" type="curve" smooth="yes"/>
      <point x="418" y="289"/>
      <point x="450" y="376"/>
      <point x="467" y="442" type="curve"/>
      <point x="454" y="451"/>
      <point x="437" y="456"/>
      <point x="418" y="456" type="curve" smooth="yes"/>
      <point x="305" y="456"/>
      <point x="215" y="220"/>
    </contour>
    <contour>
      <point x="61" y="108" type="curve" smooth="yes"/>
      <point x="61" y="239"/>
      <point x="171" y="502"/>
      <point x="409" y="502" type="curve" smooth="yes"/>
      <point x="418" y="502"/>
      <point x="427" y="501"/>
      <point x="435" y="500" type="curve"/>
      <point x="452" y="497"/>
      <point x="468" y="492"/>
      <point x="480" y="485" type="curve"/>
      <point x="484" y="494" type="line"/>
      <point x="621" y="494" type="line"/>
      <point x="520" y="115" type="line"/>
      <point x="520" y="115" type="line"/>
      <point x="513" y="88"/>
      <point x="513" y="68"/>
      <point x="531" y="68" type="curve" smooth="yes"/>
      <point x="555" y="68"/>
      <point x="593" y="121"/>
      <point x="618" y="165" type="curve"/>
      <point x="647" y="149" type="line"/>
      <point x="609" y="73"/>
      <point x="554" y="2"/>
      <point x="473" y="-10" type="curve" smooth="yes"/>
      <point x="465" y="-11"/>
      <point x="457" y="-12"/>
      <point x="448" y="-12" type="curve" smooth="yes"/>
      <point x="385" y="-12"/>
      <point x="362" y="29"/>
      <point x="386" y="114" type="curve" smooth="yes"/>
      <point x="411" y="202" type="line"/>
      <point x="405" y="202" type="line"/>
      <point x="352" y="111"/>
      <point x="278" y="-12"/>
      <point x="159" y="-12" type="curve" smooth="yes"/>
      <point x="88" y="-12"/>
      <point x="61" y="47"/>
    </contour>
    <contour>
      <point x="239" y="635" type="curve" smooth="yes"/>
      <point x="239" y="673"/>
      <point x="267" y="710"/>
      <point x="318" y="710" type="curve"/>
      <point x="318" y="710"/>
      <point x="318" y="710"/>
      <point x="318" y="710" type="curve"/>
      <point x="364" y="710"/>
      <point x="391" y="681"/>
      <point x="396" y="648" type="curve"/>
      <point x="397" y="643"/>
      <point x="397" y="639"/>
      <point x="397" y="635" type="curve" smooth="yes"/>
      <point x="397" y="597"/>
      <point x="370" y="561"/>
      <point x="318" y="561" type="curve"/>
      <point x="318" y="561"/>
      <point x="318" y="561"/>
      <point x="318" y="561" type="curve"/>
      <point x="267" y="561"/>
      <point x="239" y="597"/>
    </contour>
    <contour>
      <point x="479" y="635" type="curve" smooth="yes"/>
      <point x="479" y="673"/>
      <point x="507" y="710"/>
      <point x="558" y="710" type="curve"/>
      <point x="558" y="710"/>
      <point x="558" y="710"/>
      <point x="558" y="710" type="curve"/>
      <point x="604" y="710"/>
      <point x="631" y="681"/>
      <point x="636" y="648" type="curve"/>
      <point x="637" y="643"/>
      <point x="637" y="639"/>
      <point x="637" y="635" type="curve" smooth="yes"/>
      <point x="637" y="597"/>
      <point x="610" y="561"/>
      <point x="558" y="561" type="curve"/>
      <point x="558" y="561"/>
      <point x="558" y="561"/>
      <point x="558" y="561" type="curve"/>
      <point x="507" y="561"/>
      <point x="479" y="597"/>
    </contour>
  </outline>
</glyph>
<glyph name="aring" format="2">
  <advance width="596"/>
  <unicode hex="00E5"/>
  <outline>
    <contour>
      <point x="215" y="115" type="curve" smooth="yes"/>
      <point x="215" y="87"/>
      <point x="221" y="68"/>
      <point x="244" y="68" type="curve" smooth="yes"/>
      <point x="276" y="68"/>
      <point x="315" y="116"/>
      <point x="364" y="194" type="curve"/>
      <point x="368" y="200"/>
      <point x="371" y="206"/>
      <point x="375" y="213" type="curve" smooth="yes"/>
      <point x="418" y="289"/>
      <point x="450" y="376"/>
      <point x="467" y="442" type="curve"/>
      <point x="454" y="451"/>
      <point x="437" y="456"/>
      <point x="418" y="456" type="curve" smooth="yes"/>
      <point x="305" y="456"/>
      <point x="215" y="220"/>
    </contour>
    <contour>
      <point x="61" y="108" type="curve" smooth="yes"/>
      <point x="61" y="239"/>
      <point x="171" y="502"/>
      <point x="409" y="502" type="curve" smooth="yes"/>
      <point x="418" y="502"/>
      <point x="427" y="501"/>
      <point x="435" y="500" type="curve"/>
      <point x="452" y="497"/>
      <point x="468" y="492"/>
      <point x="480" y="485" type="curve"/>
      <point x="484" y="494" type="line"/>
      <point x="621" y="494" type="line"/>
      <point x="520" y="115" type="line"/>
      <point x="520" y="115" type="line"/>
      <point x="513" y="88"/>
      <point x="513" y="68"/>
      <point x="531" y="68" type="curve" smooth="yes"/>
      <point x="555" y="68"/>
      <point x="593" y="121"/>
      <point x="618" y="165" type="curve"/>
      <point x="647" y="149" type="line"/>
      <point x="609" y="73"/>
      <point x="554" y="2"/>
      <point x="473" y="-10" type="curve" smooth="yes"/>
      <point x="465" y="-11"/>
      <point x="457" y="-12"/>
      <point x="448" y="-12" type="curve" smooth="yes"/>
      <point x="385" y="-12"/>
      <point x="362" y="29"/>
      <point x="386" y="114" type="curve" smooth="yes"/>
      <point x="411" y="202" type="line"/>
      <point x="405" y="202" type="line"/>
      <point x="352" y="111"/>
      <point x="278" y="-12"/>
      <point x="159" y="-12" type="curve" smooth="yes"/>
      <point x="88" y="-12"/>
      <point x="61" y="47"/>
    </contour>
    <contour>
      <point x="367" y="624" type="curve" smooth="yes"/>
      <point x="367" y="586"/>
      <point x="392" y="569"/>
      <point x="419" y="569" type="curve" smooth="yes"/>
      <point x="456" y="569"/>
      <point x="488" y="603"/>
      <point x="488" y="667" type="curve" smooth="yes"/>
      <point x="488" y="699"/>
      <point x="468" y="722"/>
      <point x="437" y="722" type="curve" smooth="yes"/>
      <point x="399" y="722"/>
      <point x="367" y="684"/>
    </contour>
    <contour>
      <point x="299" y="627" type="curve" smooth="yes"/>
      <point x="299" y="700"/>
      <point x="342" y="762"/>
      <point x="443" y="762" type="curve" smooth="yes"/>
      <point x="514" y="762"/>
      <point x="556" y="721"/>
      <point x="556" y="660" type="curve" smooth="yes"/>
      <point x="556" y="570"/>
      <point x="491" y="529"/>
      <point x="413" y="529" type="curve" smooth="yes"/>
      <point x="345" y="529"/>
      <point x="299" y="566"/>
    </contour>
  </outline>
</glyph>
<glyph name="eacute" format="1">
  <advance width="476"/>
  <unicode hex="00E9"/>
  <outline>
    <contour>
      <point x="226" y="232" type="curve"/>
      <point x="342" y="255"/>
      <point x="404" y="334"/>
      <point x="404" y="412" type="curve" smooth="yes"/>
      <point x="404" y="440"/>
      <point x="391" y="456"/>
      <point x="367" y="456" type="curve" smooth="yes"/>
      <point x="308" y="456"/>
      <point x="240" y="347"/>
    </contour>
    <contour>
      <point x="73" y="161" type="curve" smooth="yes"/>
      <point x="73" y="238"/>
      <point x="100" y="320"/>
      <point x="154" y="388" type="curve" smooth="yes"/>
      <point x="208" y="456"/>
      <point x="285" y="502"/>
      <point x="384" y="502" type="curve" smooth="yes"/>
      <point x="469" y="502"/>
      <point x="532" y="457"/>
      <point x="532" y="386" type="curve" smooth="yes"/>
      <point x="532" y="355"/>
      <point x="525" y="322"/>
      <point x="486" y="286" type="curve" smooth="yes"/>
      <point x="443" y="248"/>
      <point x="372" y="216"/>
      <point x="222" y="187" type="curve"/>
      <point x="222" y="163" type="line" smooth="yes"/>
      <point x="222" y="109"/>
      <point x="241" y="54"/>
      <point x="300" y="54" type="curve" smooth="yes"/>
      <point x="360" y="54"/>
      <point x="407" y="100"/>
      <point x="460" y="176" type="curve"/>
      <point x="490" y="152" type="line"/>
      <point x="417" y="20"/>
      <point x="323" y="-12"/>
      <point x="236" y="-12" type="curve" smooth="yes"/>
      <point x="164" y="-12"/>
      <point x="73" y="23"/>
    </contour>
    <contour>
      <point x="294" y="541" type="line"/>
      <point x="439" y="690" type="line" smooth="yes"/>
      <point x="476" y="728"/>
      <point x="493" y="740"/>
      <point x="513" y="740" type="curve" smooth="yes"/>
      <point x="537" y="740"/>
      <point x="566" y="705"/>
      <point x="566" y="680" type="curve" smooth="yes"/>
      <point x="566" y="654"/>
      <point x="534" y="634"/>
      <point x="498" y="614" type="curve" smooth="yes"/>
      <point x="315" y="511" type="line"/>
    </contour>
  </outline>
</glyph>
<glyph name="igrave" format="2">
  <advance width="339"/>
  <unicode hex="00EC"/>
  <outline>
    <contour>
      <point x="104" y="680" type="curve" smooth="yes"/>
      <point x="104" y="705"/>
      <point x="133" y="740"/>
      <point x="157" y="740" type="curve" smooth="yes"/>
      <point x="177" y="740"/>
      <point x="194" y="728"/>
      <point x="231" y="690" type="curve" smooth="yes"/>
      <point x="376" y="541" type="line"/>
      <point x="355" y="511" type="line"/>
      <point x="172" y="614" type="line" smooth="yes"/>
      <point x="136" y="634"/>
      <point x="104" y="654"/>
    </contour>
    <contour>
      <point x="108" y="107" type="curve" smooth="yes"/>
      <point x="185" y="392" type="line"/>
      <point x="185" y="392" type="line"/>
      <point x="192" y="419"/>
      <point x="188" y="432"/>
      <point x="168" y="434" type="curve" smooth="yes"/>
      <point x="110" y="440" type="line"/>
      <point x="118" y="473" type="line"/>
      <point x="348" y="502" type="line"/>
      <point x="354" y="496" type="line"/>
      <point x="251" y="115" type="line"/>
      <point x="251" y="115" type="line"/>
      <point x="244" y="89"/>
      <point x="243" y="68"/>
      <point x="262" y="68" type="curve" smooth="yes"/>
      <point x="285" y="68"/>
      <point x="323" y="121"/>
      <point x="348" y="166" type="curve"/>
      <point x="378" y="149" type="line"/>
      <point x="336" y="65"/>
      <point x="275" y="-12"/>
      <point x="178" y="-12" type="curve" smooth="yes"/>
      <point x="111" y="-12"/>
      <point x="87" y="30"/>
    </contour>
  </outline>
</glyph>
<glyph name="iacute" format="1">
  <advance width="339"/>
  <unicode hex="00ED"/>
  <outline>
    <contour>
      <point x="171" y="541" type="line"/>
      <point x="316" y="690" type="line" smooth="yes"/>
      <point x="353" y="728"/>
      <point x="370" y="740"/>
      <point x="390" y="740" type="curve" smooth="yes"/>
      <point x="414" y="740"/>
      <point x="443" y="705"/>
      <point x="443" y="680" type="curve" smooth="yes"/>
      <point x="443" y="654"/>
      <point x="411" y="634"/>
      <point x="375" y="614" type="curve" smooth="yes"/>
      <point x="192" y="511" type="line"/>
    </contour>
    <contour>
      <point x="108" y="107" type="curve" smooth="yes"/>
      <point x="185" y="392" type="line" smooth="yes"/>
      <point x="192" y="419"/>
      <point x="188" y="432"/>
      <point x="168" y="434" type="curve" smooth="yes"/>
      <point x="110" y="440" type="line"/>
      <point x="118" y="473" type="line"/>
      <point x="348" y="502" type="line"/>
      <point x="354" y="496" type="line"/>
      <point x="251" y="115" type="line" smooth="yes"/>
      <point x="244" y="89"/>
      <point x="243" y="68"/>
      <point x="262" y="68" type="curve" smooth="yes"/>
      <point x="285" y="68"/>
      <point x="323" y="121"/>
      <point x="348" y="166" type="curve"/>
      <point x="378" y="149" type="line"/>
      <point x="336" y="65"/>
      <point x="275" y="-12"/>
      <point x="178" y="-12" type="curve" smooth="yes"/>
      <point x="111" y="-12"/>
      <point x="87" y="30"/>
    </contour>
  </outline>
</glyph>
<glyph name="icircumflex" format="1">
  <advance width="339"/>
  <unicode hex="00EE"/>
  <outline>
    <contour>
      <point x="108" y="107" type="curve" smooth="yes"/>
      <point x="185" y="392" type="line" smooth="yes"/>
      <point x="192" y="419"/>
      <point x="188" y="432"/>
      <point x="168" y="434" type="curve" smooth="yes"/>
      <point x="110" y="440" type="line"/>
      <point x="118" y="473" type="line"/>
      <point x="348" y="502" type="line"/>
      <point x="354" y="496" type="line"/>
      <point x="251" y="115" type="line" smooth="yes"/>
      <point x="244" y="89"/>
      <point x="243" y="68"/>
      <point x="262" y="68" type="curve" smooth="yes"/>
      <point x="285" y="68"/>
      <point x="323" y="121"/>
      <point x="348" y="166" type="curve"/>
      <point x="378" y="149" type="line"/>
      <point x="336" y="65"/>
      <point x="275" y="-12"/>
      <point x="178" y="-12" type="curve" smooth="yes"/>
      <point x="111" y="-12"/>
      <point x="87" y="30"/>
    </contour>
    <contour>
      <point x="73" y="547" type="line"/>
      <point x="253" y="720" type="line" smooth="yes"/>
      <point x="269" y="736"/>
      <point x="286" y="747"/>
      <point x="301" y="747" type="curve" smooth="yes"/>
      <point x="318" y="747"/>
      <point x="327" y="734"/>
      <point x="337" y="719" type="curve" smooth="yes"/>
      <point x="451" y="547" type="line"/>
      <point x="422" y="520" type="line"/>
      <point x="309" y="616" type="line" smooth="yes"/>
      <point x="299" y="625"/>
      <point x="289" y="633"/>
      <point x="279" y="633" type="curve" smooth="yes"/>
      <point x="270" y="633"/>
      <point x="255" y="625"/>
      <point x="241" y="616" type="curve" smooth="yes"/>
      <point x="96" y="520" type="line"/>
    </contour>
  </outline>
</glyph>
<glyph name="ntilde" format="1">
  <advance width="635"/>
  <unicode hex="00F1"/>
  <outline>
    <contour>
      <point x="80" y="-12" type="line"/>
      <point x="183" y="391" type="line" smooth="yes"/>
      <point x="191" y="418"/>
      <point x="187" y="432"/>
      <point x="168" y="434" type="curve" smooth="yes"/>
      <point x="108" y="440" type="line"/>
      <point x="116" y="473" type="line"/>
      <point x="349" y="502" type="line"/>
      <point x="354" y="497" type="line"/>
      <point x="286" y="280" type="line"/>
      <point x="292" y="280" type="line"/>
      <point x="354" y="396"/>
      <point x="445" y="502"/>
      <point x="548" y="502" type="curve" smooth="yes"/>
      <point x="632" y="502"/>
      <point x="646" y="436"/>
      <point x="623" y="357" type="curve" smooth="yes"/>
      <point x="548" y="115" type="line" smooth="yes"/>
      <point x="540" y="89"/>
      <point x="541" y="68"/>
      <point x="559" y="68" type="curve" smooth="yes"/>
      <point x="583" y="68"/>
      <point x="621" y="121"/>
      <point x="645" y="166" type="curve"/>
      <point x="674" y="148" type="line"/>
      <point x="633" y="64"/>
      <point x="573" y="-12"/>
      <point x="473" y="-12" type="curve" smooth="yes"/>
      <point x="412" y="-12"/>
      <point x="383" y="30"/>
      <point x="405" y="107" type="curve" smooth="yes"/>
      <point x="481" y="363" type="line" smooth="yes"/>
      <point x="490" y="393"/>
      <point x="492" y="422"/>
      <point x="461" y="422" type="curve" smooth="yes"/>
      <point x="413" y="422"/>
      <point x="323" y="288"/>
      <point x="293" y="213" type="curve" smooth="yes"/>
      <point x="270" y="155"/>
      <point x="250" y="102"/>
      <point x="221" y="0" type="curve"/>
    </contour>
    <contour>
      <point x="232" y="567" type="line"/>
      <point x="240" y="609"/>
      <point x="276" y="688"/>
      <point x="357" y="688" type="curve" smooth="yes"/>
      <point x="385" y="688"/>
      <point x="418" y="677"/>
      <point x="451" y="666" type="curve" smooth="yes"/>
      <point x="484" y="656"/>
      <point x="517" y="645"/>
      <point x="543" y="646" type="curve" smooth="yes"/>
      <point x="564" y="648"/>
      <point x="582" y="656"/>
      <point x="618" y="697" type="curve"/>
      <point x="640" y="684" type="line"/>
      <point x="608" y="620"/>
      <point x="586" y="562"/>
      <point x="513" y="562" type="curve" smooth="yes"/>
      <point x="492" y="562"/>
      <point x="461" y="573"/>
      <point x="428" y="583" type="curve" smooth="yes"/>
      <point x="395" y="594"/>
      <point x="359" y="604"/>
      <point x="329" y="604" type="curve" smooth="yes"/>
      <point x="292" y="604"/>
      <point x="276" y="588"/>
      <point x="254" y="549" type="curve"/>
    </contour>
  </outline>
</glyph>
<glyph name="ocircumflex" format="2">
  <advance width="562"/>
  <unicode hex="00F4"/>
  <outline>
    <contour>
      <point x="222" y="107" type="curve" smooth="yes"/>
      <point x="222" y="57"/>
      <point x="245" y="34"/>
      <point x="282" y="34" type="curve" smooth="yes"/>
      <point x="288" y="34"/>
      <point x="294" y="35"/>
      <point x="299" y="36" type="curve"/>
      <point x="388" y="61"/>
      <point x="440" y="276"/>
      <point x="445" y="360" type="curve"/>
      <point x="446" y="365"/>
      <point x="446" y="370"/>
      <point x="446" y="374" type="curve" smooth="yes"/>
      <point x="446" y="416"/>
      <point x="436" y="456"/>
      <point x="389" y="456" type="curve" smooth="yes"/>
      <point x="383" y="456"/>
      <point x="377" y="455"/>
      <point x="372" y="454" type="curve"/>
      <point x="333" y="444"/>
      <point x="301" y="399"/>
      <point x="274" y="339" type="curve" smooth="yes"/>
      <point x="242" y="266"/>
      <point x="222" y="174"/>
    </contour>
    <contour>
      <point x="77" y="174" type="curve" smooth="yes"/>
      <point x="77" y="219"/>
      <point x="90" y="300"/>
      <point x="136" y="371" type="curve" smooth="yes"/>
      <point x="181" y="441"/>
      <point x="252" y="502"/>
      <point x="381" y="502" type="curve" smooth="yes"/>
      <point x="475" y="502"/>
      <point x="572" y="469"/>
      <point x="588" y="347" type="curve"/>
      <point x="590" y="335"/>
      <point x="591" y="322"/>
      <point x="591" y="308" type="curve" smooth="yes"/>
      <point x="591" y="263"/>
      <point x="575" y="188"/>
      <point x="529" y="115" type="curve" smooth="yes"/>
      <point x="482" y="40"/>
      <point x="410" y="-12"/>
      <point x="284" y="-12" type="curve" smooth="yes"/>
      <point x="139" y="-12"/>
      <point x="77" y="66"/>
    </contour>
    <contour>
      <point x="194" y="547" type="line"/>
      <point x="361" y="708" type="line" smooth="yes"/>
      <point x="365" y="712"/>
      <point x="370" y="716"/>
      <point x="374" y="720" type="curve" smooth="yes"/>
      <point x="390" y="736"/>
      <point x="407" y="747"/>
      <point x="422" y="747" type="curve" smooth="yes"/>
      <point x="439" y="747"/>
      <point x="448" y="734"/>
      <point x="458" y="719" type="curve" smooth="yes"/>
      <point x="572" y="547" type="line"/>
      <point x="543" y="520" type="line"/>
      <point x="430" y="616" type="line"/>
      <point x="420" y="625"/>
      <point x="410" y="633"/>
      <point x="400" y="633" type="curve" smooth="yes"/>
      <point x="391" y="633"/>
      <point x="376" y="625"/>
      <point x="362" y="616" type="curve" smooth="yes"/>
      <point x="217" y="520" type="line"/>
    </contour>
  </outline>
</glyph>
<glyph name="divide" format="1">
  <advance width="600"/>
  <unicode hex="00F7"/>
  <outline>
    <contour>
      <point x="98" y="210" type="line"/>
      <point x="98" y="290" type="line"/>
      <point x="582" y="290" type="line"/>
      <point x="582" y="210" type="line"/>
    </contour>
    <contour>
      <point x="272" y="424" type="curve" smooth="yes"/>
      <point x="272" y="461"/>
      <point x="301" y="493"/>
      <point x="340" y="493" type="curve" smooth="yes"/>
      <point x="380" y="493"/>
      <point x="410" y="461"/>
      <point x="411" y="425" type="curve"/>
      <point x="410" y="424" type="line"/>
      <point x="410" y="385"/>
      <point x="380" y="354"/>
      <point x="340" y="354" type="curve" smooth="yes"/>
      <point x="301" y="354"/>
      <point x="272" y="385"/>
    </contour>
    <contour>
      <point x="272" y="77" type="curve" smooth="yes"/>
      <point x="272" y="114"/>
      <point x="301" y="146"/>
      <point x="340" y="146" type="curve" smooth="yes"/>
      <point x="380" y="146"/>
      <point x="410" y="114"/>
      <point x="411" y="78" type="curve"/>
      <point x="410" y="77" type="line"/>
      <point x="410" y="38"/>
      <point x="380" y="7"/>
      <point x="340" y="7" type="curve" smooth="yes"/>
      <point x="301" y="7"/>
      <point x="272" y="38"/>
    </contour>
  </outline>
</glyph>
<glyph name="oslash" format="2">
  <advance width="562"/>
  <unicode hex="00F8"/>
  <outline>
    <contour>
      <point x="234" y="50" type="line"/>
      <point x="245" y="39"/>
      <point x="261" y="34"/>
      <point x="281" y="34" type="curve" smooth="yes"/>
      <point x="289" y="34"/>
      <point x="296" y="35"/>
      <point x="303" y="37" type="curve" smooth="yes"/>
      <point x="397" y="66"/>
      <point x="448" y="272"/>
      <point x="455" y="357" type="curve"/>
      <point x="456" y="363"/>
      <point x="456" y="369"/>
      <point x="456" y="374" type="curve" smooth="yes"/>
      <point x="456" y="379"/>
      <point x="456" y="384"/>
      <point x="455" y="387" type="curve"/>
    </contour>
    <contour>
      <point x="212" y="107" type="curve" smooth="yes"/>
      <point x="212" y="102"/>
      <point x="212" y="96"/>
      <point x="214" y="94" type="curve"/>
      <point x="438" y="437" type="line"/>
      <point x="427" y="449"/>
      <point x="411" y="456"/>
      <point x="388" y="456" type="curve" smooth="yes"/>
      <point x="333" y="456"/>
      <point x="295" y="408"/>
      <point x="264" y="339" type="curve" smooth="yes"/>
      <point x="232" y="266"/>
      <point x="212" y="174"/>
    </contour>
    <contour>
      <point x="77" y="174" type="curve" smooth="yes"/>
      <point x="77" y="219"/>
      <point x="90" y="300"/>
      <point x="135" y="371" type="curve" smooth="yes"/>
      <point x="179" y="441"/>
      <point x="252" y="502"/>
      <point x="381" y="502" type="curve" smooth="yes"/>
      <point x="412" y="502"/>
      <point x="442" y="499"/>
      <point x="471" y="489" type="curve"/>
      <point x="510" y="549" type="line"/>
      <point x="544" y="525" type="line"/>
      <point x="510" y="473" type="line"/>
      <point x="553" y="450"/>
      <point x="584" y="408"/>
      <point x="590" y="337" type="curve"/>
      <point x="591" y="329"/>
      <point x="591" y="321"/>
      <point x="591" y="312" type="curve" smooth="yes"/>
      <point x="591" y="265"/>
      <point x="575" y="188"/>
      <point x="529" y="115" type="curve" smooth="yes"/>
      <point x="526" y="110"/>
      <point x="522" y="104"/>
      <point x="519" y="99" type="curve"/>
      <point x="471" y="33"/>
      <point x="401" y="-12"/>
      <point x="284" y="-12" type="curve" smooth="yes"/>
      <point x="278" y="-12"/>
      <point x="271" y="-12"/>
      <point x="265" y="-12" type="curve"/>
      <point x="241" y="-10"/>
      <point x="219" y="-6"/>
      <point x="200" y="0" type="curve"/>
      <point x="155" y="-69" type="line"/>
      <point x="123" y="-42" type="line"/>
      <point x="161" y="15" type="line"/>
      <point x="103" y="46"/>
      <point x="77" y="103"/>
    </contour>
  </outline>
</glyph>
<glyph name="uacute" format="2">
  <advance width="634"/>
  <unicode hex="00FA"/>
  <outline>
    <contour>
      <point x="109" y="443" type="line"/>
      <point x="117" y="476" type="line"/>
      <point x="348" y="502" type="line"/>
      <point x="353" y="497" type="line"/>
      <point x="259" y="128" type="line" smooth="yes"/>
      <point x="249" y="91"/>
      <point x="250" y="68"/>
      <point x="278" y="68" type="curve" smooth="yes"/>
      <point x="325" y="68"/>
      <point x="407" y="199"/>
      <point x="443" y="285" type="curve" smooth="yes"/>
      <point x="465" y="335"/>
      <point x="481" y="388"/>
      <point x="510" y="490" type="curve"/>
      <point x="652" y="502" type="line"/>
      <point x="551" y="115" type="line"/>
      <point x="551" y="115" type="line"/>
      <point x="543" y="89"/>
      <point x="544" y="68"/>
      <point x="563" y="68" type="curve" smooth="yes"/>
      <point x="586" y="68"/>
      <point x="623" y="121"/>
      <point x="649" y="166" type="curve"/>
      <point x="678" y="148" type="line"/>
      <point x="637" y="65"/>
      <point x="576" y="-12"/>
      <point x="479" y="-12" type="curve" smooth="yes"/>
      <point x="425" y="-12"/>
      <point x="397" y="28"/>
      <point x="415" y="96" type="curve" smooth="yes"/>
      <point x="446" y="210" type="line"/>
      <point x="442" y="210" type="line"/>
      <point x="379" y="94"/>
      <point x="296" y="-12"/>
      <point x="183" y="-12" type="curve" smooth="yes"/>
      <point x="103" y="-12"/>
      <point x="95" y="53"/>
      <point x="116" y="133" type="curve" smooth="yes"/>
      <point x="183" y="391" type="line" smooth="yes"/>
      <point x="191" y="421"/>
      <point x="187" y="435"/>
      <point x="168" y="437" type="curve" smooth="yes"/>
    </contour>
    <contour>
      <point x="388" y="541" type="line"/>
      <point x="533" y="690" type="line" smooth="yes"/>
      <point x="570" y="728"/>
      <point x="587" y="740"/>
      <point x="607" y="740" type="curve" smooth="yes"/>
      <point x="626" y="740"/>
      <point x="649" y="718"/>
      <point x="657" y="696" type="curve"/>
      <point x="659" y="690"/>
      <point x="660" y="685"/>
      <point x="660" y="680" type="curve" smooth="yes"/>
      <point x="660" y="654"/>
      <point x="628" y="634"/>
      <point x="592" y="614" type="curve" smooth="yes"/>
      <point x="409" y="511" type="line"/>
    </contour>
  </outline>
</glyph>
<glyph name="yacute" format="2">
  <advance width="489"/>
  <unicode hex="00FD"/>
  <outline>
    <contour>
      <point x="-14" y="-180" type="curve"/>
      <point x="-16" y="-141"/>
      <point x="18" y="-100"/>
      <point x="54" y="-99" type="curve"/>
      <point x="71" y="-99"/>
      <point x="80" y="-105"/>
      <point x="90" y="-118" type="curve" smooth="yes"/>
      <point x="93" y="-122"/>
      <point x="97" y="-127"/>
      <point x="101" y="-132" type="curve"/>
      <point x="116" y="-154"/>
      <point x="131" y="-169"/>
      <point x="145" y="-169" type="curve" smooth="yes"/>
      <point x="162" y="-169"/>
      <point x="177" y="-152"/>
      <point x="189" y="-112" type="curve" smooth="yes"/>
      <point x="198" y="-82"/>
      <point x="200" y="-48"/>
      <point x="200" y="-10" type="curve" smooth="yes"/>
      <point x="200" y="-5"/>
      <point x="200" y="0"/>
      <point x="200" y="6" type="curve"/>
      <point x="197" y="107"/>
      <point x="170" y="289"/>
      <point x="156" y="363" type="curve" smooth="yes"/>
      <point x="148" y="408"/>
      <point x="141" y="425"/>
      <point x="119" y="424" type="curve"/>
      <point x="57" y="424" type="line"/>
      <point x="57" y="454" type="line"/>
      <point x="274" y="502" type="line"/>
      <point x="282" y="498" type="line"/>
      <point x="297" y="444"/>
      <point x="316" y="222"/>
      <point x="317" y="72" type="curve"/>
      <point x="320" y="72" type="line"/>
      <point x="377" y="175"/>
      <point x="420" y="271"/>
      <point x="433" y="339" type="curve" smooth="yes"/>
      <point x="441" y="381"/>
      <point x="443" y="442"/>
      <point x="442" y="477" type="curve"/>
      <point x="482" y="495"/>
      <point x="522" y="502"/>
      <point x="546" y="502" type="curve" smooth="yes"/>
      <point x="554" y="502"/>
      <point x="567" y="472"/>
      <point x="567" y="448" type="curve" smooth="yes"/>
      <point x="567" y="406"/>
      <point x="508" y="309"/>
      <point x="450" y="213" type="curve" smooth="yes"/>
      <point x="389" y="113"/>
      <point x="332" y="5"/>
      <point x="311" y="-29" type="curve" smooth="yes"/>
      <point x="306" y="-37"/>
      <point x="301" y="-45"/>
      <point x="297" y="-52" type="curve"/>
      <point x="223" y="-172"/>
      <point x="174" y="-242"/>
      <point x="77" y="-242" type="curve" smooth="yes"/>
      <point x="69" y="-242"/>
      <point x="61" y="-241"/>
      <point x="54" y="-240" type="curve" smooth="yes"/>
      <point x="10" y="-233"/>
      <point x="-14" y="-207"/>
    </contour>
    <contour>
      <point x="291" y="541" type="line"/>
      <point x="436" y="690" type="line" smooth="yes"/>
      <point x="473" y="728"/>
      <point x="490" y="740"/>
      <point x="510" y="740" type="curve" smooth="yes"/>
      <point x="529" y="740"/>
      <point x="552" y="718"/>
      <point x="560" y="696" type="curve"/>
      <point x="562" y="690"/>
      <point x="563" y="685"/>
      <point x="563" y="680" type="curve" smooth="yes"/>
      <point x="563" y="654"/>
      <point x="531" y="634"/>
      <point x="495" y="614" type="curve" smooth="yes"/>
      <point x="312" y="511" type="line"/>
    </contour>
  </outline>
</glyph>
<glyph name="thorn" format="1">
  <advance width="600"/>
  <unicode hex="00FE"/>
  <outline>
    <contour>
      <point x="237" y="64" type="curve"/>
      <point x="255" y="46"/>
      <point x="281" y="34"/>
      <point x="312" y="34" type="curve" smooth="yes"/>
      <point x="429" y="34"/>
      <point x="491" y="299"/>
      <point x="488" y="367" type="curve" smooth="yes"/>
      <point x="488" y="403"/>
      <point x="477" y="422"/>
      <point x="451" y="422" type="curve" smooth="yes"/>
      <point x="412" y="422"/>
      <point x="360" y="364"/>
      <point x="315" y="283" type="curve" smooth="yes"/>
      <point x="279" y="217"/>
      <point x="249" y="117"/>
    </contour>
    <contour>
      <point x="29" y="-242" type="line"/>
      <point x="209" y="580" type="line" smooth="yes"/>
      <point x="216" y="611"/>
      <point x="217" y="630"/>
      <point x="197" y="632" type="curve" smooth="yes"/>
      <point x="138" y="638" type="line"/>
      <point x="147" y="671" type="line"/>
      <point x="379" y="700" type="line"/>
      <point x="384" y="695" type="line"/>
      <point x="277" y="286" type="line"/>
      <point x="281" y="286" type="line"/>
      <point x="358" y="429"/>
      <point x="443" y="502"/>
      <point x="530" y="502" type="curve" smooth="yes"/>
      <point x="603" y="502"/>
      <point x="639" y="459"/>
      <point x="642" y="374" type="curve" smooth="yes"/>
      <point x="646" y="300"/>
      <point x="575" y="-12"/>
      <point x="333" y="-12" type="curve" smooth="yes"/>
      <point x="281" y="-12"/>
      <point x="246" y="-3"/>
      <point x="226" y="9" type="curve"/>
      <point x="169" y="-230" type="line"/>
    </contour>
  </outline>
</glyph>
<glyph name="ydieresis" format="2">
  <advance width="489"/>
  <unicode hex="00FF"/>
  <outline>
    <contour>
      <point x="-14" y="-180" type="curve"/>
      <point x="-16" y="-141"/>
      <point x="18" y="-100"/>
      <point x="54" y="-99" type="curve"/>
      <point x="71" y="-99"/>
      <point x="80" y="-105"/>
      <point x="90" y="-118" type="curve" smooth="yes"/>
      <point x="93" y="-122"/>
      <point x="97" y="-127"/>
      <point x="101" y="-132" type="curve"/>
      <point x="116" y="-154"/>
      <point x="131" y="-169"/>
      <point x="145" y="-169" type="curve" smooth="yes"/>
      <point x="162" y="-169"/>
      <point x="177" y="-152"/>
      <point x="189" y="-112" type="curve" smooth="yes"/>
      <point x="198" y="-82"/>
      <point x="200" y="-48"/>
      <point x="200" y="-10" type="curve" smooth="yes"/>
      <point x="200" y="-5"/>
      <point x="200" y="0"/>
      <point x="200" y="6" type="curve"/>
      <point x="197" y="107"/>
      <point x="170" y="289"/>
      <point x="156" y="363" type="curve" smooth="yes"/>
      <point x="148" y="408"/>
      <point x="141" y="425"/>
      <point x="119" y="424" type="curve"/>
      <point x="57" y="424" type="line"/>
      <point x="57" y="454" type="line"/>
      <point x="274" y="502" type="line"/>
      <point x="282" y="498" type="line"/>
      <point x="297" y="444"/>
      <point x="316" y="222"/>
      <point x="317" y="72" type="curve"/>
      <point x="320" y="72" type="line"/>
      <point x="377" y="175"/>
      <point x="420" y="271"/>
      <point x="433" y="339" type="curve" smooth="yes"/>
      <point x="441" y="381"/>
      <point x="443" y="442"/>
      <point x="442" y="477" type="curve"/>
      <point x="482" y="495"/>
      <point x="522" y="502"/>
      <point x="546" y="502" type="curve" smooth="yes"/>
      <point x="554" y="502"/>
      <point x="567" y="472"/>
      <point x="567" y="448" type="curve" smooth="yes"/>
      <point x="567" y="406"/>
      <point x="508" y="309"/>
      <point x="450" y="213" type="curve" smooth="yes"/>
      <point x="389" y="113"/>
      <point x="332" y="5"/>
      <point x="311" y="-29" type="curve" smooth="yes"/>
      <point x="306" y="-37"/>
      <point x="301" y="-45"/>
      <point x="297" y="-52" type="curve"/>
      <point x="223" y="-172"/>
      <point x="174" y="-242"/>
      <point x="77" y="-242" type="curve" smooth="yes"/>
      <point x="69" y="-242"/>
      <point x="61" y="-241"/>
      <point x="54" y="-240" type="curve" smooth="yes"/>
      <point x="10" y="-233"/>
      <point x="-14" y="-207"/>
    </contour>
    <contour>
      <point x="166" y="635" type="curve" smooth="yes"/>
      <point x="166" y="673"/>
      <point x="194" y="710"/>
      <point x="245" y="710" type="curve"/>
      <point x="245" y="710"/>
      <point x="245" y="710"/>
      <point x="245" y="710" type="curve"/>
      <point x="291" y="710"/>
      <point x="318" y="681"/>
      <point x="323" y="648" type="curve"/>
      <point x="324" y="643"/>
      <point x="324" y="639"/>
      <point x="324" y="635" type="curve" smooth="yes"/>
      <point x="324" y="597"/>
      <point x="297" y="561"/>
      <point x="245" y="561" type="curve"/>
      <point x="245" y="561"/>
      <point x="245" y="561"/>
      <point x="245" y="561" type="curve"/>
      <point x="194" y="561"/>
      <point x="166" y="597"/>
    </contour>
    <contour>
      <point x="406" y="635" type="curve" smooth="yes"/>
      <point x="406" y="673"/>
      <point x="434" y="710"/>
      <point x="485" y="710" type="curve"/>
      <point x="485" y="710"/>
      <point x="485" y="710"/>
      <point x="485" y="710" type="curve"/>
      <point x="531" y="710"/>
      <point x="558" y="681"/>
      <point x="563" y="648" type="curve"/>
      <point x="564" y="643"/>
      <point x="564" y="639"/>
      <point x="564" y="635" type="curve" smooth="yes"/>
      <point x="564" y="597"/>
      <point x="537" y="561"/>
      <point x="485" y="561" type="curve"/>
      <point x="485" y="561"/>
      <point x="485" y="561"/>
      <point x="485" y="561" type="curve"/>
      <point x="434" y="561"/>
      <point x="406" y="597"/>
    </contour>
  </outline>
</glyph>
<glyph name="Amacron" format="2">
  <advance width="634"/>
  <unicode hex="0100"/>
  <outline>
    <contour>
      <point x="260" y="294" type="curve"/>
      <point x="429" y="294" type="line"/>
      <point x="405" y="555" type="line"/>
      <point x="403" y="555" type="line"/>
      <point x="386" y="528"/>
      <point x="273" y="319"/>
    </contour>
    <contour>
      <point x="-24" y="0" type="line"/>
      <point x="-17" y="38" type="line"/>
      <point x="10" y="41" type="line" smooth="yes"/>
      <point x="40" y="44"/>
      <point x="55" y="54"/>
      <point x="75" y="87" type="curve"/>
      <point x="78" y="91"/>
      <point x="80" y="96"/>
      <point x="83" y="101" type="curve" smooth="yes"/>
      <point x="114" y="153"/>
      <point x="171" y="253"/>
      <point x="226" y="349" type="curve" smooth="yes"/>
      <point x="235" y="365"/>
      <point x="244" y="382"/>
      <point x="254" y="398" type="curve"/>
      <point x="420" y="692" type="line"/>
      <point x="538" y="692" type="line"/>
      <point x="572" y="375" type="line" smooth="yes"/>
      <point x="580" y="302"/>
      <point x="594" y="159"/>
      <point x="602" y="86" type="curve"/>
      <point x="606" y="58"/>
      <point x="610" y="43"/>
      <point x="633" y="41" type="curve" smooth="yes"/>
      <point x="674" y="38" type="line"/>
      <point x="666" y="0" type="line"/>
      <point x="366" y="0" type="line"/>
      <point x="374" y="38" type="line"/>
      <point x="426" y="42" type="line"/>
      <point x="446" y="43"/>
      <point x="451" y="55"/>
      <point x="449" y="79" type="curve" smooth="yes"/>
      <point x="434" y="246" type="line"/>
      <point x="234" y="246" type="line"/>
      <point x="202" y="188"/>
      <point x="176" y="132"/>
      <point x="148" y="79" type="curve" smooth="yes"/>
      <point x="138" y="59"/>
      <point x="139" y="43"/>
      <point x="161" y="42" type="curve" smooth="yes"/>
      <point x="217" y="38" type="line"/>
      <point x="210" y="0" type="line"/>
    </contour>
    <contour>
      <point x="321" y="770" type="line"/>
      <point x="339" y="847" type="line"/>
      <point x="689" y="847" type="line"/>
      <point x="671" y="770" type="line"/>
    </contour>
  </outline>
</glyph>
